<svg width="25" height="25" viewBox="0 0 25 25" fill="none" xmlns="http://www.w3.org/2000/svg">
<path d="M25 12.5C25 19.4036 19.4036 25 12.5 25C10.0939 25 7.84659 24.3202 5.93965 23.1421C5.1134 22.6317 2.07256 24.2938 1.38889 23.6111C0.808325 23.0314 2.56298 20.1287 2.10493 19.4444C0.775377 17.4582 0 15.0696 0 12.5C0 5.59644 5.59644 0 12.5 0C19.4036 0 25 5.59644 25 12.5Z" fill="#77FF61"/>
<path d="M18.7658 15.2552C18.4238 15.0833 16.7346 14.2517 16.4169 14.1337C16.1009 14.0208 15.87 13.9618 15.6443 14.3056C15.4134 14.6476 14.7537 15.4271 14.5558 15.651C14.3579 15.8819 14.153 15.908 13.8092 15.7378C13.4672 15.5642 12.3579 15.2031 11.0454 14.0278C10.0211 13.1163 9.33529 11.9878 9.13042 11.6458C8.93251 11.3021 9.11133 11.1181 9.2832 10.9462C9.43424 10.7934 9.62522 10.5434 9.79709 10.3455C9.9707 10.1476 10.028 10.0017 10.1408 9.77257C10.2537 9.53993 10.1999 9.34201 10.1148 9.17014C10.028 8.99826 9.34223 7.30208 9.0523 6.61806C8.77452 5.94271 8.49154 6.03646 8.27973 6.02778C8.08181 6.01562 7.85091 6.01562 7.62001 6.01562C7.44564 6.01996 7.27405 6.06029 7.116 6.13408C6.95796 6.20788 6.81688 6.31354 6.70161 6.44444C6.38563 6.78819 5.50195 7.61979 5.50195 9.31597C5.50195 11.0122 6.73459 12.6424 6.9082 12.8733C7.07834 13.1042 9.32834 16.5747 12.7815 18.0677C13.5974 18.4236 14.2398 18.6337 14.7415 18.7934C15.5662 19.0573 16.311 19.0174 16.9047 18.9323C17.5645 18.8316 18.9377 18.099 19.2276 17.2951C19.5124 16.4896 19.5124 15.8021 19.4256 15.658C19.3405 15.5122 19.1096 15.4271 18.7658 15.2552Z" fill="white"/>
</svg>
