<svg width="55" height="58" viewBox="0 0 55 58" fill="none" xmlns="http://www.w3.org/2000/svg">
<g clip-path="url(#clip0_193_1373)">
<path d="M37.7656 49.9195L32.1375 46.6346C32.026 46.5852 31.9336 46.5006 31.8747 46.3937L30.7798 44.587L34.1303 42.6599L34.0209 42.9556L37.7656 49.9195Z" fill="#BFBFBF"/>
<g opacity="0.1">
<path opacity="0.1" d="M37.7656 49.9195L32.1375 46.6346C32.026 46.5852 31.9336 46.5006 31.8747 46.3937L30.7798 44.587L34.1303 42.6599L34.0209 42.9556L37.7656 49.9195Z" fill="black"/>
</g>
<path d="M33.6702 42.9661L37.5682 49.7111C37.6173 49.8221 37.6999 49.9149 37.8044 49.9765C37.909 50.0381 38.0302 50.0653 38.1511 50.0545C38.2719 50.0436 38.3863 49.9951 38.4782 49.9158C38.5701 49.8366 38.6348 49.7305 38.6632 49.6125L42.7803 37.7322L33.6702 42.9661Z" fill="#BFBFBF"/>
<path d="M55 5.3651C54.9495 4.42079 54.6761 3.50184 54.2022 2.68348C53.7284 1.86512 53.0674 1.1706 52.2735 0.656759V0.656759C51.4256 0.225048 50.4876 0 49.5361 0C48.5846 0 47.6466 0.225048 46.7987 0.656759L2.71552 26.0818C1.92489 26.5982 1.26701 27.2935 0.795226 28.1115C0.323441 28.9295 0.0510079 29.8472 1.1308e-06 30.7901V53.1164C0.0510079 54.0594 0.323441 54.977 0.795226 55.795C1.26701 56.6131 1.92489 57.3084 2.71552 57.8248V57.8248C3.56344 58.2565 4.50144 58.4815 5.45293 58.4815C6.40442 58.4815 7.34242 58.2565 8.19034 57.8248L52.5363 32.2136C54.9781 30.823 55 29.4214 55 27.6914V5.3651Z" fill="#BFBFBF"/>
<path d="M14.694 38.159L46.1632 19.895C47.072 19.3694 47.8057 19.6103 47.8057 20.4315C47.7406 20.9382 47.5583 21.4228 47.2732 21.8466C46.9881 22.2705 46.608 22.6221 46.1632 22.8733L14.683 41.1373C13.7633 41.6629 13.0296 41.422 13.0296 40.6008C13.097 40.092 13.2827 39.6062 13.5717 39.1822C13.8608 38.7581 14.2451 38.4077 14.694 38.159V38.159Z" fill="#455A64"/>
<path d="M24.264 39.0023L46.1632 26.2788C47.072 25.7532 47.8057 25.9941 47.8057 26.8153C47.7439 27.3259 47.563 27.8148 47.2778 28.2427C46.9925 28.6706 46.6107 29.0256 46.1632 29.279L24.264 42.0025C23.3551 42.528 22.6106 42.2872 22.6106 41.4659C22.6735 40.9544 22.856 40.4648 23.1433 40.0368C23.4305 39.6088 23.8144 39.2544 24.264 39.0023V39.0023Z" fill="#455A64"/>
<path d="M14.694 31.7208L46.1632 13.4568C47.072 12.9312 47.8057 13.1721 47.8057 13.9933C47.7406 14.5 47.5583 14.9845 47.2732 15.4084C46.9881 15.8323 46.608 16.1838 46.1632 16.4351L14.694 34.7538C13.7742 35.2794 13.0406 35.0385 13.0406 34.2173C13.0986 33.6999 13.2788 33.2037 13.5663 32.7697C13.8537 32.3356 14.2403 31.9761 14.694 31.7208V31.7208Z" fill="#455A64"/>
<path opacity="0.1" d="M0.043621 53.1167C0.0946278 54.0596 0.367061 54.9772 0.838846 55.7953C1.31063 56.6133 1.96849 57.3086 2.75913 57.825V57.825C3.52582 58.2142 4.36652 58.436 5.22545 58.4757C6.08438 58.5153 6.94192 58.3719 7.74121 58.0549C6.4601 58.5367 5.48559 57.8031 5.48559 56.2592V33.9329C5.51948 32.9852 5.79459 32.0619 6.28491 31.2502L0.810092 28.1187C0.317499 28.9253 0.0421295 29.8457 0.0107735 30.7904L0.043621 53.1167Z" fill="black"/>
<path opacity="0.3" d="M54.9238 4.59865C54.6063 3.43798 53.5551 3.07665 52.2959 3.79933L8.20176 29.2791C7.39533 29.7733 6.73418 30.4722 6.28557 31.3048L0.810755 28.1732C1.26874 27.3445 1.92765 26.6442 2.72694 26.1366L46.8321 0.65678C47.6805 0.226771 48.6183 0.00268555 49.5695 0.00268555C50.5206 0.00268555 51.4584 0.226771 52.3069 0.65678C52.9879 1.10167 53.5712 1.68063 54.0211 2.35835C54.471 3.03606 54.7782 3.79832 54.9238 4.59865Z" fill="white"/>
<g style="mix-blend-mode:overlay">
<mask id="mask0_193_1373" style="mask-type:alpha" maskUnits="userSpaceOnUse" x="0" y="0" width="55" height="59">
<path d="M37.7656 49.9195L32.1375 46.6346C32.026 46.5852 31.9336 46.5006 31.8747 46.3937L30.7798 44.587L34.1303 42.6599L34.0209 42.9556L37.7656 49.9195Z" fill="#E0E0E0"/>
<g opacity="0.1">
<path opacity="0.1" d="M37.7656 49.9195L32.1375 46.6346C32.026 46.5852 31.9336 46.5006 31.8747 46.3937L30.7798 44.587L34.1303 42.6599L34.0209 42.9556L37.7656 49.9195Z" fill="black"/>
</g>
<path d="M33.6702 42.9661L37.5682 49.7111C37.6173 49.8221 37.6999 49.9149 37.8044 49.9765C37.909 50.0381 38.0302 50.0653 38.1511 50.0545C38.2719 50.0436 38.3863 49.9951 38.4782 49.9158C38.5701 49.8366 38.6348 49.7305 38.6632 49.6125L42.7803 37.7322L33.6702 42.9661Z" fill="#E0E0E0"/>
<path d="M55 5.3651C54.9495 4.42079 54.6761 3.50184 54.2022 2.68348C53.7284 1.86512 53.0674 1.1706 52.2735 0.656759V0.656759C51.4256 0.225048 50.4876 0 49.5361 0C48.5846 0 47.6466 0.225048 46.7987 0.656759L2.71552 26.0818C1.92489 26.5982 1.26701 27.2935 0.795226 28.1115C0.323441 28.9295 0.0510079 29.8472 1.1308e-06 30.7901V53.1164C0.0510079 54.0594 0.323441 54.977 0.795226 55.795C1.26701 56.6131 1.92489 57.3084 2.71552 57.8248V57.8248C3.56344 58.2565 4.50144 58.4815 5.45293 58.4815C6.40442 58.4815 7.34242 58.2565 8.19034 57.8248L52.5363 32.2136C54.9781 30.823 55 29.4214 55 27.6914V5.3651Z" fill="#E0E0E0"/>
<path d="M14.694 38.159L46.1632 19.895C47.072 19.3694 47.8057 19.6103 47.8057 20.4315C47.7406 20.9382 47.5583 21.4228 47.2732 21.8466C46.9881 22.2705 46.608 22.6221 46.1632 22.8733L14.683 41.1373C13.7633 41.6629 13.0296 41.422 13.0296 40.6008C13.097 40.092 13.2827 39.6062 13.5717 39.1822C13.8608 38.7581 14.2451 38.4077 14.694 38.159V38.159Z" fill="#455A64"/>
<path d="M24.264 39.0023L46.1632 26.2788C47.072 25.7532 47.8057 25.9941 47.8057 26.8153C47.7439 27.3259 47.563 27.8148 47.2778 28.2427C46.9925 28.6706 46.6107 29.0256 46.1632 29.279L24.264 42.0025C23.3551 42.528 22.6106 42.2872 22.6106 41.4659C22.6735 40.9544 22.856 40.4648 23.1433 40.0368C23.4305 39.6088 23.8144 39.2544 24.264 39.0023V39.0023Z" fill="#455A64"/>
<path d="M14.694 31.7208L46.1632 13.4568C47.072 12.9312 47.8057 13.1721 47.8057 13.9933C47.7406 14.5 47.5583 14.9845 47.2732 15.4084C46.9881 15.8323 46.608 16.1838 46.1632 16.4351L14.694 34.7538C13.7742 35.2794 13.0406 35.0385 13.0406 34.2173C13.0986 33.6999 13.2788 33.2037 13.5663 32.7697C13.8537 32.3356 14.2403 31.9761 14.694 31.7208V31.7208Z" fill="#455A64"/>
<path opacity="0.1" d="M0.043621 53.1167C0.0946278 54.0596 0.367061 54.9772 0.838846 55.7953C1.31063 56.6133 1.96849 57.3086 2.75913 57.825V57.825C3.52582 58.2142 4.36652 58.436 5.22545 58.4757C6.08438 58.5153 6.94192 58.3719 7.74121 58.0549C6.4601 58.5367 5.48559 57.8031 5.48559 56.2592V33.9329C5.51948 32.9852 5.79459 32.0619 6.28491 31.2502L0.810092 28.1187C0.317499 28.9253 0.0421295 29.8457 0.0107735 30.7904L0.043621 53.1167Z" fill="black"/>
<path opacity="0.3" d="M54.9238 4.59865C54.6063 3.43798 53.5551 3.07665 52.2959 3.79933L8.20176 29.2791C7.39533 29.7733 6.73418 30.4722 6.28557 31.3048L0.810755 28.1732C1.26874 27.3445 1.92765 26.6442 2.72694 26.1366L46.8321 0.65678C47.6805 0.226771 48.6183 0.00268555 49.5695 0.00268555C50.5206 0.00268555 51.4584 0.226771 52.3069 0.65678C52.9879 1.10167 53.5712 1.68063 54.0211 2.35835C54.471 3.03606 54.7782 3.79832 54.9238 4.59865Z" fill="white"/>
</mask>
<g mask="url(#mask0_193_1373)">
<rect width="55" height="59" fill="url(#paint0_linear_193_1373)"/>
</g>
</g>
</g>
<defs>
<linearGradient id="paint0_linear_193_1373" x1="1.89384e-07" y1="43.0154" x2="60.0513" y2="29.4598" gradientUnits="userSpaceOnUse">
<stop stop-color="#00B7CF"/>
<stop offset="1" stop-color="#00CEEA"/>
</linearGradient>
<clipPath id="clip0_193_1373">
<rect width="55" height="58" fill="white"/>
</clipPath>
</defs>
</svg>
