<svg width="62" height="62" viewBox="0 0 62 62" fill="none" xmlns="http://www.w3.org/2000/svg">
<path d="M14.2349 37.0623L10.454 25.3508C9.6694 23.1011 10.8793 20.1897 14.2349 17.1744C20.9272 11.2099 33.5935 7.08868 42.5166 7.96776C47.0254 8.41202 49.7193 10.0473 50.4093 12.3253L54.1903 23.9896C54.956 26.2393 54.1336 30.3322 50.7591 33.3286C44.0573 39.2931 31.4005 43.4143 22.4774 42.5447C18.0253 42.1004 14.9155 39.312 14.2255 37.0812L14.2349 37.0623Z" fill="#6A6A6A"/>
<path d="M25.03 2.29639L59.4084 9.5842L35.9097 35.7107L1.53125 28.4323L25.03 2.29639Z" fill="#848484"/>
<path d="M59.4089 9.58423L59.7964 10.7752L36.2977 36.9112L35.9102 35.7107L59.4089 9.58423Z" fill="#636363"/>
<path d="M1.53125 28.4324L1.9188 29.6234L36.2973 36.9112L35.9097 35.7107L1.53125 28.4324Z" fill="#6A6A6A"/>
<path opacity="0.1" d="M50.5708 21.0405L36.8837 38.6976L15.4834 32.4969L36.2976 36.9111L50.5708 21.0405Z" fill="black"/>
<path d="M17.166 29.009L27.5637 17.2691C27.6665 17.1299 27.8203 17.0373 27.9914 17.0116C28.1624 16.9859 28.3367 17.0292 28.4758 17.132C28.615 17.2348 28.7076 17.3887 28.7333 17.5597C28.759 17.7308 28.7157 17.905 28.6129 18.0442L28.5467 18.1482L18.1491 29.8975" fill="#E0E0E0"/>
<path d="M21.126 47.8664C21.4812 47.9244 21.8452 47.8962 22.1873 47.7844C22.5294 47.6725 22.8397 47.4802 23.0921 47.2236L28.083 57.1014C28.7163 59.0675 23.6214 60.7311 22.9787 58.765L21.126 47.8664Z" fill="#CACACA"/>
<path opacity="0.15" d="M22.9697 53.812L24.4916 59.6442C24.3687 59.6442 24.2458 59.6442 24.1324 59.6442L22.9697 53.812Z" fill="black"/>
<path opacity="0.15" d="M27.2512 58.7935L23.5459 49.7476L27.5443 58.5383L27.2512 58.7935Z" fill="black"/>
<path opacity="0.15" d="M26.1645 59.3512L25.8525 59.4551L23.6123 52.0444L26.1645 59.3512Z" fill="black"/>
<path d="M22.1092 47.4129C22.274 47.3568 22.4101 47.2381 22.488 47.0824C22.5658 46.9267 22.5792 46.7466 22.5251 46.5811L17.7233 31.8448C17.6162 31.5115 17.5992 31.1559 17.6739 30.8139C17.7486 30.4719 17.9124 30.1558 18.1487 29.8976L17.2034 29.009C16.8134 29.441 16.5442 29.9682 16.4231 30.5375C16.3019 31.1067 16.3331 31.6979 16.5134 32.2512L21.3058 46.997C21.3637 47.154 21.4782 47.2837 21.6269 47.3607C21.7755 47.4376 21.9476 47.4562 22.1092 47.4129Z" fill="#E0E0E0"/>
<path d="M23.2817 46.3353C23.1935 46.0615 23.0262 45.82 22.8008 45.6412C22.5755 45.4625 22.3023 45.3544 22.0156 45.3308C21.7289 45.3072 21.4417 45.3691 21.1901 45.5086C20.9386 45.6481 20.734 45.859 20.6022 46.1146C20.4704 46.3703 20.4173 46.6593 20.4496 46.9451C20.482 47.2309 20.5982 47.5008 20.7838 47.7206C20.9693 47.9404 21.2158 48.1003 21.4921 48.1801C21.7685 48.2599 22.0623 48.2561 22.3364 48.1691C22.704 48.0498 23.0095 47.7902 23.1865 47.4468C23.3636 47.1033 23.3978 46.7038 23.2817 46.3353Z" fill="#CACACA"/>
<path opacity="0.15" d="M20.5586 47.3088C20.6642 47.4309 20.7948 47.5288 20.9416 47.5959C21.0884 47.663 21.2479 47.6978 21.4093 47.6978C21.5707 47.6978 21.7302 47.663 21.877 47.5959C22.0238 47.5288 22.1544 47.4309 22.26 47.3088C22.3981 47.154 22.4938 46.966 22.5376 46.7632C22.5814 46.5604 22.5719 46.3497 22.51 46.1517C22.4481 45.9536 22.336 45.775 22.1845 45.6332C22.033 45.4915 21.8473 45.3914 21.6456 45.3427C21.9862 45.2781 22.3387 45.338 22.6389 45.5115C22.939 45.685 23.1669 45.9606 23.2809 46.288C23.3397 46.4704 23.3618 46.6627 23.3461 46.8537C23.3304 47.0448 23.277 47.2308 23.1892 47.4012C23.1014 47.5716 22.9808 47.723 22.8343 47.8466C22.6878 47.9702 22.5184 48.0637 22.3357 48.1217C21.9915 48.2353 21.6172 48.2147 21.2876 48.0639C20.9581 47.9132 20.6977 47.6435 20.5586 47.3088Z" fill="black"/>
<g style="mix-blend-mode:overlay">
<mask id="mask0_257_2268" style="mask-type:alpha" maskUnits="userSpaceOnUse" x="1" y="2" width="59" height="58">
<path d="M14.2349 37.0623L10.454 25.3508C9.6694 23.1011 10.8793 20.1897 14.2349 17.1744C20.9272 11.2099 33.5935 7.08868 42.5166 7.96776C47.0254 8.41202 49.7193 10.0473 50.4093 12.3253L54.1903 23.9896C54.956 26.2393 54.1336 30.3322 50.7591 33.3286C44.0573 39.2931 31.4005 43.4143 22.4774 42.5447C18.0253 42.1004 14.9155 39.312 14.2255 37.0812L14.2349 37.0623Z" fill="#263238"/>
<path d="M25.03 2.29639L59.4084 9.5842L35.9097 35.7107L1.53125 28.4323L25.03 2.29639Z" fill="#455A64"/>
<path d="M59.4089 9.58423L59.7964 10.7752L36.2977 36.9112L35.9102 35.7107L59.4089 9.58423Z" fill="#37474F"/>
<path d="M1.53125 28.4324L1.9188 29.6234L36.2973 36.9112L35.9097 35.7107L1.53125 28.4324Z" fill="#263238"/>
<path opacity="0.1" d="M50.5708 21.0405L36.8837 38.6976L15.4834 32.4969L36.2976 36.9111L50.5708 21.0405Z" fill="black"/>
<path d="M17.166 29.009L27.5637 17.2691C27.6665 17.1299 27.8203 17.0373 27.9914 17.0116C28.1624 16.9859 28.3367 17.0292 28.4758 17.132C28.615 17.2348 28.7076 17.3887 28.7333 17.5597C28.759 17.7308 28.7157 17.905 28.6129 18.0442L28.5467 18.1482L18.1491 29.8975" fill="#E0E0E0"/>
<path d="M21.126 47.8664C21.4812 47.9244 21.8452 47.8962 22.1873 47.7844C22.5294 47.6725 22.8397 47.4802 23.0921 47.2236L28.083 57.1014C28.7163 59.0675 23.6214 60.7311 22.9787 58.765L21.126 47.8664Z" fill="#BA68C8"/>
<path opacity="0.15" d="M22.9697 53.812L24.4916 59.6442C24.3687 59.6442 24.2458 59.6442 24.1324 59.6442L22.9697 53.812Z" fill="black"/>
<path opacity="0.15" d="M27.2512 58.7935L23.5459 49.7476L27.5443 58.5383L27.2512 58.7935Z" fill="black"/>
<path opacity="0.15" d="M26.1645 59.3512L25.8525 59.4551L23.6123 52.0444L26.1645 59.3512Z" fill="black"/>
<path d="M22.1092 47.4129C22.274 47.3568 22.4101 47.2381 22.488 47.0824C22.5658 46.9267 22.5792 46.7466 22.5251 46.5811L17.7233 31.8448C17.6162 31.5115 17.5992 31.1559 17.6739 30.8139C17.7486 30.4719 17.9124 30.1558 18.1487 29.8976L17.2034 29.009C16.8134 29.441 16.5442 29.9682 16.4231 30.5375C16.3019 31.1067 16.3331 31.6979 16.5134 32.2512L21.3058 46.997C21.3637 47.154 21.4782 47.2837 21.6269 47.3607C21.7755 47.4376 21.9476 47.4562 22.1092 47.4129Z" fill="#E0E0E0"/>
<path d="M23.2817 46.3353C23.1935 46.0615 23.0262 45.82 22.8008 45.6412C22.5755 45.4625 22.3023 45.3544 22.0156 45.3308C21.7289 45.3072 21.4417 45.3691 21.1901 45.5086C20.9386 45.6481 20.734 45.859 20.6022 46.1146C20.4704 46.3703 20.4173 46.6593 20.4496 46.9451C20.482 47.2309 20.5982 47.5008 20.7838 47.7206C20.9693 47.9404 21.2158 48.1003 21.4921 48.1801C21.7685 48.2599 22.0623 48.2561 22.3364 48.1691C22.704 48.0498 23.0095 47.7902 23.1865 47.4468C23.3636 47.1033 23.3978 46.7038 23.2817 46.3353Z" fill="#BA68C8"/>
<path opacity="0.15" d="M20.5586 47.3088C20.6642 47.4309 20.7948 47.5288 20.9416 47.5959C21.0884 47.663 21.2479 47.6978 21.4093 47.6978C21.5707 47.6978 21.7302 47.663 21.877 47.5959C22.0238 47.5288 22.1544 47.4309 22.26 47.3088C22.3981 47.154 22.4938 46.966 22.5376 46.7632C22.5814 46.5604 22.5719 46.3497 22.51 46.1517C22.4481 45.9536 22.336 45.775 22.1845 45.6332C22.033 45.4915 21.8473 45.3914 21.6456 45.3427C21.9862 45.2781 22.3387 45.338 22.6389 45.5115C22.939 45.685 23.1669 45.9606 23.2809 46.288C23.3397 46.4704 23.3618 46.6627 23.3461 46.8537C23.3304 47.0448 23.277 47.2308 23.1892 47.4012C23.1014 47.5716 22.9808 47.723 22.8343 47.8466C22.6878 47.9702 22.5184 48.0637 22.3357 48.1217C21.9915 48.2353 21.6172 48.2147 21.2876 48.0639C20.9581 47.9132 20.6977 47.6435 20.5586 47.3088Z" fill="black"/>
</mask>
<g mask="url(#mask0_257_2268)">
<rect y="2" width="78" height="77" fill="url(#paint0_linear_257_2268)"/>
</g>
</g>
<defs>
<linearGradient id="paint0_linear_257_2268" x1="2.6858e-07" y1="58.1388" x2="84.4235" y2="37.4301" gradientUnits="userSpaceOnUse">
<stop stop-color="#00B7CF"/>
<stop offset="1" stop-color="#00CEEA"/>
</linearGradient>
</defs>
</svg>
