<svg width="47" height="61" viewBox="0 0 47 61" fill="none" xmlns="http://www.w3.org/2000/svg">
<path d="M6.51659 59.8679L1.00201 56.6836C0.710178 56.4936 0.467323 56.2374 0.293205 55.9358C0.119087 55.6342 0.018631 55.2958 0 54.948V23.6124C0.0189972 23.2647 0.11961 22.9264 0.293694 22.6249C0.467777 22.3234 0.710438 22.0671 1.00201 21.8768L38.4771 0.239651C38.7876 0.0821053 39.1309 0 39.4791 0C39.8273 0 40.1706 0.0821053 40.4811 0.239651L45.998 3.42389C46.2896 3.61418 46.5322 3.87047 46.7063 4.17201C46.8804 4.47354 46.981 4.81183 47 5.15949V36.4951C46.981 36.8428 46.8804 37.1811 46.7063 37.4826C46.5322 37.7842 46.2896 38.0405 45.998 38.2307L8.50906 59.8679C8.20003 60.0235 7.85883 60.1046 7.51283 60.1046C7.16681 60.1046 6.82562 60.0235 6.51659 59.8679Z" fill="#D9D9D9"/>
<path d="M0.00680447 23.6124C0.0187168 23.2636 0.119051 22.9236 0.298388 22.6243L8.45801 27.3405V59.8957C8.15375 60.0381 7.82112 60.1096 7.48519 60.1048C7.14927 60.1 6.81883 60.019 6.51877 59.8679L0.999569 56.6813C0.709628 56.4907 0.468665 56.2344 0.296191 55.9333C0.123717 55.6321 0.0245781 55.2946 0.00680447 54.9481V23.6124Z" fill="#979797"/>
<path d="M8.52063 26.2297L45.998 4.59254C46.5511 4.27319 47 4.53237 47 5.17107V36.4951C46.981 36.8428 46.8804 37.1811 46.7063 37.4826C46.5322 37.7842 46.2896 38.0405 45.998 38.2307L8.50906 59.8679C7.95598 60.1872 7.50704 59.928 7.50704 59.2893V27.9537C7.5291 27.607 7.63232 27.2704 7.80838 26.9709C7.98445 26.6714 8.22842 26.4175 8.52063 26.2297Z" fill="#979797"/>
<path d="M5.23254 24.3205C4.94097 24.5108 4.69831 24.7671 4.52422 25.0686C4.35014 25.3702 4.24952 25.7085 4.23053 26.0561V58.5465L3.29099 58.005V25.5123C3.30999 25.1646 3.4106 24.8263 3.58469 24.5248C3.75877 24.2233 4.00143 23.967 4.29301 23.7767L42.7724 1.56104L43.7119 2.10486L5.23254 24.3205Z" fill="#565656"/>
<path d="M4.29256 23.7765L42.7071 1.5979L43.6768 2.12321L5.22978 24.3204C4.93381 24.505 4.69003 24.7623 4.52166 25.0678L3.58212 24.5263C3.75039 24.2194 3.99511 23.9611 4.29256 23.7765Z" fill="#979797"/>
<path d="M10.1171 18.7852L10.779 18.4034C10.9342 18.3247 11.1059 18.2837 11.28 18.2837C11.454 18.2837 11.6257 18.3247 11.781 18.4034L14.3265 19.8705L14.75 19.7433V20.2848C14.7442 20.3472 14.7218 20.4069 14.6852 20.4577C14.6486 20.5086 14.5991 20.5487 14.5417 20.574L13.6647 21.0808C13.5094 21.1595 13.3378 21.2005 13.1637 21.2005C12.9896 21.2005 12.8179 21.1595 12.6627 21.0808L9.90421 19.4887C9.84731 19.4631 9.79825 19.4228 9.76205 19.372C9.72586 19.3211 9.70384 19.2616 9.69826 19.1994V18.6556L10.1171 18.7852Z" fill="#565656"/>
<path d="M9.89973 18.3618L10.7791 17.855C10.9344 17.7764 11.106 17.7354 11.2801 17.7354C11.4542 17.7354 11.6258 17.7764 11.7811 17.855L14.5373 19.4495C14.598 19.4694 14.6509 19.5079 14.6884 19.5597C14.7259 19.6114 14.7461 19.6737 14.7461 19.7376C14.7461 19.8015 14.7259 19.8638 14.6884 19.9155C14.6509 19.9672 14.598 20.0058 14.5373 20.0257L13.6602 20.5348C13.5049 20.6135 13.3333 20.6545 13.1592 20.6545C12.9851 20.6545 12.8135 20.6135 12.6582 20.5348L9.89973 18.9404C9.83928 18.9199 9.78678 18.8809 9.7496 18.829C9.71241 18.7772 9.69242 18.7149 9.69242 18.6511C9.69242 18.5873 9.71241 18.525 9.7496 18.4732C9.78678 18.4213 9.83928 18.3823 9.89973 18.3618Z" fill="#D9D9D9"/>
<path d="M32.6778 5.76082L33.3303 5.37899C33.486 5.30028 33.6581 5.25928 33.8325 5.25928C34.007 5.25928 34.179 5.30028 34.3347 5.37899L36.8802 6.84615L37.3037 6.71887V7.25344C37.2979 7.31583 37.2755 7.37555 37.2389 7.4264C37.2023 7.47726 37.1528 7.51741 37.0954 7.5427L36.2184 8.0495C36.0631 8.12818 35.8915 8.16918 35.7174 8.16918C35.5433 8.16918 35.3717 8.12818 35.2164 8.0495L32.4579 6.45737C32.4007 6.43217 32.3514 6.39198 32.3152 6.34107C32.2789 6.29016 32.2571 6.2304 32.252 6.16811V5.63354L32.6778 5.76082Z" fill="#565656"/>
<path d="M32.4599 5.34461L33.3392 4.83551C33.4945 4.75682 33.6662 4.71582 33.8402 4.71582C34.0143 4.71582 34.186 4.75682 34.3412 4.83551L37.0974 6.42994C37.1578 6.45045 37.2103 6.48938 37.2475 6.54127C37.2847 6.59315 37.3047 6.65538 37.3047 6.71921C37.3047 6.78304 37.2847 6.84527 37.2475 6.89715C37.2103 6.94903 37.1578 6.98796 37.0974 7.00848L36.2203 7.51527C36.065 7.59395 35.8934 7.63495 35.7193 7.63495C35.5452 7.63495 35.3736 7.59395 35.2183 7.51527L32.4599 5.92315C32.3994 5.90264 32.3469 5.86371 32.3097 5.81182C32.2725 5.75994 32.2525 5.69771 32.2525 5.63388C32.2525 5.57005 32.2725 5.50782 32.3097 5.45594C32.3469 5.40406 32.3994 5.36512 32.4599 5.34461Z" fill="#D9D9D9"/>
<path d="M25.3787 5.63411V8.89009L27.2578 9.97542V5.00929C27.2578 4.75243 27.0796 4.6506 26.8575 4.77788L25.3787 5.63411Z" fill="#565656"/>
<path d="M15.5112 9.08431V15.1358L16.8997 15.9434L17.8392 15.3996V10.4358C17.8471 10.2968 17.8874 10.1616 17.957 10.0411C18.0265 9.92053 18.1233 9.81793 18.2396 9.74152L25.3787 5.63394L26.8505 4.77771C27.0819 4.65043 27.2508 4.75226 27.2508 5.00912V9.97293L28.1927 9.42911V3.37998C28.1949 3.3538 28.1949 3.32747 28.1927 3.30129C28.174 3.17652 28.1291 3.05713 28.0609 2.95101C27.9927 2.8449 27.9027 2.75448 27.7969 2.68574L27.2022 2.34093C27.0781 2.2781 26.941 2.24536 26.8019 2.24536C26.6628 2.24536 26.5256 2.2781 26.4015 2.34093L15.9231 8.39007C15.8046 8.46505 15.7054 8.56705 15.6338 8.68772C15.5622 8.80838 15.5202 8.94429 15.5112 9.08431Z" fill="#D9D9D9"/>
<path d="M16.9182 9.89215V15.9436L17.8578 15.3998V10.436C17.8656 10.297 17.9059 10.1619 17.9755 10.0413C18.045 9.92074 18.1418 9.81814 18.2581 9.74173L25.3787 5.63415L26.8505 4.77792C27.0819 4.65064 27.2508 4.75247 27.2508 5.00934V9.97315L28.1927 9.42932V3.38019C28.1949 3.35401 28.1949 3.32768 28.1927 3.30151C28.1579 3.1048 27.9936 3.03538 27.7969 3.14877L17.3186 9.19791C17.2024 9.27445 17.1057 9.37708 17.0362 9.49761C16.9667 9.61814 16.9263 9.75325 16.9182 9.89215Z" fill="#979797"/>
<g style="mix-blend-mode:overlay">
<mask id="mask0_193_1335" style="mask-type:alpha" maskUnits="userSpaceOnUse" x="0" y="0" width="47" height="61">
<path d="M6.51659 59.8679L1.00201 56.6836C0.710178 56.4936 0.467323 56.2374 0.293205 55.9358C0.119087 55.6342 0.018631 55.2958 0 54.948V23.6124C0.0189972 23.2647 0.11961 22.9264 0.293694 22.6249C0.467777 22.3234 0.710438 22.0671 1.00201 21.8768L38.4771 0.239651C38.7876 0.0821053 39.1309 0 39.4791 0C39.8273 0 40.1706 0.0821053 40.4811 0.239651L45.998 3.42389C46.2896 3.61418 46.5322 3.87047 46.7063 4.17201C46.8804 4.47354 46.981 4.81183 47 5.15949V36.4951C46.981 36.8428 46.8804 37.1811 46.7063 37.4826C46.5322 37.7842 46.2896 38.0405 45.998 38.2307L8.50906 59.8679C8.20003 60.0235 7.85883 60.1046 7.51283 60.1046C7.16681 60.1046 6.82562 60.0235 6.51659 59.8679Z" fill="#455A64"/>
<path d="M0.00680447 23.6124C0.0187168 23.2636 0.119051 22.9236 0.298388 22.6243L8.45801 27.3405V59.8957C8.15375 60.0381 7.82112 60.1096 7.48519 60.1048C7.14927 60.1 6.81883 60.019 6.51877 59.8679L0.999569 56.6813C0.709628 56.4907 0.468665 56.2344 0.296191 55.9333C0.123717 55.6321 0.0245781 55.2946 0.00680447 54.9481V23.6124Z" fill="#37474F"/>
<path d="M8.52063 26.2297L45.998 4.59254C46.5511 4.27319 47 4.53237 47 5.17107V36.4951C46.981 36.8428 46.8804 37.1811 46.7063 37.4826C46.5322 37.7842 46.2896 38.0405 45.998 38.2307L8.50906 59.8679C7.95598 60.1872 7.50704 59.928 7.50704 59.2893V27.9537C7.5291 27.607 7.63232 27.2704 7.80838 26.9709C7.98445 26.6714 8.22842 26.4175 8.52063 26.2297Z" fill="#37474F"/>
<path d="M5.23254 24.3205C4.94097 24.5108 4.69831 24.7671 4.52422 25.0686C4.35014 25.3702 4.24952 25.7085 4.23053 26.0561V58.5465L3.29099 58.005V25.5123C3.30999 25.1646 3.4106 24.8263 3.58469 24.5248C3.75877 24.2233 4.00143 23.967 4.29301 23.7767L42.7724 1.56104L43.7119 2.10486L5.23254 24.3205Z" fill="#263238"/>
<path d="M4.29256 23.7765L42.7071 1.5979L43.6768 2.12321L5.22978 24.3204C4.93381 24.505 4.69003 24.7623 4.52166 25.0678L3.58212 24.5263C3.75039 24.2194 3.99511 23.9611 4.29256 23.7765Z" fill="#37474F"/>
<path d="M10.1171 18.7852L10.779 18.4034C10.9342 18.3247 11.1059 18.2837 11.28 18.2837C11.454 18.2837 11.6257 18.3247 11.781 18.4034L14.3265 19.8705L14.75 19.7433V20.2848C14.7442 20.3472 14.7218 20.4069 14.6852 20.4577C14.6486 20.5086 14.5991 20.5487 14.5417 20.574L13.6647 21.0808C13.5094 21.1595 13.3378 21.2005 13.1637 21.2005C12.9896 21.2005 12.8179 21.1595 12.6627 21.0808L9.90421 19.4887C9.84731 19.4631 9.79825 19.4228 9.76205 19.372C9.72586 19.3211 9.70384 19.2616 9.69826 19.1994V18.6556L10.1171 18.7852Z" fill="#263238"/>
<path d="M9.89973 18.3618L10.7791 17.855C10.9344 17.7764 11.106 17.7354 11.2801 17.7354C11.4542 17.7354 11.6258 17.7764 11.7811 17.855L14.5373 19.4495C14.598 19.4694 14.6509 19.5079 14.6884 19.5597C14.7259 19.6114 14.7461 19.6737 14.7461 19.7376C14.7461 19.8015 14.7259 19.8638 14.6884 19.9155C14.6509 19.9672 14.598 20.0058 14.5373 20.0257L13.6602 20.5348C13.5049 20.6135 13.3333 20.6545 13.1592 20.6545C12.9851 20.6545 12.8135 20.6135 12.6582 20.5348L9.89973 18.9404C9.83928 18.9199 9.78678 18.8809 9.7496 18.829C9.71241 18.7772 9.69242 18.7149 9.69242 18.6511C9.69242 18.5873 9.71241 18.525 9.7496 18.4732C9.78678 18.4213 9.83928 18.3823 9.89973 18.3618Z" fill="#455A64"/>
<path d="M32.6778 5.76082L33.3303 5.37899C33.486 5.30028 33.6581 5.25928 33.8325 5.25928C34.007 5.25928 34.179 5.30028 34.3347 5.37899L36.8802 6.84615L37.3037 6.71887V7.25344C37.2979 7.31583 37.2755 7.37555 37.2389 7.4264C37.2023 7.47726 37.1528 7.51741 37.0954 7.5427L36.2184 8.0495C36.0631 8.12818 35.8915 8.16918 35.7174 8.16918C35.5433 8.16918 35.3717 8.12818 35.2164 8.0495L32.4579 6.45737C32.4007 6.43217 32.3514 6.39198 32.3152 6.34107C32.2789 6.29016 32.2571 6.2304 32.252 6.16811V5.63354L32.6778 5.76082Z" fill="#263238"/>
<path d="M32.4599 5.34461L33.3392 4.83551C33.4945 4.75682 33.6662 4.71582 33.8402 4.71582C34.0143 4.71582 34.186 4.75682 34.3412 4.83551L37.0974 6.42994C37.1578 6.45045 37.2103 6.48938 37.2475 6.54127C37.2847 6.59315 37.3047 6.65538 37.3047 6.71921C37.3047 6.78304 37.2847 6.84527 37.2475 6.89715C37.2103 6.94903 37.1578 6.98796 37.0974 7.00848L36.2203 7.51527C36.065 7.59395 35.8934 7.63495 35.7193 7.63495C35.5452 7.63495 35.3736 7.59395 35.2183 7.51527L32.4599 5.92315C32.3994 5.90264 32.3469 5.86371 32.3097 5.81182C32.2725 5.75994 32.2525 5.69771 32.2525 5.63388C32.2525 5.57005 32.2725 5.50782 32.3097 5.45594C32.3469 5.40406 32.3994 5.36512 32.4599 5.34461Z" fill="#455A64"/>
<path d="M25.3787 5.63411V8.89009L27.2578 9.97542V5.00929C27.2578 4.75243 27.0796 4.6506 26.8575 4.77788L25.3787 5.63411Z" fill="#263238"/>
<path d="M15.5112 9.08431V15.1358L16.8997 15.9434L17.8392 15.3996V10.4358C17.8471 10.2968 17.8874 10.1616 17.957 10.0411C18.0265 9.92053 18.1233 9.81793 18.2396 9.74152L25.3787 5.63394L26.8505 4.77771C27.0819 4.65043 27.2508 4.75226 27.2508 5.00912V9.97293L28.1927 9.42911V3.37998C28.1949 3.3538 28.1949 3.32747 28.1927 3.30129C28.174 3.17652 28.1291 3.05713 28.0609 2.95101C27.9927 2.8449 27.9027 2.75448 27.7969 2.68574L27.2022 2.34093C27.0781 2.2781 26.941 2.24536 26.8019 2.24536C26.6628 2.24536 26.5256 2.2781 26.4015 2.34093L15.9231 8.39007C15.8046 8.46505 15.7054 8.56705 15.6338 8.68772C15.5622 8.80838 15.5202 8.94429 15.5112 9.08431Z" fill="#455A64"/>
<path d="M16.9182 9.89215V15.9436L17.8578 15.3998V10.436C17.8656 10.297 17.9059 10.1619 17.9755 10.0413C18.045 9.92074 18.1418 9.81814 18.2581 9.74173L25.3787 5.63415L26.8505 4.77792C27.0819 4.65064 27.2508 4.75247 27.2508 5.00934V9.97315L28.1927 9.42932V3.38019C28.1949 3.35401 28.1949 3.32768 28.1927 3.30151C28.1579 3.1048 27.9936 3.03538 27.7969 3.14877L17.3186 9.19791C17.2024 9.27445 17.1057 9.37708 17.0362 9.49761C16.9667 9.61814 16.9263 9.75325 16.9182 9.89215Z" fill="#37474F"/>
</mask>
<g mask="url(#mask0_193_1335)">
<rect width="47" height="60" fill="url(#paint0_linear_193_1335)"/>
</g>
</g>
<defs>
<linearGradient id="paint0_linear_193_1335" x1="1.61837e-07" y1="43.7445" x2="52.0584" y2="33.8698" gradientUnits="userSpaceOnUse">
<stop stop-color="#00B7CF"/>
<stop offset="1" stop-color="#00CEEA"/>
</linearGradient>
</defs>
</svg>
