<svg width="279" height="125" viewBox="0 0 279 125" fill="none" xmlns="http://www.w3.org/2000/svg">
<g filter="url(#filter0_d_193_1121)">
<path d="M15 35C15 25.5719 15 20.8579 17.9289 17.9289C20.8579 15 25.5719 15 35 15H244C253.428 15 258.142 15 261.071 17.9289C264 20.8579 264 25.5719 264 35V65.5951C264 74.0231 264 78.2372 261.621 81.0375C261.27 81.4497 260.887 81.8329 260.475 82.1832C257.675 84.5625 253.461 84.5625 245.033 84.5625H191.303C175.971 84.5625 161.5 91.6498 152.101 103.762C145.715 111.991 133.285 111.991 126.899 103.762C117.5 91.6498 103.029 84.5625 87.6973 84.5625H33.9674C25.5394 84.5625 21.3253 84.5625 18.525 82.1832C18.1128 81.8329 17.7296 81.4497 17.3794 81.0375C15 78.2372 15 74.0231 15 65.5951V35Z" fill="white"/>
</g>
<path d="M52.2852 39.2129H53.4277C53.9434 39.2129 54.3652 39.0723 54.6934 38.791C55.0215 38.5059 55.1855 38.1426 55.1855 37.7012C55.1855 37.2637 55.0352 36.918 54.7344 36.6641C54.4336 36.4102 54.0234 36.2832 53.5039 36.2832C52.9805 36.2832 52.5586 36.4102 52.2383 36.6641C51.9141 36.918 51.7305 37.2676 51.6875 37.7129H50.6621C50.7168 36.9785 51 36.4004 51.5117 35.9785C52.0273 35.5566 52.7051 35.3457 53.5449 35.3457C54.334 35.3457 54.9844 35.5586 55.4961 35.9844C56.0039 36.4062 56.2578 36.9473 56.2578 37.6074C56.2578 38.0762 56.1133 38.4922 55.8242 38.8555C55.5312 39.2188 55.1523 39.457 54.6875 39.5703V39.6172C55.25 39.6914 55.6934 39.916 56.0176 40.291C56.3418 40.6699 56.5039 41.1465 56.5039 41.7207C56.5039 42.416 56.2168 43.0039 55.6426 43.4844C55.0684 43.9609 54.3633 44.1992 53.5273 44.1992C52.6367 44.1992 51.9082 43.9785 51.3418 43.5371C50.7754 43.0996 50.4727 42.5195 50.4336 41.7969H51.4531C51.5 42.2422 51.7109 42.5977 52.0859 42.8633C52.457 43.1289 52.9336 43.2617 53.5156 43.2617C54.082 43.2617 54.541 43.1172 54.8926 42.8281C55.2441 42.5352 55.4199 42.1562 55.4199 41.6914C55.4199 41.207 55.248 40.8301 54.9043 40.5605C54.5605 40.2871 54.084 40.1504 53.4746 40.1504H52.2852V39.2129ZM60.1159 43.1738C60.6315 43.1738 61.0592 43.0254 61.3991 42.7285C61.735 42.4277 61.903 42.0508 61.903 41.5977V41.0879L60.2506 41.1934C59.2897 41.252 58.8092 41.5898 58.8092 42.207C58.8092 42.5 58.9284 42.7344 59.1666 42.9102C59.401 43.0859 59.7174 43.1738 60.1159 43.1738ZM59.8991 44.0586C59.2584 44.0586 58.7428 43.8887 58.3522 43.5488C57.9616 43.209 57.7663 42.7598 57.7663 42.2012C57.7663 41.6582 57.9694 41.2324 58.3756 40.9238C58.7819 40.6113 59.3678 40.4316 60.1334 40.3848L61.903 40.2793V39.752C61.903 39.3613 61.778 39.0605 61.528 38.8496C61.278 38.6387 60.9205 38.5332 60.4557 38.5332C60.0885 38.5332 59.7799 38.6211 59.5299 38.7969C59.276 38.9727 59.1178 39.209 59.0553 39.5059H58.0768C58.0924 38.9746 58.3288 38.5273 58.7858 38.1641C59.2428 37.8047 59.8034 37.625 60.4674 37.625C61.2135 37.625 61.8092 37.8086 62.2545 38.1758C62.6998 38.5469 62.9225 39.043 62.9225 39.6641V44H61.9557V42.9043H61.9323C61.7526 43.2559 61.4791 43.5352 61.112 43.7422C60.7448 43.9531 60.3405 44.0586 59.8991 44.0586ZM68.8782 38.5273H65.7259V44H64.718V37.6836H69.886V44H68.8782V38.5273ZM73.8085 43.1738C74.3241 43.1738 74.7519 43.0254 75.0917 42.7285C75.4277 42.4277 75.5956 42.0508 75.5956 41.5977V41.0879L73.9433 41.1934C72.9823 41.252 72.5019 41.5898 72.5019 42.207C72.5019 42.5 72.621 42.7344 72.8593 42.9102C73.0937 43.0859 73.4101 43.1738 73.8085 43.1738ZM73.5917 44.0586C72.9511 44.0586 72.4355 43.8887 72.0448 43.5488C71.6542 43.209 71.4589 42.7598 71.4589 42.2012C71.4589 41.6582 71.662 41.2324 72.0683 40.9238C72.4745 40.6113 73.0605 40.4316 73.8261 40.3848L75.5956 40.2793V39.752C75.5956 39.3613 75.4706 39.0605 75.2206 38.8496C74.9706 38.6387 74.6132 38.5332 74.1484 38.5332C73.7812 38.5332 73.4726 38.6211 73.2226 38.7969C72.9687 38.9727 72.8105 39.209 72.748 39.5059H71.7695C71.7851 38.9746 72.0214 38.5273 72.4784 38.1641C72.9355 37.8047 73.496 37.625 74.1601 37.625C74.9062 37.625 75.5019 37.8086 75.9472 38.1758C76.3925 38.5469 76.6152 39.043 76.6152 39.6641V44H75.6484V42.9043H75.6249C75.4452 43.2559 75.1718 43.5352 74.8046 43.7422C74.4374 43.9531 74.0331 44.0586 73.5917 44.0586ZM82.6002 38.5273H80.2037L80.0045 41.2285C79.938 42.1152 79.7642 42.7422 79.483 43.1094V43.1562H82.6002V38.5273ZM77.7779 45.6699V43.1562H78.3052C78.7349 42.875 78.9849 42.2246 79.0552 41.2051L79.3013 37.6836H83.608V43.1562H84.6158V45.6699H83.6666V44H78.7271V45.6699H77.7779ZM90.1496 41.1406H86.9387V44H85.9309V37.6836H86.9387V40.2969H90.1496V37.6836H91.1574V44H90.1496V41.1406ZM98.3846 37.6836H99.3924V44H98.3846V37.6836ZM94.0252 40.5547V43.1562H95.2147C95.6287 43.1562 95.9608 43.0371 96.2108 42.7988C96.4569 42.5645 96.5799 42.25 96.5799 41.8555C96.5799 41.4609 96.4549 41.1445 96.2049 40.9062C95.9588 40.6719 95.6287 40.5547 95.2147 40.5547H94.0252ZM93.0174 37.6836H94.0252V39.7109H95.2147C95.9373 39.7109 96.5135 39.9043 96.9432 40.291C97.3729 40.6777 97.5877 41.1992 97.5877 41.8555C97.5877 42.5117 97.3729 43.0332 96.9432 43.4199C96.5135 43.8066 95.9373 44 95.2147 44H93.0174V37.6836ZM101.252 44V37.6836H102.26V42.4238H102.307L105.559 37.6836H106.567V44H105.559V39.2598H105.512L102.26 44H101.252ZM102.793 34.918C102.793 35.2656 102.895 35.5527 103.098 35.7793C103.313 36.0137 103.59 36.1309 103.93 36.1309C104.27 36.1309 104.547 36.0137 104.762 35.7793C104.965 35.5527 105.067 35.2656 105.067 34.918H105.817C105.817 35.457 105.643 35.8945 105.295 36.2305C104.944 36.5664 104.489 36.7344 103.93 36.7344C103.372 36.7344 102.916 36.5664 102.565 36.2305C102.217 35.8945 102.043 35.457 102.043 34.918H102.793ZM114.353 44.1113C113.385 44.1113 112.652 43.7891 112.156 43.1445C111.66 42.5 111.412 41.5508 111.412 40.2969C111.412 38.5195 111.666 37.2422 112.174 36.4648C112.689 35.6719 113.558 35.252 114.781 35.2051L115.232 35.1875C115.967 35.1523 116.515 35.0391 116.879 34.8477V35.7441C116.64 35.959 116.107 36.084 115.279 36.1191L114.822 36.1367C113.967 36.1719 113.355 36.4043 112.988 36.834C112.652 37.2324 112.416 37.9355 112.279 38.9434H112.326C112.748 38.1895 113.474 37.8125 114.506 37.8125C115.357 37.8125 116.035 38.0918 116.539 38.6504C117.043 39.2051 117.295 39.9551 117.295 40.9004C117.295 41.8926 117.033 42.6758 116.51 43.25C115.982 43.8242 115.263 44.1113 114.353 44.1113ZM114.353 43.2031C114.959 43.2031 115.426 43.002 115.754 42.5996C116.086 42.1973 116.252 41.6309 116.252 40.9004C116.252 40.2051 116.086 39.666 115.754 39.2832C115.426 38.9043 114.959 38.7148 114.353 38.7148C113.748 38.7148 113.281 38.9043 112.953 39.2832C112.621 39.666 112.455 40.2051 112.455 40.9004C112.455 41.6309 112.621 42.1973 112.953 42.5996C113.281 43.002 113.748 43.2031 114.353 43.2031ZM119.383 46.291C119.231 46.291 119.082 46.2773 118.938 46.25V45.3887C119.055 45.4121 119.194 45.4238 119.354 45.4238C119.647 45.4238 119.881 45.3457 120.057 45.1895C120.233 45.0293 120.385 44.7598 120.514 44.3809L120.637 44.0059L118.299 37.6836H119.383L121.153 42.9629H121.176L122.946 37.6836H124.018L121.545 44.3867C121.276 45.1172 120.989 45.6172 120.684 45.8867C120.375 46.1562 119.942 46.291 119.383 46.291ZM126.81 41.2285C126.739 42.166 126.577 42.8535 126.323 43.291C126.03 43.7988 125.573 44.0527 124.952 44.0527C124.808 44.0527 124.685 44.0312 124.583 43.9883V43.0625C124.677 43.0938 124.782 43.1094 124.899 43.1094C125.196 43.1094 125.423 42.9375 125.579 42.5938C125.716 42.293 125.806 41.8301 125.849 41.2051L126.095 37.6836H130.226V44H129.218V38.5273H127.009L126.81 41.2285ZM132.865 44.0586C132.677 44.0586 132.519 43.9941 132.39 43.8652C132.261 43.7363 132.197 43.5781 132.197 43.3906C132.197 43.1992 132.261 43.041 132.39 42.916C132.519 42.7871 132.677 42.7227 132.865 42.7227C133.056 42.7227 133.215 42.7871 133.34 42.916C133.468 43.041 133.533 43.1992 133.533 43.3906C133.533 43.5781 133.468 43.7363 133.34 43.8652C133.215 43.9941 133.056 44.0586 132.865 44.0586ZM135.328 45.5059L135.914 42.8164H136.998L136.119 45.5059H135.328ZM144.334 36.6641H144.31L142.072 38.2754V37.1621L144.322 35.5449H145.353V44H144.334V36.6641ZM150.764 44.1406C149.869 44.1406 149.135 43.9121 148.561 43.4551C147.987 43.002 147.699 42.4219 147.699 41.7148C147.699 41.1875 147.865 40.7246 148.198 40.3262C148.53 39.9277 148.969 39.666 149.516 39.541V39.5176C149.059 39.377 148.698 39.1367 148.432 38.7969C148.166 38.4609 148.033 38.0703 148.033 37.625C148.033 36.9883 148.293 36.459 148.813 36.0371C149.328 35.6152 149.979 35.4043 150.764 35.4043C151.553 35.4043 152.205 35.6133 152.721 36.0312C153.233 36.4531 153.489 36.9863 153.489 37.6309C153.489 38.0723 153.358 38.459 153.096 38.791C152.834 39.1309 152.473 39.373 152.012 39.5176V39.541C152.559 39.6699 153 39.9336 153.336 40.332C153.668 40.7305 153.834 41.1914 153.834 41.7148C153.834 42.4219 153.547 43.0039 152.973 43.4609C152.399 43.9141 151.662 44.1406 150.764 44.1406ZM150.764 43.2207C151.346 43.2207 151.824 43.0723 152.199 42.7754C152.571 42.4785 152.756 42.0996 152.756 41.6387C152.756 41.1738 152.571 40.793 152.199 40.4961C151.824 40.1992 151.346 40.0508 150.764 40.0508C150.182 40.0508 149.705 40.1992 149.334 40.4961C148.959 40.7969 148.772 41.1777 148.772 41.6387C148.772 42.0996 148.959 42.4785 149.334 42.7754C149.709 43.0723 150.186 43.2207 150.764 43.2207ZM150.764 39.125C151.256 39.125 151.66 38.9941 151.977 38.7324C152.289 38.4707 152.446 38.1348 152.446 37.7246C152.446 37.3105 152.289 36.9707 151.977 36.7051C151.664 36.4434 151.26 36.3125 150.764 36.3125C150.268 36.3125 149.864 36.4453 149.551 36.7109C149.239 36.9727 149.082 37.3105 149.082 37.7246C149.082 38.1348 149.239 38.4707 149.551 38.7324C149.864 38.9941 150.268 39.125 150.764 39.125ZM160.253 41.5801H156.89L156.04 44H154.933L158.05 35.5449H159.093L162.21 44H161.102L160.253 41.5801ZM157.2 40.6836H159.942L158.589 36.8281H158.554L157.2 40.6836ZM163.355 45.5059L163.941 42.8164H165.025L164.146 45.5059H163.355ZM171.229 44.0586C171.018 44.0586 170.862 44.0332 170.761 43.9824V43.0332C170.886 43.0645 171.042 43.0801 171.229 43.0801C171.835 43.0801 172.296 42.7852 172.612 42.1953L169.723 35.5449H170.848L173.139 41.0234H173.186L175.425 35.5449H176.52L173.93 41.5801C173.528 42.5176 173.134 43.1641 172.747 43.5195C172.356 43.8789 171.85 44.0586 171.229 44.0586ZM178.843 41.2285C178.773 42.166 178.611 42.8535 178.357 43.291C178.064 43.7988 177.607 44.0527 176.986 44.0527C176.841 44.0527 176.718 44.0312 176.617 43.9883V43.0625C176.71 43.0938 176.816 43.1094 176.933 43.1094C177.23 43.1094 177.456 42.9375 177.613 42.5938C177.749 42.293 177.839 41.8301 177.882 41.2051L178.128 37.6836H182.259V44H181.251V38.5273H179.042L178.843 41.2285ZM185.133 40.5547V43.1562H186.322C186.736 43.1562 187.068 43.0371 187.318 42.7988C187.565 42.5645 187.688 42.25 187.688 41.8555C187.688 41.4609 187.563 41.1445 187.313 40.9062C187.066 40.6719 186.736 40.5547 186.322 40.5547H185.133ZM184.125 37.6836H185.133V39.7109H186.322C187.045 39.7109 187.621 39.9043 188.051 40.291C188.481 40.6777 188.695 41.1992 188.695 41.8555C188.695 42.5117 188.481 43.0332 188.051 43.4199C187.621 43.8066 187.045 44 186.322 44H184.125V37.6836ZM193.684 40.8945V38.5273H192.466C192.048 38.5273 191.716 38.6348 191.469 38.8496C191.223 39.0684 191.1 39.3691 191.1 39.752C191.1 40.0879 191.225 40.3613 191.475 40.5723C191.725 40.7871 192.055 40.8945 192.466 40.8945H193.684ZM193.684 41.7383H192.542L190.93 44H189.759L191.522 41.5508C191.077 41.4258 190.727 41.207 190.473 40.8945C190.219 40.582 190.092 40.209 190.092 39.7754C190.092 39.127 190.307 38.6152 190.737 38.2402C191.163 37.8691 191.739 37.6836 192.466 37.6836H194.692V44H193.684V41.7383ZM200.771 41.1406H197.56V44H196.552V37.6836H197.56V40.2969H200.771V37.6836H201.779V44H200.771V41.1406ZM206.24 44.0586C205.354 44.0586 204.646 43.7676 204.119 43.1855C203.592 42.6035 203.328 41.8223 203.328 40.8418C203.328 39.8613 203.592 39.0801 204.119 38.498C204.646 37.916 205.354 37.625 206.24 37.625C207.127 37.625 207.834 37.916 208.361 38.498C208.889 39.0801 209.152 39.8613 209.152 40.8418C209.152 41.8223 208.889 42.6035 208.361 43.1855C207.834 43.7676 207.127 44.0586 206.24 44.0586ZM206.24 43.1504C206.83 43.1504 207.289 42.9473 207.617 42.541C207.949 42.1309 208.115 41.5645 208.115 40.8418C208.115 40.1152 207.949 39.5488 207.617 39.1426C207.289 38.7363 206.83 38.5332 206.24 38.5332C205.65 38.5332 205.191 38.7363 204.863 39.1426C204.531 39.5527 204.365 40.1191 204.365 40.8418C204.365 41.5645 204.531 42.1309 204.863 42.541C205.195 42.9473 205.654 43.1504 206.24 43.1504ZM211.71 38.5273V40.3086H213.116C213.909 40.3086 214.305 40.0078 214.305 39.4062C214.305 38.8203 213.964 38.5273 213.28 38.5273H211.71ZM211.71 41.1523V43.1562H213.397C214.186 43.1562 214.581 42.8262 214.581 42.166C214.581 41.4902 214.122 41.1523 213.204 41.1523H211.71ZM210.702 37.6836H213.409C213.995 37.6836 214.458 37.8281 214.798 38.1172C215.133 38.4062 215.301 38.8008 215.301 39.3008C215.301 39.6211 215.202 39.9121 215.003 40.1738C214.803 40.4355 214.559 40.5977 214.27 40.6602V40.707C214.665 40.7617 214.983 40.9238 215.225 41.1934C215.464 41.4629 215.583 41.793 215.583 42.1836C215.583 42.7422 215.389 43.1855 215.003 43.5137C214.616 43.8379 214.089 44 213.421 44H210.702V37.6836ZM221.357 39.6172C221.267 39.293 221.089 39.0352 220.824 38.8438C220.534 38.6367 220.175 38.5332 219.745 38.5332C219.191 38.5332 218.745 38.7441 218.409 39.166C218.066 39.5879 217.894 40.1465 217.894 40.8418C217.894 41.5527 218.068 42.1172 218.415 42.5352C218.751 42.9453 219.199 43.1504 219.757 43.1504C220.62 43.1504 221.158 42.7949 221.368 42.084H222.382C222.277 42.6738 221.988 43.1484 221.515 43.5078C221.034 43.875 220.447 44.0586 219.751 44.0586C218.876 44.0586 218.177 43.7715 217.654 43.1973C217.122 42.6113 216.857 41.8262 216.857 40.8418C216.857 39.873 217.12 39.0938 217.648 38.5039C218.175 37.918 218.872 37.625 219.74 37.625C220.458 37.625 221.062 37.8242 221.55 38.2227C221.999 38.5898 222.273 39.0547 222.37 39.6172H221.357ZM228.976 44H227.658L224.898 40.9473H224.851V44H223.844V37.6836H224.851V40.4902H224.898L227.629 37.6836H228.894L225.924 40.6777L228.976 44Z" fill="#495365"/>
<path d="M83.457 64V56.5059H78.9336V64H77.873V55.5449H84.5V64H83.457ZM90.7135 61.1406H87.5026V64H86.4948V57.6836H87.5026V60.2969H90.7135V57.6836H91.7213V64H90.7135V61.1406ZM96.7128 61.1406V60.1914H100.557V61.1406H96.7128ZM111.261 64V56.5059H106.737V64H105.677V55.5449H112.304V64H111.261ZM118.892 58.5273H116.842V64H115.834V58.5273H113.783V57.6836H118.892V58.5273ZM127.657 59.6172C127.568 59.293 127.39 59.0352 127.124 58.8438C126.835 58.6367 126.476 58.5332 126.046 58.5332C125.491 58.5332 125.046 58.7441 124.71 59.166C124.366 59.5879 124.194 60.1465 124.194 60.8418C124.194 61.5527 124.368 62.1172 124.716 62.5352C125.052 62.9453 125.499 63.1504 126.058 63.1504C126.921 63.1504 127.458 62.7949 127.669 62.084H128.683C128.577 62.6738 128.288 63.1484 127.816 63.5078C127.335 63.875 126.747 64.0586 126.052 64.0586C125.177 64.0586 124.478 63.7715 123.954 63.1973C123.423 62.6113 123.157 61.8262 123.157 60.8418C123.157 59.873 123.421 59.0938 123.948 58.5039C124.476 57.918 125.173 57.625 126.04 57.625C126.759 57.625 127.362 57.8242 127.851 58.2227C128.3 58.5898 128.573 59.0547 128.671 59.6172H127.657ZM136.217 64.1406C135.323 64.1406 134.588 63.9121 134.014 63.4551C133.44 63.002 133.153 62.4219 133.153 61.7148C133.153 61.1875 133.319 60.7246 133.651 60.3262C133.983 59.9277 134.422 59.666 134.969 59.541V59.5176C134.512 59.377 134.151 59.1367 133.885 58.7969C133.62 58.4609 133.487 58.0703 133.487 57.625C133.487 56.9883 133.746 56.459 134.266 56.0371C134.782 55.6152 135.432 55.4043 136.217 55.4043C137.006 55.4043 137.659 55.6133 138.174 56.0312C138.686 56.4531 138.942 56.9863 138.942 57.6309C138.942 58.0723 138.811 58.459 138.549 58.791C138.287 59.1309 137.926 59.373 137.465 59.5176V59.541C138.012 59.6699 138.454 59.9336 138.789 60.332C139.121 60.7305 139.287 61.1914 139.287 61.7148C139.287 62.4219 139 63.0039 138.426 63.4609C137.852 63.9141 137.116 64.1406 136.217 64.1406ZM136.217 63.2207C136.799 63.2207 137.278 63.0723 137.653 62.7754C138.024 62.4785 138.209 62.0996 138.209 61.6387C138.209 61.1738 138.024 60.793 137.653 60.4961C137.278 60.1992 136.799 60.0508 136.217 60.0508C135.635 60.0508 135.159 60.1992 134.787 60.4961C134.412 60.7969 134.225 61.1777 134.225 61.6387C134.225 62.0996 134.412 62.4785 134.787 62.7754C135.162 63.0723 135.639 63.2207 136.217 63.2207ZM136.217 59.125C136.709 59.125 137.114 58.9941 137.43 58.7324C137.743 58.4707 137.899 58.1348 137.899 57.7246C137.899 57.3105 137.743 56.9707 137.43 56.7051C137.118 56.4434 136.713 56.3125 136.217 56.3125C135.721 56.3125 135.317 56.4453 135.004 56.7109C134.692 56.9727 134.536 57.3105 134.536 57.7246C134.536 58.1348 134.692 58.4707 135.004 58.7324C135.317 58.9941 135.721 59.125 136.217 59.125ZM141.769 62.793C141.565 62.793 141.394 62.7207 141.253 62.5762C141.108 62.4355 141.036 62.2637 141.036 62.0605C141.036 61.8613 141.108 61.6914 141.253 61.5508C141.397 61.4062 141.569 61.334 141.769 61.334C141.972 61.334 142.144 61.4062 142.284 61.5508C142.429 61.6914 142.501 61.8613 142.501 62.0605C142.501 62.2637 142.429 62.4355 142.284 62.5762C142.144 62.7207 141.972 62.793 141.769 62.793ZM141.769 58.2051C141.565 58.2051 141.394 58.1328 141.253 57.9883C141.108 57.8477 141.036 57.6758 141.036 57.4727C141.036 57.2734 141.108 57.1035 141.253 56.9629C141.397 56.8184 141.569 56.7461 141.769 56.7461C141.972 56.7461 142.144 56.8184 142.284 56.9629C142.429 57.1035 142.501 57.2734 142.501 57.4727C142.501 57.6758 142.429 57.8477 142.284 57.9883C142.144 58.1328 141.972 58.2051 141.769 58.2051ZM147.361 64.1406C146.381 64.1406 145.615 63.7461 145.064 62.957C144.517 62.1797 144.244 61.1172 144.244 59.7695C144.244 58.4336 144.517 57.375 145.064 56.5938C145.623 55.8008 146.388 55.4043 147.361 55.4043C148.334 55.4043 149.097 55.7988 149.652 56.5879C150.195 57.3652 150.466 58.4238 150.466 59.7637C150.466 61.1113 150.195 62.1738 149.652 62.9512C149.101 63.7441 148.338 64.1406 147.361 64.1406ZM147.361 63.2207C148.013 63.2207 148.519 62.9082 148.879 62.2832C149.23 61.6777 149.406 60.8398 149.406 59.7695C149.406 58.7148 149.228 57.8809 148.873 57.2676C148.509 56.6426 148.006 56.3301 147.361 56.3301C146.716 56.3301 146.211 56.6445 145.843 57.2734C145.484 57.8867 145.304 58.7168 145.304 59.7637C145.304 60.834 145.482 61.6738 145.838 62.2832C146.201 62.9082 146.709 63.2207 147.361 63.2207ZM154.998 64.1406C154.018 64.1406 153.252 63.7461 152.701 62.957C152.155 62.1797 151.881 61.1172 151.881 59.7695C151.881 58.4336 152.155 57.375 152.701 56.5938C153.26 55.8008 154.026 55.4043 154.998 55.4043C155.971 55.4043 156.735 55.7988 157.289 56.5879C157.832 57.3652 158.104 58.4238 158.104 59.7637C158.104 61.1113 157.832 62.1738 157.289 62.9512C156.739 63.7441 155.975 64.1406 154.998 64.1406ZM154.998 63.2207C155.651 63.2207 156.157 62.9082 156.516 62.2832C156.868 61.6777 157.043 60.8398 157.043 59.7695C157.043 58.7148 156.866 57.8809 156.51 57.2676C156.147 56.6426 155.643 56.3301 154.998 56.3301C154.354 56.3301 153.848 56.6445 153.481 57.2734C153.121 57.8867 152.942 58.7168 152.942 59.7637C152.942 60.834 153.119 61.6738 153.475 62.2832C153.838 62.9082 154.346 63.2207 154.998 63.2207ZM162.873 61.1406V60.1914H166.716V61.1406H162.873ZM171.591 57.9824C171.591 57.2441 171.856 56.6289 172.388 56.1367C172.919 55.6484 173.583 55.4043 174.38 55.4043C175.134 55.4043 175.772 55.6289 176.296 56.0781C176.819 56.5273 177.081 57.0762 177.081 57.7246C177.081 58.1934 176.95 58.6465 176.688 59.084C176.434 59.5137 175.952 60.0957 175.241 60.8301L173.102 63.0391V63.0625H177.222V64H171.643V63.2734L174.62 60.1387C175.186 59.541 175.563 59.0879 175.751 58.7793C175.934 58.4707 176.026 58.1406 176.026 57.7891C176.026 57.3828 175.864 57.0371 175.54 56.752C175.212 56.4668 174.815 56.3242 174.35 56.3242C173.854 56.3242 173.44 56.4824 173.108 56.7988C172.776 57.1152 172.61 57.5098 172.61 57.9824V57.9883H171.591V57.9824ZM180.957 56.6641H180.933L178.695 58.2754V57.1621L180.945 55.5449H181.976V64H180.957V56.6641ZM185.383 62.793C185.18 62.793 185.008 62.7207 184.867 62.5762C184.723 62.4355 184.651 62.2637 184.651 62.0605C184.651 61.8613 184.723 61.6914 184.867 61.5508C185.012 61.4062 185.184 61.334 185.383 61.334C185.586 61.334 185.758 61.4062 185.899 61.5508C186.043 61.6914 186.115 61.8613 186.115 62.0605C186.115 62.2637 186.043 62.4355 185.899 62.5762C185.758 62.7207 185.586 62.793 185.383 62.793ZM185.383 58.2051C185.18 58.2051 185.008 58.1328 184.867 57.9883C184.723 57.8477 184.651 57.6758 184.651 57.4727C184.651 57.2734 184.723 57.1035 184.867 56.9629C185.012 56.8184 185.184 56.7461 185.383 56.7461C185.586 56.7461 185.758 56.8184 185.899 56.9629C186.043 57.1035 186.115 57.2734 186.115 57.4727C186.115 57.6758 186.043 57.8477 185.899 57.9883C185.758 58.1328 185.586 58.2051 185.383 58.2051ZM190.975 64.1406C189.995 64.1406 189.229 63.7461 188.679 62.957C188.132 62.1797 187.858 61.1172 187.858 59.7695C187.858 58.4336 188.132 57.375 188.679 56.5938C189.237 55.8008 190.003 55.4043 190.975 55.4043C191.948 55.4043 192.712 55.7988 193.266 56.5879C193.809 57.3652 194.081 58.4238 194.081 59.7637C194.081 61.1113 193.809 62.1738 193.266 62.9512C192.716 63.7441 191.952 64.1406 190.975 64.1406ZM190.975 63.2207C191.628 63.2207 192.134 62.9082 192.493 62.2832C192.845 61.6777 193.02 60.8398 193.02 59.7695C193.02 58.7148 192.843 57.8809 192.487 57.2676C192.124 56.6426 191.62 56.3301 190.975 56.3301C190.331 56.3301 189.825 56.6445 189.458 57.2734C189.098 57.8867 188.919 58.7168 188.919 59.7637C188.919 60.834 189.096 61.6738 189.452 62.2832C189.815 62.9082 190.323 63.2207 190.975 63.2207ZM198.613 64.1406C197.632 64.1406 196.867 63.7461 196.316 62.957C195.769 62.1797 195.496 61.1172 195.496 59.7695C195.496 58.4336 195.769 57.375 196.316 56.5938C196.874 55.8008 197.64 55.4043 198.613 55.4043C199.585 55.4043 200.349 55.7988 200.904 56.5879C201.447 57.3652 201.718 58.4238 201.718 59.7637C201.718 61.1113 201.447 62.1738 200.904 62.9512C200.353 63.7441 199.589 64.1406 198.613 64.1406ZM198.613 63.2207C199.265 63.2207 199.771 62.9082 200.13 62.2832C200.482 61.6777 200.658 60.8398 200.658 59.7695C200.658 58.7148 200.48 57.8809 200.124 57.2676C199.761 56.6426 199.257 56.3301 198.613 56.3301C197.968 56.3301 197.462 56.6445 197.095 57.2734C196.736 57.8867 196.556 58.7168 196.556 59.7637C196.556 60.834 196.734 61.6738 197.089 62.2832C197.453 62.9082 197.96 63.2207 198.613 63.2207Z" fill="#495365"/>
<circle cx="139.5" cy="101.5" r="4.5" fill="#00B3CB"/>
<defs>
<filter id="filter0_d_193_1121" x="0" y="0" width="279" height="124.934" filterUnits="userSpaceOnUse" color-interpolation-filters="sRGB">
<feFlood flood-opacity="0" result="BackgroundImageFix"/>
<feColorMatrix in="SourceAlpha" type="matrix" values="0 0 0 0 0 0 0 0 0 0 0 0 0 0 0 0 0 0 127 0" result="hardAlpha"/>
<feOffset/>
<feGaussianBlur stdDeviation="7.5"/>
<feComposite in2="hardAlpha" operator="out"/>
<feColorMatrix type="matrix" values="0 0 0 0 0.0470588 0 0 0 0 0.101961 0 0 0 0 0.196078 0 0 0 0.25 0"/>
<feBlend mode="normal" in2="BackgroundImageFix" result="effect1_dropShadow_193_1121"/>
<feBlend mode="normal" in="SourceGraphic" in2="effect1_dropShadow_193_1121" result="shape"/>
</filter>
</defs>
</svg>
