<svg width="115" height="210" viewBox="0 0 115 210" fill="none" xmlns="http://www.w3.org/2000/svg">
<path d="M96.0879 125.284C94.4933 130.14 92.4765 134.731 90.0375 139.056C87.5985 143.382 84.2211 146.361 79.9053 147.994C77.6536 148.846 74.9209 148.71 71.7073 147.587C68.6109 146.207 66.3588 143.657 64.9511 139.936C63.0506 134.913 62.6278 129.544 63.6828 123.829C64.9254 118.042 66.8599 112.1 69.4864 106.002C72.0425 99.7188 75.0091 93.3862 78.3862 87.0046C81.8805 80.366 84.8353 73.7189 87.2507 67.0632C89.666 60.4076 91.2252 53.7569 91.9282 47.1112C92.7485 40.2084 91.9268 33.5016 89.4633 26.9908C87.7036 22.3402 85.1933 17.9736 81.9325 13.891C78.8593 9.73746 74.8714 6.56794 69.9688 4.3825C65.1834 1.94004 59.3661 0.738679 52.5169 0.778414C45.5973 0.632137 37.5402 2.29852 28.3456 5.77755C21.2152 8.47558 15.2811 11.7842 10.5433 15.7035C5.92276 19.3657 2.33436 23.488 -0.221918 28.0704C-2.59055 32.5819 -3.90363 37.3318 -4.16114 42.3204C-4.23102 47.2379 -3.44473 52.1505 -1.80229 57.0581L17.9003 49.6031L17.2668 47.9288C15.9998 44.5804 15.4952 41.2625 15.7528 37.9752C16.1278 34.4308 17.1478 31.174 18.8129 28.2047C20.478 25.2354 22.6005 22.6247 25.1805 20.3726C27.7605 18.1204 30.6454 16.3908 33.8354 15.1838C36.8377 14.0478 40.0511 13.4699 43.4758 13.45C47.088 13.3591 50.501 13.8753 53.7146 14.9986C57.0455 15.8648 59.9894 17.4091 62.5464 19.6314C65.033 21.6678 66.9097 24.3601 68.1767 27.7086C70.3587 33.4753 70.9575 39.3095 69.9729 45.2111C69.1056 50.8557 67.4173 56.5983 64.9081 62.4388C62.5865 68.2084 59.8896 74.12 56.8174 80.1735C53.6749 86.0411 50.7903 92.0236 48.1638 98.1212C45.725 104.148 43.9546 110.24 42.8528 116.399C41.9386 122.487 42.4905 128.764 44.5084 135.231L45.5642 138.021C47.1831 142.3 49.3884 146.144 52.1801 149.553C54.9013 152.777 58.1386 155.38 61.8918 157.362C65.5746 159.158 69.703 160.148 74.277 160.331C78.851 160.514 83.8589 159.576 89.3005 157.517C93.9916 155.742 98.4949 152.337 102.81 147.302C107.313 142.195 110.737 136.221 113.082 129.38L96.0879 125.284ZM83.0418 198.802C84.5904 202.894 87.4289 205.861 91.5574 207.701C95.6859 209.542 99.8142 209.681 103.942 208.119C108.071 206.557 111.073 203.719 112.949 199.607C114.825 195.495 114.989 191.392 113.44 187.3C111.892 183.207 109.053 180.241 104.925 178.4C100.796 176.56 96.6677 176.421 92.5396 177.983C88.4114 179.545 85.4093 182.382 83.5332 186.494C81.6571 190.607 81.4933 194.709 83.0418 198.802Z" fill="white"/>
</svg>
