<svg width="90" height="146" viewBox="0 0 90 146" fill="none" xmlns="http://www.w3.org/2000/svg">
<path d="M43.4129 98.4639C40.2545 100.205 37.0036 101.606 33.6603 102.668C30.3169 103.73 27.1305 103.647 24.1011 102.42C22.5205 101.78 21.1631 100.399 20.0288 98.2788C19.0788 96.0818 19.1293 93.6861 20.1802 91.0916C21.599 87.589 23.9531 84.6164 27.2426 82.1736C30.6637 79.7841 34.5195 77.6463 38.8101 75.76C43.1533 73.7441 47.7336 71.8997 52.551 70.2268C57.5527 68.4776 62.2777 66.4653 66.7259 64.1899C71.1742 61.9145 75.1744 59.2311 78.7265 56.1397C82.4629 52.9719 85.2507 49.1178 87.0899 44.5774C88.4036 41.3343 89.1904 37.8778 89.4504 34.2079C89.8421 30.5913 89.2858 27.0437 87.7817 23.5652C86.4617 20.0104 84.0096 16.6009 80.4253 13.3369C76.8936 9.94317 71.9007 6.93913 65.4467 4.32478C60.4415 2.29733 55.7663 1.15859 51.4211 0.908565C47.2601 0.582172 43.4159 0.988091 39.8883 2.12632C36.4924 3.31791 33.5315 5.13877 31.0058 7.58889C28.6118 10.0924 26.6658 13.0038 25.1678 16.3233L38.9979 21.9255L39.4708 20.758C40.4167 18.4229 41.7447 16.4692 43.4549 14.8968C45.3494 13.2481 47.4418 12.057 49.7321 11.3236C52.0224 10.5903 54.379 10.2613 56.8017 10.3366C59.2244 10.4119 61.5554 10.9031 63.7945 11.8101C65.902 12.6637 67.8517 13.9066 69.6439 15.5386C71.5678 17.224 73.0968 19.1269 74.2311 21.2475C75.5496 23.2917 76.3416 25.5002 76.6071 27.8728C76.9252 30.1158 76.6113 32.4048 75.6654 34.7399C74.0365 38.7613 71.551 42.0583 68.209 44.6308C65.0513 47.127 61.4193 49.28 57.313 51.0899C53.3384 52.9531 49.1003 54.7096 44.5989 56.3594C40.1499 57.8795 35.7802 59.5827 31.4896 61.4689C27.3307 63.4085 23.4882 65.7028 19.9619 68.3517C16.5674 71.0539 13.8451 74.557 11.7951 78.8609L11.0069 80.8068C9.79828 83.7905 9.10323 86.8311 8.92173 89.9288C8.79278 92.8968 9.22993 95.792 10.2332 98.6146C11.289 101.307 12.9634 103.798 15.2565 106.086C17.5496 108.374 20.606 110.291 24.4257 111.839C27.7186 113.172 31.6953 113.575 36.3558 113.047C41.148 112.572 45.7945 111.132 50.2952 108.727L43.4129 98.4639ZM1.37455 130.136C0.218506 132.99 0.273816 135.882 1.54049 138.811C2.80717 141.74 4.88937 143.792 7.7871 144.965C10.6848 146.139 13.6078 146.115 16.556 144.893C19.5042 143.671 21.5563 141.633 22.7124 138.779C23.8684 135.925 23.8131 133.034 22.5464 130.105C21.2798 127.175 19.1976 125.124 16.2998 123.95C13.4021 122.776 10.4791 122.8 7.53094 124.022C4.58273 125.244 2.5306 127.282 1.37455 130.136Z" fill="white"/>
</svg>
