<svg width="126" height="211" viewBox="0 0 126 211" fill="none" xmlns="http://www.w3.org/2000/svg">
<path d="M118.322 206.534C117.918 206.695 117.541 206.532 117.434 206.263C109.535 191.919 100.562 175.662 92.47 164.362C86.7709 156.326 83.3309 150.825 81.7743 146.917C80.3251 143.278 85.2352 138.356 85.667 137.871C87.5025 135.423 88.0463 132.083 86.8654 129.118L57.1285 54.4527C49.2381 34.6408 41.784 11.2197 54.7224 6.06679C68.4694 0.591773 97.9956 17.8768 104.974 35.3975C112.059 53.1878 107.02 71.9028 93.9471 77.1094C81.3046 82.613 81.734 83.6913 88.2242 103.124C90.7721 110.698 94.124 121.074 98.1165 135.412C101.465 148.132 118.783 204.945 118.916 205.672C118.889 205.996 118.727 206.373 118.322 206.534ZM55.2055 7.2798C43.4801 11.9497 50.8005 34.6431 58.4226 53.7812L88.1595 128.446C89.5014 131.816 89.0375 135.748 86.7166 138.546C85.3677 139.864 82.1022 143.819 83.0147 146.111C84.5177 149.884 87.9577 155.385 93.603 163.287C100.646 173.13 108.358 186.611 115.289 199.309C110.679 183.813 99.1247 145.785 96.4729 135.598C92.6689 121.341 89.1822 111.018 86.6344 103.445C80.1978 84.1469 79.3664 81.6673 93.1683 75.5458C105.702 70.5539 110.282 52.6464 103.518 35.6647C96.4869 18.0092 67.0657 2.55625 55.2055 7.2798ZM91.3672 72.9839C78.6984 78.0295 67.3481 65.9978 61.6584 51.7117L61.0143 50.0944C56.4518 38.6385 49.5275 21.2526 52.8525 13.5261C53.5824 11.83 54.7965 10.5657 56.279 9.97529C66.1176 6.0569 94.3567 19.3261 101.227 36.5773C106.944 50.5402 105.249 67.4552 91.3672 72.9839ZM56.8694 11.4578C55.6565 11.9409 54.7394 12.7746 54.2253 14.2285C51.1436 21.3897 58.1753 39.0452 62.4157 49.6924L63.0599 51.3097C68.4275 64.7872 79.1587 76.4408 90.8841 71.7709C103.822 66.618 105.382 50.5378 100.122 37.3299C93.5732 20.8874 66.0341 7.80777 56.8694 11.4578Z" fill="white"/>
<path d="M95.0484 151.624C92.2181 152.751 88.8798 151.426 87.6989 148.461C86.5717 145.631 87.8966 142.293 90.8616 141.112C93.6919 139.984 97.0304 141.309 98.2113 144.275C99.3385 147.105 97.8787 150.497 95.0484 151.624ZM91.3984 142.459C89.242 143.318 88.1878 145.768 89.0466 147.925C89.9054 150.081 92.3552 151.135 94.5116 150.276C96.668 149.418 97.7224 146.968 96.8635 144.811C96.0047 142.655 93.5548 141.601 91.3984 142.459Z" fill="white"/>
<path d="M83.0186 143.767C82.8838 143.821 82.8839 143.821 82.7491 143.874C82.4258 143.847 82.2373 143.766 82.13 143.496L80.8668 141.501C70.306 124.002 65.3129 112.249 62.0649 104.486C56.8571 92.1937 56.5887 91.5199 45.6457 95.4097C32.4378 100.67 16.0471 90.4895 8.9618 72.6992C1.98384 55.1785 11.5424 22.3273 25.2894 16.8523C38.2278 11.6993 48.9164 33.8321 56.8069 53.644L86.9731 129.387C87.5099 130.735 87.993 131.948 88.692 132.919C88.7456 133.054 88.7993 133.189 88.9067 133.458C88.7421 135.397 88.0659 137.228 86.7707 138.681C86.6359 138.735 84.4235 141.021 83.4503 143.283C83.3692 143.471 83.1533 143.713 83.0186 143.767ZM25.8262 18.2C13.966 22.9236 3.22423 54.3722 10.3095 72.1624C17.0728 89.1441 32.7096 99.0002 45.1089 94.0619C57.3997 89.6353 58.1512 91.5222 63.4126 103.949C66.6607 111.712 71.6001 123.33 81.9725 140.748L82.483 141.638C83.6983 139.592 85.3442 137.844 85.479 137.79C86.4236 136.633 86.9376 135.179 87.2631 133.644C86.5105 132.539 86.0274 131.326 85.4906 129.978L85.1149 129.034L55.3781 54.3693C47.8371 35.0428 37.5516 13.5302 25.8262 18.2ZM44.8715 90.7211C30.9897 96.2498 18.1294 85.1317 12.6007 71.2499C5.73013 53.9988 17.2496 24.895 26.9534 21.0303C28.5707 20.3861 30.1868 20.5233 31.8828 21.2532C39.6093 24.5782 46.5337 41.9641 51.0962 53.42L51.7403 55.0373C57.4575 69.0002 57.5403 85.6755 44.8715 90.7211ZM27.4901 22.378C18.3254 26.028 7.45361 54.4054 13.9485 70.7132C19.2088 83.9211 31.2615 94.58 44.3347 89.3734C56.0601 84.7035 55.8949 68.9978 50.4736 55.3856L49.8295 53.7683C45.6427 43.2558 38.6111 25.6004 31.3963 22.3838C30.0771 21.8162 28.8379 21.8412 27.4901 22.378Z" fill="white"/>
</svg>
