<svg width="202" height="245" viewBox="0 0 202 245" fill="none" xmlns="http://www.w3.org/2000/svg">
<path d="M76.0917 85.9914C76.5635 85.7194 77.0593 85.8526 77.3313 86.3244C77.6033 86.7962 77.4702 87.292 76.9984 87.564C76.9984 87.564 70.0606 92.6117 59.1755 113.345C52.9615 125.1 49.6673 140.828 47.2573 152.276C45.0895 162.326 44.2054 166.607 42.2942 167.29C41.8224 167.562 41.3266 167.429 40.988 167.205C37.0155 164.676 40.1141 156.604 40.6709 155.025C41.0648 152.074 46.1516 104.93 76.0917 85.9914ZM41.95 165.603C43.0267 164.563 44.3529 158.141 45.6124 151.967C48.1797 140.429 51.4739 124.7 57.6638 112.541C62.2683 103.809 65.9831 97.8961 69.0745 93.8089C46.1245 115.422 42.6968 154.905 42.5636 155.401L42.497 155.649C41.6497 157.814 39.7371 163.945 41.95 165.603Z" fill="white"/>
<path d="M52.9751 99.3196C53.1323 99.229 53.1323 99.229 52.9751 99.3196C84.2752 82.7402 127.715 102.116 130.557 103.411C132.111 103.563 140.897 104.992 140.938 109.788C141.053 110.35 140.672 110.78 140.357 110.961C138.718 112.116 134.818 110.802 124.877 107.733C113.763 104.084 98.4338 99.302 85.2142 98.5424C61.7263 97.4171 53.9724 101.049 53.9724 101.049C53.5006 101.321 52.9141 101.031 52.7328 100.717C52.5274 99.9968 52.6606 99.501 52.9751 99.3196ZM139.136 109.57C138.81 106.824 132.546 105.407 130.338 105.213L130.091 105.147C129.752 104.923 93.7077 88.1976 63.5043 97.2301C68.4331 96.6933 75.5692 96.3505 85.4325 96.7403C98.9665 97.3186 114.229 102.348 125.591 106.064C131.475 107.911 137.606 109.823 139.136 109.57Z" fill="white"/>
<path d="M41.9322 55.8172C45.2347 53.9132 49.4494 55.0452 51.3534 58.3477C53.2575 61.6501 52.1254 65.8648 48.823 67.7689C45.5206 69.6729 41.3058 68.5409 39.4018 65.2384C37.4977 61.936 38.6298 57.7212 41.9322 55.8172ZM48.007 66.3535C50.5231 64.9028 51.2315 61.7705 49.8715 59.4116C48.4208 56.8954 45.2885 56.187 42.9296 57.547C40.5707 58.9071 39.705 62.1301 41.065 64.489C42.425 66.8479 45.6481 67.7135 48.007 66.3535Z" fill="white"/>
<path d="M25.703 4.40949C26.0175 4.22815 26.2654 4.29474 26.5133 4.36133C35.2205 8.56066 57.8112 39.7476 63.0259 54.9704C64.0048 57.7586 64.4638 60.0083 64.1549 61.6531C62.6828 71.0928 54.8808 73.9148 52.4738 74.4645C52.2074 75.4562 51.7894 78.002 51.1717 81.2917C48.8338 93.9544 43.376 126.645 42.4731 155.244C42.5638 155.401 42.4065 155.491 42.4065 155.491C41.5593 157.656 39.4893 163.878 41.8595 165.445C42.1074 165.512 42.2887 165.826 42.3128 166.232C42.6228 182.397 44.4459 193.917 48.254 200.522C57.4115 216.405 69.1348 226.2 77.4184 231.481C78.7727 232.377 79.3649 234.131 78.8081 235.709C78.2513 237.287 76.6787 238.194 75.0339 237.885C60.3693 236.073 35.3287 229.347 32.0451 206.934C29.4315 188.954 32.1452 151.14 34.4706 117.741C35.3634 104.026 36.3043 91.1207 36.7607 81.0095C37.3077 71.0556 37.1704 64.6392 36.5726 61.4218C34.6403 50.8019 36.2201 45.91 37.8961 42.6388C38.1865 42.0523 38.477 41.4657 38.7675 40.8792C39.5056 39.6155 40.0199 38.6904 40.3528 37.4508C40.5526 36.707 40.4379 36.1445 40.0086 35.7634C38.6061 34.0576 33.9677 34.008 32.3469 34.1043C31.9417 34.1284 31.5125 33.7472 31.3312 33.4327L24.8501 5.11077C25.2552 5.08669 25.3884 4.59082 25.703 4.40949ZM55.7705 71.097C58.4439 69.5556 61.6075 66.6839 62.4194 61.187C62.6617 59.7901 62.2268 57.9456 61.3386 55.3147C56.2386 40.6542 36.4105 13.532 27.5588 6.90153L33.2182 32.3447C35.0869 32.315 39.7253 32.3647 41.6477 34.6088C42.349 35.4617 42.5785 36.5866 42.4935 37.8928C42.0939 39.3804 41.3558 40.6441 40.6177 41.9078C40.3272 42.4943 39.9461 42.9236 39.6557 43.5101C38.0462 46.5334 36.7569 50.8388 38.5078 61.1441C39.1963 64.5188 39.243 70.7779 38.72 81.137C38.3543 91.4055 37.4134 104.311 36.43 117.869C34.0139 151.111 31.3002 188.925 33.9803 206.657C37.0344 227.944 61.2406 234.313 75.2521 236.083C76.1531 236.192 76.8488 235.581 77.1392 234.995C77.4296 234.408 77.2908 233.441 76.3657 232.926C67.9915 227.487 55.9296 217.469 46.6814 201.429C42.692 194.51 40.621 182.922 40.4682 166.667C37.1248 163.775 39.9329 156.289 40.5804 154.868C41.6406 126.179 47.0983 93.4883 49.3455 80.6683C50.2055 75.9818 50.6901 73.188 50.6901 73.188C50.666 72.7828 51.1378 72.5108 51.3857 72.5774C51.8816 72.7106 53.5689 72.3663 55.7705 71.097Z" fill="white"/>
<path d="M62.9581 60.6671C63.2726 60.4858 63.5206 60.5523 63.7685 60.6189C73.2676 65.8284 86.9148 72.4179 101.487 79.5216C131.557 94.2434 165.642 110.841 179.893 122.111C197.644 136.183 190.918 161.223 185.139 174.822C184.583 176.401 182.919 177.15 181.274 176.841C179.63 176.532 178.408 175.141 178.312 173.52C177.892 163.705 175.289 148.652 166.132 132.769C162.324 126.164 153.333 118.566 139.342 110.289C139.094 110.223 138.913 109.908 138.888 109.503C138.811 106.824 133.108 105.292 130.157 104.899L129.909 104.832C99.6765 88.7374 62.2948 75.5073 55.1475 72.9231C54.8089 72.6992 54.4703 72.4754 54.5369 72.2275C54.5128 71.8223 54.7366 71.4837 55.0512 71.3024C57.9725 69.8276 61.5413 66.9319 62.3291 61.0298C62.4863 60.9391 62.6436 60.8484 62.9581 60.6671ZM182.866 174.876C183.18 174.695 183.404 174.356 183.628 174.018C189.026 160.848 195.733 136.865 178.84 123.556C164.68 112.443 130.752 95.755 100.773 81.1905C86.7873 74.3772 73.6359 67.9209 63.9795 62.8021C62.8716 67.422 60.2038 70.4269 57.6211 72.1255C67.9249 75.8234 102.489 88.1637 130.714 103.32C133.169 103.581 140.087 105.04 140.89 108.978C154.882 117.254 163.963 125.01 167.952 131.929C177.291 148.127 179.827 163.427 180.338 173.4C180.32 174.458 181.154 174.815 181.741 175.106C181.989 175.172 182.551 175.057 182.866 174.876Z" fill="white"/>
<path d="M51.3191 72.8253C51.4763 72.7346 51.4763 72.7346 51.6336 72.6439C51.6336 72.6439 52.196 72.5292 53.073 72.2331C53.3875 72.0518 53.974 72.3422 54.1554 72.6567C54.3367 72.9713 54.2035 73.4671 53.9797 73.8057C53.4413 74.3256 52.655 74.779 52.1167 75.2989C51.8022 75.4802 51.397 75.5043 51.0584 75.2805C50.7198 75.0566 50.5384 74.7421 50.7623 74.4035L50.8714 73.5025C50.938 73.2545 51.1618 72.9159 51.3191 72.8253Z" fill="white"/>
<path d="M7.77587 14.7456C8.24765 14.4736 8.58624 14.6974 8.92484 14.9213L30.1882 34.7205C30.5268 34.9443 30.6416 35.5068 30.2605 35.936C29.3651 37.2904 27.0841 41.3295 27.7003 43.4886C27.8151 44.051 28.2443 44.4321 28.9881 44.6319C30.2277 44.9649 31.534 45.0499 32.8402 45.1349C34.3037 45.1293 36.0151 45.1902 37.9078 45.5657C38.1557 45.6323 38.4037 45.6988 38.585 46.0134C38.6757 46.1706 38.6997 46.5758 38.6332 46.8238C37.5436 50.3854 37.5846 55.181 38.623 61.7065C39.106 64.3615 39.1471 69.1571 39.0846 76.3173C39.018 76.5652 38.9514 76.8131 38.6369 76.9945C38.3224 77.1758 38.0744 77.1092 37.8265 77.0426C27.0934 72.9637 6.40004 25.806 7.10432 15.7614C7.39476 15.1749 7.46136 14.9269 7.77587 14.7456ZM28.2771 35.4033L9.09337 17.7576C10.4263 30.6088 28.1107 68.1865 37.3435 74.3877C37.5447 68.1952 37.304 64.1433 36.9116 61.6456C35.8066 55.368 35.6084 50.6631 36.6072 46.9441C35.2103 46.7019 33.9948 46.7741 32.6886 46.6891C31.2251 46.6947 29.7616 46.7003 28.1834 46.1435C26.9437 45.8106 26.0852 45.0484 25.7651 43.7662C25.0341 41.0447 27.3151 37.0056 28.2771 35.4033Z" fill="white"/>
</svg>
