<svg width="122" height="194" viewBox="0 0 122 194" fill="none" xmlns="http://www.w3.org/2000/svg">
<g opacity="0.48">
<path d="M60.5252 4.07982C60.8945 3.91272 61.1407 3.80132 61.51 3.63423C67.5858 1.32993 74.383 2.25859 80.8727 6.44065C87.3066 10.4996 92.4277 17.2288 95.5675 25.1512C98.5842 33.1292 99.2853 41.5618 97.2488 48.8602C95.2681 56.2818 90.8309 61.5521 84.755 63.8564C74.0571 68.4004 74.2682 69.1947 78.7949 83.4597C81.0524 90.7431 84.5559 101.764 87.9045 118.341C97.6628 166.128 96.2462 190.201 96.2345 190.503C96.2228 190.805 96.0323 191.039 95.7861 191.15C95.5399 191.262 95.1823 191.127 95.0709 190.881C80.1383 167.384 72.7053 132.93 72.717 132.628C72.6613 132.505 72.7287 132.326 72.7961 132.148L79.6769 116.873L51.0552 42.4742C48.0385 34.4962 47.3373 26.0637 49.3738 18.7652C51.0967 11.757 55.1088 6.5306 60.5252 4.07982ZM94.952 25.4297L94.3365 25.7082C91.4312 17.9763 86.2984 11.549 80.2221 7.6248C74.1457 3.70063 67.7735 2.72807 62.1227 4.98835C56.5949 7.19295 52.3483 12.2288 50.4466 19.1697C48.5449 26.1105 49.1347 34.2968 52.04 42.0286L80.6501 116.73C80.7058 116.853 80.694 117.155 80.5709 117.21L73.7458 132.608C74.4231 135.416 81.3369 166.1 94.6838 188.387C94.8298 181.499 94.4 158.261 86.3716 118.887C83.0231 102.309 79.5753 91.4115 77.3178 84.1281C72.8468 69.9862 72.2018 67.9052 84.1307 62.8042C89.8372 60.667 93.9051 55.5638 95.8068 48.6229C97.7085 41.6821 97.1186 33.4957 94.2134 25.7639L94.952 25.4297ZM63.7998 11.6446C64.046 11.5332 64.2922 11.4218 64.5384 11.3104C73.7474 7.73673 85.1966 15.0135 89.9166 27.4114C94.6366 39.8093 91.0471 52.8527 81.7824 56.3033C77.2394 58.0623 72.1305 57.2597 67.3498 54.2323C62.569 51.2049 58.7085 46.2781 56.4042 40.2023C51.7282 28.2294 55.0598 15.5993 63.7998 11.6446ZM82.0197 54.8613C90.0211 51.2408 93.0831 39.3259 88.6856 27.9684C84.1211 16.2417 73.6215 9.42497 65.028 12.7202C56.5576 15.9596 53.182 28.1648 57.7466 39.8915C59.8838 45.5981 63.6329 50.2786 68.1117 53.2943C72.5349 56.1868 77.2863 56.8547 81.3368 55.3185C81.5273 55.084 81.7735 54.9727 82.0197 54.8613Z" fill="#DEEAFF"/>
<path d="M81.0963 130.171C83.4351 129.113 86.2959 130.192 87.3542 132.53C88.4125 134.869 87.3341 137.73 84.9952 138.788C82.6564 139.847 79.7956 138.768 78.7373 136.429C77.679 134.09 78.7574 131.23 81.0963 130.171ZM84.4939 137.68C86.2173 136.901 86.9587 134.934 86.1789 133.21C85.3991 131.487 83.4323 130.746 81.7089 131.525C79.9856 132.305 79.2442 134.272 80.024 135.995C80.8038 137.719 82.7705 138.46 84.4939 137.68Z" fill="#DEEAFF"/>
<path d="M90.9306 140.107C91.1768 139.995 91.4788 140.007 91.5902 140.253C99.9324 146.563 108.378 164.245 112.588 174.205C112.699 174.451 112.564 174.809 112.374 175.043C112.128 175.154 111.703 175.198 111.468 175.008C107.494 171.468 101.074 165.474 92.714 156.503C92.6583 156.38 92.6026 156.257 92.5469 156.134C92.0072 151.336 91.1773 146.224 90.4148 140.933C90.5496 140.576 90.7401 140.341 90.9306 140.107ZM110.143 171.752C105.91 162.396 99.1235 148.709 92.112 142.39C92.8422 146.954 93.5167 151.394 93.9567 155.644C100.81 162.924 106.292 168.156 110.143 171.752Z" fill="#DEEAFF"/>
<path d="M88.2623 124.704C88.5085 124.593 88.8661 124.728 89.1006 124.918C89.7924 125.792 106.082 147.043 115.659 169.849C117.096 173.351 118.187 176.417 119.154 179.539C119.265 179.785 119.131 180.142 118.884 180.254C118.638 180.365 118.336 180.354 118.157 180.286C118.102 180.163 115.868 178.504 111.659 174.773C107.684 171.233 101.265 165.24 92.9047 156.268C92.849 156.145 92.7933 156.022 92.7376 155.899C91.5351 146.359 89.9984 136.08 87.8696 125.475C87.8813 125.173 88.0161 124.816 88.2623 124.704ZM117.222 177.892C116.466 175.564 115.531 173.17 114.484 170.529C106.8 151.909 94.4183 134.376 89.8219 128.151C91.6282 137.715 93.0212 147.021 94.1357 155.711C102.44 164.559 108.681 170.486 112.6 173.903C114.587 175.673 116.106 177.062 117.222 177.892Z" fill="#DEEAFF"/>
<path d="M-1.23843 32.7678C10.2098 27.5878 25.7625 35.0841 34.0673 50.1607L72.4814 119.981L77.8013 121.578C77.9801 121.645 78.1589 121.713 78.2703 121.959C78.326 122.082 78.3143 122.384 78.2469 122.563L73.6782 132.786C73.6108 132.965 73.5434 133.144 73.2972 133.255C73.051 133.367 72.7492 133.355 72.5147 133.165C71.1311 131.418 69.5687 129.604 68.1294 127.734C57.6968 114.51 51.4851 104.715 47.3811 98.2667C39.3403 85.7401 38.9503 84.8785 28.4635 90.2168C16.9685 96.6044 0.510145 89.073 -8.1406 73.5597C-16.6683 57.9907 -14.278 40.0027 -2.7273 33.7381C-2.1001 33.1577 -1.73082 32.9906 -1.23843 32.7678ZM76.7931 122.627L72.0095 121.232C71.8307 121.165 71.6519 121.098 71.5962 120.974L32.9477 50.9639C24.6986 36.0104 9.1342 28.816 -1.80102 34.802C-12.7362 40.7881 -14.9126 57.9378 -6.6634 72.8913C1.58575 87.8447 17.2058 95.1623 28.0854 89.0531C39.5013 83.1462 40.8174 85.0717 48.6795 97.531C52.7835 103.979 58.9394 113.651 69.3721 126.875C70.6442 128.375 71.7933 129.932 73.0655 131.432L76.7931 122.627ZM2.40549 40.1655C11.0224 36.2665 22.5976 41.8551 28.8738 53.1039C31.9841 58.6667 33.3153 64.8863 32.5566 70.4201C31.8536 76.0771 29.0842 80.4446 24.8197 82.819C16.1677 87.6237 3.86561 82.0675 -2.57775 70.4493C-5.68803 64.8865 -7.01923 58.667 -6.26054 53.1331C-5.55755 47.4761 -2.78807 43.1087 1.47639 40.7342C1.78999 40.444 2.03619 40.3326 2.40549 40.1655ZM23.1548 82.0894C23.401 81.978 23.7703 81.8109 24.0165 81.6995C27.7885 79.5478 30.4232 75.5379 31.0471 70.3616C31.7384 65.0066 30.4512 59.212 27.5754 53.8397C21.5336 42.7813 10.0699 37.439 2.03339 41.9652C-1.73868 44.1169 -4.37337 48.1267 -4.99726 53.303C-5.68856 58.6581 -4.52447 64.5083 -1.52559 69.825C4.41648 80.3352 15.2764 85.6541 23.1548 82.0894Z" fill="#DEEAFF"/>
</g>
</svg>
