<svg version="1.1" xmlns="http://www.w3.org/2000/svg" xmlns:xlink="http://www.w3.org/1999/xlink">

    <symbol id="logo" viewBox="0 0 76 45" fill="none" xmlns="http://www.w3.org/2000/svg">
        <path d="M44.9973 19.5275V26.2969H44.9452L37.7036 19.3756H37.6384V28.3846H38.2386V21.6152H38.2908L45.5323 28.5365H45.5975V19.5275H44.9973Z" fill="#00B3CB"/>
        <path d="M49.0501 19.5275V28.3846H54.9477V27.6887H50.2375V23.9814H54.2823V23.3993H50.2375V20.2234H54.9477V19.5275H49.0501Z" fill="#00B3CB"/>
        <path d="M65.5368 24.4369H62.9534V24.9556H64.4147V27.2459C64.0233 27.4905 63.6231 27.6718 63.2143 27.7899C62.8055 27.908 62.3401 27.9671 61.8182 27.9671C61.131 27.9671 60.5308 27.8659 60.0176 27.6634C59.5044 27.461 59.0782 27.1826 58.7389 26.8283C58.3997 26.4656 58.1431 26.0396 57.9691 25.5503C57.8038 25.0527 57.7212 24.5086 57.7212 23.9181C57.7212 23.3361 57.7995 22.8004 57.956 22.3112C58.1213 21.8219 58.3649 21.4001 58.6867 21.0458C59.0086 20.6916 59.4 20.4174 59.861 20.2234C60.3307 20.0294 60.8744 19.9324 61.492 19.9324C61.9008 19.9324 62.2836 19.9745 62.6402 20.0589C62.9968 20.1433 63.3143 20.2529 63.5927 20.3879C63.871 20.5228 64.0972 20.6789 64.2712 20.856C64.4538 21.0248 64.5713 21.1977 64.6235 21.3748H65.5629C65.4846 21.1892 65.3498 20.9826 65.1584 20.7548C64.9758 20.5186 64.7235 20.2993 64.4017 20.0969C64.0798 19.8944 63.6797 19.7257 63.2013 19.5907C62.7315 19.4473 62.1748 19.3756 61.5311 19.3756C60.7918 19.3756 60.1089 19.4769 59.4826 19.6793C58.865 19.8818 58.3301 20.1728 57.8778 20.5524C57.4254 20.932 57.0732 21.4001 56.8209 21.9569C56.5686 22.5052 56.4425 23.1294 56.4425 23.8295C56.4425 24.4284 56.5382 25.0105 56.7296 25.5756C56.9296 26.1324 57.2297 26.6343 57.6299 27.0814C58.0387 27.52 58.5562 27.8743 59.1825 28.1442C59.8088 28.4057 60.5569 28.5365 61.4268 28.5365C62.0792 28.5365 62.6576 28.469 63.1621 28.334C63.6666 28.1906 64.0842 28.0346 64.4147 27.8659V28.3846H65.5368V24.4369Z" fill="#00B3CB"/>
        <path d="M73.2922 25.7781L74.5448 28.3846H75.8104L71.5568 19.5275H70.9045L67.0423 28.3846H67.6425L68.7907 25.7781H73.2922ZM73.0182 25.2087H69.0386L70.9175 20.9446H70.9697L73.0182 25.2087Z" fill="#00B3CB"/>
        <path fill-rule="evenodd" clip-rule="evenodd" d="M10.2535 0.96492C9.98827 1.05214 9.84113 1.13932 9.6051 1.34914C8.87476 1.99836 8.27874 3.60234 8.20883 5.1068C8.16434 6.06415 8.28503 6.46246 8.76261 6.93465C9.88545 8.04478 12.3229 7.73712 12.8204 6.42251C13.0139 5.91124 13.0134 4.64913 12.8192 3.65468C12.4849 1.9417 11.7515 0.985067 10.7276 0.926516C10.5409 0.915813 10.3577 0.930671 10.2535 0.96492ZM11.3573 1.88953C12.0361 2.20407 12.4888 3.2222 12.6114 4.71016C12.7147 5.96539 12.4964 6.5112 11.7576 6.84496C10.8578 7.25142 9.74069 6.94175 9.34636 6.17647C9.09831 5.69513 9.15554 4.43293 9.47384 3.36431C9.67375 2.69305 10.084 2.06006 10.4396 1.87429C10.666 1.75602 11.0841 1.76294 11.3573 1.88953ZM15.0897 3.19546C14.6931 3.39088 14.3128 3.82975 13.9977 4.4556C13.6323 5.18126 13.4675 5.92618 13.5826 6.33218C13.8399 7.23992 15.2818 7.6855 16.119 7.11602C16.4955 6.85986 16.6766 6.31199 16.715 5.3123C16.7519 4.35172 16.6296 3.85564 16.2565 3.45204C15.9198 3.08776 15.497 2.99479 15.0897 3.19546ZM15.9241 3.8585C16.2705 4.08922 16.4082 4.48342 16.4042 5.23209C16.3995 6.0994 16.2534 6.58591 15.9437 6.76534C15.4625 7.04416 14.7172 6.86817 14.4053 6.40211C14.3039 6.25059 14.287 6.18394 14.2901 5.94864C14.2998 5.2127 14.8188 4.13346 15.3036 3.84116C15.4826 3.73325 15.7473 3.74064 15.9241 3.8585ZM18.4423 5.33358C17.9483 5.48644 17.4017 6.08366 17.0223 6.885C16.8185 7.31551 16.7545 7.56768 16.7783 7.8455C16.8325 8.47651 17.4274 8.96171 18.1957 9.00159C18.9905 9.04284 19.2909 8.76251 19.5814 7.70846C19.7042 7.26271 19.713 6.31858 19.5974 5.99002C19.4967 5.70407 19.1994 5.39826 18.9512 5.32535C18.7387 5.26298 18.6667 5.26415 18.4423 5.33358ZM19.0241 5.99812C19.1051 6.05122 19.2149 6.18465 19.2745 6.30242C19.3665 6.48429 19.3806 6.56819 19.3806 6.93197C19.3806 7.39706 19.2791 7.89377 19.1311 8.15198C18.9922 8.39437 18.8475 8.47844 18.5353 8.49808C18.091 8.52608 17.7147 8.35307 17.5359 8.0387C17.4554 7.89704 17.442 7.82497 17.4599 7.63014C17.5138 7.04223 18.0823 6.15519 18.5283 5.96316C18.7186 5.88123 18.861 5.89126 19.0241 5.99812ZM11.8995 8.00839C10.6154 8.1218 9.65774 8.95516 9.06363 10.4762C8.52089 11.8656 8.31793 14.0478 8.55617 15.9321C8.64306 16.6191 8.74546 17.0754 9.05145 18.1386C10.0344 21.5538 10.4062 24.0798 10.2315 26.1553C10.0688 28.0877 9.59682 29.5911 8.76876 30.8143C7.97555 31.986 6.95744 32.8438 5.30794 33.73C4.19622 34.3272 3.16452 35.082 2.35756 35.8884C1.31995 36.9252 0.715232 38.0192 0.525729 39.2022C0.43433 39.7728 0.463877 40.6264 0.59208 41.1185C0.848955 42.1043 1.53985 43.0344 2.39585 43.5468C3.74526 44.3546 5.67307 44.2353 7.73978 43.2162C8.82675 42.6802 9.80118 41.9616 10.8687 40.9086C11.7278 40.0612 12.4075 39.1781 13.1575 37.9348C14.1361 36.3125 14.9652 33.8946 15.2683 31.7796C15.3283 31.361 15.3411 30.9074 15.3443 29.0934C15.3484 26.7275 15.3533 26.6671 15.6025 25.9524C15.9045 25.0864 16.6766 24.3995 17.4141 24.341C18.5274 24.2527 19.5668 25.315 19.5709 26.5453C19.5713 26.6675 19.5419 26.9098 19.5056 27.0838C19.4692 27.2578 19.4454 27.4178 19.4527 27.4393C19.4599 27.4609 19.5995 27.3812 19.7629 27.2622C20.116 27.0051 20.6463 26.7505 20.9786 26.6786C21.3518 26.5977 21.838 26.6424 22.1168 26.7831C22.5494 27.0014 22.9185 27.4724 23.1213 28.0651C23.2414 28.4156 23.2321 29.1283 23.1027 29.5001C22.9683 29.8863 22.7392 30.2204 22.3953 30.5318C22.0233 30.8686 21.2163 31.2689 20.1448 31.6481C19.0951 32.0196 18.5687 32.2307 18.0301 32.4961C17.5738 32.7209 16.0396 33.6085 15.9241 33.7145C15.8908 33.745 16.2475 33.6115 16.7168 33.4179C17.7851 32.977 18.0656 32.8823 19.3806 32.5191C21.525 31.9267 22.1955 31.6125 22.9678 30.8379C23.6777 30.126 23.9741 29.3835 23.9325 28.4218C23.8983 27.6322 23.646 27.0538 23.0975 26.5073C22.3375 25.7501 21.4382 25.608 20.3278 26.0696C20.2698 26.0937 20.2508 26.0686 20.2287 25.9385C20.0039 24.6184 19.2069 23.6983 18.0859 23.4645C17.4717 23.3364 16.8039 23.4768 16.2512 23.8502C15.6748 24.2395 15.2202 24.9493 14.9893 25.8205C14.8076 26.5059 14.7746 26.9887 14.7746 28.9652C14.7746 31.2547 14.7133 31.9309 14.3917 33.1857C13.7678 35.62 12.3456 38.0058 10.3165 40.0217C8.93059 41.3987 7.25965 42.3534 5.70469 42.6565C5.16603 42.7615 4.33372 42.7511 3.88827 42.6337C2.78458 42.3429 2.01217 41.5817 1.71174 40.4889C1.59772 40.0743 1.61024 39.1961 1.73683 38.7261C1.85794 38.2765 2.13677 37.6894 2.42883 37.269C3.03538 36.396 4.52492 35.1932 5.90226 34.4641C7.16562 33.7954 8.11598 33.0657 8.90635 32.1574C10.1569 30.7203 10.8934 29.0028 11.1922 26.8269C11.2852 26.1497 11.2991 24.2771 11.217 23.4901C11.0486 21.8755 10.7723 20.5586 10.143 18.3721C9.72991 16.9367 9.54457 15.8986 9.47134 14.6095C9.37302 12.8786 9.64106 11.4942 10.2567 10.5533C10.7745 9.76187 11.4864 9.35852 12.4423 9.31495C13.187 9.28095 13.7479 9.40998 14.6048 9.81241C15.7923 10.37 17.1681 11.5309 18.2829 12.916C19.1457 13.9878 19.5783 14.7349 19.9092 15.724C20.0608 16.1773 20.3629 17.4265 20.5083 18.2016C20.5365 18.3516 20.576 18.4923 20.5962 18.5143C20.6615 18.5851 20.6383 16.8992 20.5671 16.3945C20.4375 15.4759 20.1913 14.7202 19.698 13.7273C19.1252 12.5743 18.4158 11.6039 17.4282 10.6222C15.6061 8.81082 13.5925 7.85884 11.8995 8.00839ZM20.56 8.26182C19.9936 8.45091 19.1739 9.65375 19.1146 10.3828C19.0964 10.6061 19.1097 10.6767 19.2068 10.8731C19.3416 11.1455 19.5453 11.3329 19.8669 11.4808C20.0641 11.5714 20.1643 11.5891 20.4844 11.5899C20.9257 11.5911 21.1426 11.5062 21.3346 11.2574C21.5882 10.9285 21.806 9.99364 21.7652 9.40834C21.727 8.86018 21.6199 8.61938 21.302 8.36642C21.1235 8.22442 20.8061 8.17968 20.56 8.26182ZM21.1873 8.91319C21.3516 9.04985 21.4215 9.20444 21.4608 9.51806C21.5203 9.99297 21.3182 10.8153 21.0967 10.9996C20.7187 11.3141 19.9103 11.0685 19.7828 10.6006C19.6697 10.185 20.1631 9.16704 20.6044 8.90551C20.8375 8.76738 21.0149 8.76969 21.1873 8.91319ZM21.6093 11.9101C21.2063 12.1491 20.7972 12.7336 20.6548 13.2742C20.5396 13.7114 20.7205 14.0646 21.1713 14.2827C21.4658 14.4251 21.8867 14.445 22.109 14.3269C22.4587 14.1411 22.6706 13.6158 22.6706 12.9349C22.6706 12.3262 22.5546 12.0438 22.2376 11.8807C22.0689 11.794 21.7828 11.8074 21.6093 11.9101ZM22.2335 12.4199C22.3746 12.5729 22.43 12.8101 22.4017 13.1406C22.3575 13.6586 22.2288 13.8962 21.9662 13.9449C21.6718 13.9994 21.3719 13.8063 21.3271 13.5332C21.2829 13.2638 21.4889 12.7136 21.7294 12.4591C21.887 12.2923 22.1005 12.2756 22.2335 12.4199Z" fill="#00B3CB"/>
    </symbol>

    <symbol id="vk" viewBox="0 0 25 25" fill="none" xmlns="http://www.w3.org/2000/svg">
        <circle cx="12.5" cy="12.5" r="12.5" fill="#639AF7"/>
        <path fill-rule="evenodd" clip-rule="evenodd" d="M8.99862 11.1356C8.81581 10.5129 8.73174 9.99043 8.67897 9.14883L8.66315 8.89648H6.69043L6.70496 9.23099C6.77181 10.7687 7.15223 12.1924 7.78545 13.2744C8.22724 14.0293 8.84246 14.6877 9.53811 15.15C10.4812 15.7768 11.6935 16.1265 12.9236 16.1265H13.3175V14.8355C13.3175 13.67 13.3211 13.5444 13.3548 13.5444C13.446 13.5444 13.8727 13.645 14.0613 13.7109C14.3308 13.8051 14.6482 13.9723 14.8804 14.1422C15.1302 14.3251 15.5005 14.705 15.6938 14.977C15.8641 15.2164 16.1216 15.7116 16.2092 15.9681L16.2633 16.1265H17.2904C17.8553 16.1265 18.3175 16.1226 18.3175 16.1178C18.3175 16.0924 18.1476 15.5968 18.0852 15.44C17.6273 14.2894 16.6826 13.2093 15.6106 12.6105L15.4088 12.4978L15.5897 12.3773C16.3352 11.8805 17.0538 11.0415 17.464 10.1892C17.6393 9.82482 17.82 9.28653 17.8606 9.00799L17.8768 8.89648H16.0208L15.9683 9.05494C15.5541 10.3053 14.6323 11.3663 13.693 11.6738C13.5962 11.7055 13.4721 11.7381 13.4172 11.7462L13.3175 11.7609V8.89648H11.416V11.4082C11.416 12.7897 11.4114 13.92 11.4057 13.92C11.4 13.92 11.3182 13.8924 11.2238 13.8587C10.2083 13.4961 9.40188 12.5093 8.99862 11.1356Z" fill="white"/>
    </symbol>

    <symbol id="whatsapp" viewBox="0 0 25 25" fill="none" xmlns="http://www.w3.org/2000/svg">
        <path d="M25 12.5C25 19.4036 19.4036 25 12.5 25C10.0939 25 7.84659 24.3202 5.93965 23.1421C5.1134 22.6317 2.07256 24.2938 1.38889 23.6111C0.808325 23.0314 2.56298 20.1287 2.10493 19.4444C0.775377 17.4582 0 15.0696 0 12.5C0 5.59644 5.59644 0 12.5 0C19.4036 0 25 5.59644 25 12.5Z" fill="#77FF61"/>
        <path d="M18.7658 15.2552C18.4238 15.0833 16.7346 14.2517 16.4169 14.1337C16.1009 14.0208 15.87 13.9618 15.6443 14.3056C15.4134 14.6476 14.7537 15.4271 14.5558 15.651C14.3579 15.8819 14.153 15.908 13.8092 15.7378C13.4672 15.5642 12.3579 15.2031 11.0454 14.0278C10.0211 13.1163 9.33529 11.9878 9.13042 11.6458C8.93251 11.3021 9.11133 11.1181 9.2832 10.9462C9.43424 10.7934 9.62522 10.5434 9.79709 10.3455C9.9707 10.1476 10.028 10.0017 10.1408 9.77257C10.2537 9.53993 10.1999 9.34201 10.1148 9.17014C10.028 8.99826 9.34223 7.30208 9.0523 6.61806C8.77452 5.94271 8.49154 6.03646 8.27973 6.02778C8.08181 6.01562 7.85091 6.01562 7.62001 6.01562C7.44564 6.01996 7.27405 6.06029 7.116 6.13408C6.95796 6.20788 6.81688 6.31354 6.70161 6.44444C6.38563 6.78819 5.50195 7.61979 5.50195 9.31597C5.50195 11.0122 6.73459 12.6424 6.9082 12.8733C7.07834 13.1042 9.32834 16.5747 12.7815 18.0677C13.5974 18.4236 14.2398 18.6337 14.7415 18.7934C15.5662 19.0573 16.311 19.0174 16.9047 18.9323C17.5645 18.8316 18.9377 18.099 19.2276 17.2951C19.5124 16.4896 19.5124 15.8021 19.4256 15.658C19.3405 15.5122 19.1096 15.4271 18.7658 15.2552Z" fill="white"/>
    </symbol>

    <symbol id="mail" width="25" height="25" viewBox="0 0 20 20" fill="none" xmlns="http://www.w3.org/2000/svg">
        <circle cx="10" cy="10" r="10" fill="#00B3CB"/>
        <path d="M6 6H14C14.55 6 15 6.45 15 7V13C15 13.55 14.55 14 14 14H6C5.45 14 5 13.55 5 13V7C5 6.45 5.45 6 6 6Z" stroke="white" stroke-linecap="round" stroke-linejoin="round"/>
        <path d="M15 7L10 10.5L5 7" stroke="white" stroke-linecap="round" stroke-linejoin="round"/>
    </symbol>

    <symbol id="individual" width="127" height="127" viewBox="0 0 127 127" fill="none" xmlns="http://www.w3.org/2000/svg">
        <rect width="127" height="127" rx="38" fill="#F9F9F9"/>
        <g clip-path="url(#clip0_193_520)">
            <path d="M90.1751 32.3502H90.1312C89.8673 32.1056 89.5779 31.8906 89.268 31.7089C88.1854 31.0602 83.2769 28.222 83.0209 28.0598C80.4241 26.4011 76.313 26.7623 72.6481 28.6348C67.4032 31.3034 63.0361 36.9429 59.7004 46.3274C59.7004 46.3274 56.3281 43.8873 55.2236 43.2754C52.517 41.801 49.3715 42.5382 45.7798 44.8456C41.7565 47.4847 39.0206 50.9053 36.5116 56.0804L36.4677 56.1762C34.3021 60.5727 33.1186 65.3939 33.0003 70.3008C32.9564 81.1522 37.3894 86.3273 43.139 90.2049C44.7776 91.3107 49.1082 93.6475 49.5397 93.9424C53.0024 96.2464 56.833 97.9322 60.8635 98.9258L66.5108 100.26L72.1653 92.3501C76.2853 86.5211 80.0662 80.4561 83.4891 74.1857C89.2241 63.6292 93.679 53.2717 93.6351 42.4866C93.6351 37.776 92.3184 34.3259 90.1751 32.3502Z" fill="#00B3CB"/>
            <path opacity="0.15" d="M90.1751 32.3502H90.1312C89.8673 32.1056 89.5779 31.8906 89.268 31.7089C88.1854 31.0602 83.2769 28.222 83.0209 28.0598C80.4241 26.4011 76.313 26.7623 72.6481 28.6348C67.4032 31.3034 63.0361 36.9429 59.7004 46.3274C59.7004 46.3274 56.3281 43.8873 55.2236 43.2754C52.517 41.801 49.3715 42.5382 45.7798 44.8456C41.7565 47.4847 39.0206 50.9053 36.5116 56.0804L36.4677 56.1762C34.3021 60.5727 33.1186 65.3939 33.0003 70.3008C32.9564 81.1522 37.3894 86.3273 43.139 90.2049C44.7776 91.3107 49.1082 93.6475 49.5397 93.9424C53.0024 96.2464 56.833 97.9322 60.8635 98.9258L66.5108 100.26L72.1653 92.3501C76.2853 86.5211 80.0662 80.4561 83.4891 74.1857C89.2241 63.6292 93.679 53.2717 93.6351 42.4866C93.6351 37.776 92.3184 34.3259 90.1751 32.3502Z" fill="black"/>
            <path d="M90.1753 32.3502H90.1314C89.8675 32.1056 89.5781 31.8906 89.2682 31.7089C88.1856 31.0602 83.2772 28.222 83.0211 28.0598C80.4243 26.4011 76.3132 26.7623 72.6483 28.6348C67.4034 31.3034 63.0363 36.9429 59.7006 46.3274C59.7006 46.3274 56.3284 43.8873 55.2238 43.2754C52.5172 41.801 49.3717 42.5382 45.78 44.8456C41.7567 47.4847 39.0209 50.9053 36.5118 56.0804L36.4679 56.1762C36.3655 56.3974 36.2704 56.6259 36.168 56.8544L79.0783 81.8157C80.5925 79.3313 82.0775 76.8028 83.4673 74.2005C89.2024 63.6439 93.6573 53.2864 93.6134 42.5013C93.6353 37.776 92.3186 34.3259 90.1753 32.3502Z" fill="#00B3CB"/>
            <path d="M90.1753 32.3502H90.1314C89.8675 32.1056 89.5781 31.8906 89.2682 31.7089C88.1856 31.0602 83.2772 28.222 83.0211 28.0598C80.4243 26.4011 76.3132 26.7623 72.6483 28.6348C67.4034 31.3034 63.0363 36.9429 59.7006 46.3274C59.7006 46.3274 56.3284 43.8873 55.2238 43.2754C52.5172 41.801 49.3717 42.5382 45.78 44.8456C41.7567 47.4847 39.0209 50.9053 36.5118 56.0804L36.4679 56.1762C36.3655 56.3974 36.2704 56.6259 36.168 56.8544L79.0783 81.8157C80.5925 79.3313 82.0775 76.8028 83.4673 74.2005C89.2024 63.6439 93.6573 53.2864 93.6134 42.5013C93.6353 37.776 92.3186 34.3259 90.1753 32.3502Z" fill="#00B3CB"/>
            <path d="M59.708 46.2684L65.465 53.8614L74.7186 42.8036L64.2507 36.6849C62.3782 39.6941 60.8541 42.9096 59.708 46.2684Z" fill="#00B3CB"/>
            <path opacity="0.15" d="M59.708 46.2684L65.465 53.8614L74.7186 42.8036L64.2507 36.6849C62.3782 39.6941 60.8541 42.9096 59.708 46.2684Z" fill="black"/>
            <path d="M82.3627 76.1761C82.7431 75.5053 83.1308 74.8345 83.5039 74.1489C89.2389 63.5923 93.6938 53.2348 93.6499 42.4497C93.6499 37.7981 92.3186 34.3406 90.1753 32.3723H90.1314C87.6296 30.1092 83.065 30.3451 79.0417 32.3723C73.5407 35.1737 69.0054 41.2186 65.6112 51.4729C62.217 45.1847 57.6743 44.9857 52.1807 48.5905C48.1574 51.1633 45.4215 54.5986 42.9198 59.7589L42.8759 59.8548C40.7062 64.2497 39.5225 69.0718 39.4085 73.9793C39.3646 84.8381 43.7976 90.0132 49.5546 93.8834C53.0172 96.1874 56.8478 97.8732 60.8783 98.8668L66.5256 100.201L72.1801 92.2911C73.4822 90.4408 74.755 88.5462 76.0059 86.6295C80.5925 88.8411 89.8241 89.077 94.0961 81.4692C91.4042 83.6586 84.5426 83.349 82.3627 76.1761Z" fill="#00B3CB"/>
            <path opacity="0.3" d="M82.3627 76.1761C82.7431 75.5053 83.1308 74.8345 83.5039 74.1489C89.2389 63.5923 93.6938 53.2348 93.6499 42.4497C93.6499 37.7981 92.3186 34.3406 90.1753 32.3723H90.1314C87.6296 30.1092 83.065 30.3451 79.0417 32.3723C73.5407 35.1737 69.0054 41.2186 65.6112 51.4729C62.217 45.1847 57.6743 44.9857 52.1807 48.5905C48.1574 51.1633 45.4215 54.5986 42.9198 59.7589L42.8759 59.8548C40.7062 64.2497 39.5225 69.0718 39.4085 73.9793C39.3646 84.8381 43.7976 90.0132 49.5546 93.8834C53.0172 96.1874 56.8478 97.8732 60.8783 98.8668L66.5256 100.201L72.1801 92.2911C73.4822 90.4408 74.755 88.5462 76.0059 86.6295C80.5925 88.8411 89.8241 89.077 94.0961 81.4692C91.4042 83.6586 84.5426 83.349 82.3627 76.1761Z" fill="white"/>
            <path d="M65.6188 51.414C64.918 50.1572 64.0243 49.0201 62.9707 48.045C61.9298 47.0777 60.5938 46.4955 59.1815 46.3937C57.7757 46.3257 56.3753 46.612 55.107 47.2267C53.8106 47.8256 52.5839 48.5673 51.4495 49.4383C49.1638 51.1279 47.2009 53.2209 45.6559 55.6159C44.1115 58.021 42.8335 60.5895 41.8447 63.2753C40.836 65.9383 40.1698 68.7205 39.8623 71.554C39.5983 74.4033 39.7239 77.2757 40.2354 80.0906C40.7148 82.9161 41.8036 85.6012 43.4248 87.9564C45.103 90.2928 47.1754 92.3139 49.5475 93.9277C47.0785 92.4189 44.9043 90.4676 43.1322 88.1702C41.4146 85.8016 40.2358 83.0808 39.6795 80.2012C39.4966 79.464 39.4308 78.7268 39.3064 78.0486C39.182 77.3704 39.1747 76.5742 39.1235 75.8371C39.0723 75.0999 39.0723 74.3627 39.0796 73.6255C39.0869 72.8883 39.1308 72.1511 39.1967 71.4139C39.481 68.5045 40.1401 65.6447 41.1571 62.9067C42.1838 60.1775 43.5035 57.5696 45.0926 55.1294C46.6921 52.6766 48.7372 50.5505 51.1203 48.8633C52.3036 48.0116 53.5769 47.2946 54.9168 46.7254C56.2617 46.1213 57.7358 45.8678 59.2035 45.9883C59.9373 46.066 60.6525 46.2705 61.3175 46.5927C61.6394 46.765 61.952 46.9545 62.2538 47.1604C62.5471 47.3751 62.8279 47.6065 63.0951 47.8533C64.1328 48.8855 64.9865 50.09 65.6188 51.414Z" fill="#00B3CB"/>
            <g opacity="0.6">
                <path opacity="0.6" d="M65.6188 51.414C64.918 50.1572 64.0243 49.0201 62.9707 48.045C61.9298 47.0777 60.5938 46.4955 59.1815 46.3937C57.7757 46.3257 56.3753 46.612 55.107 47.2267C53.8106 47.8256 52.5839 48.5673 51.4495 49.4383C49.1638 51.1279 47.2009 53.2209 45.6559 55.6159C44.1115 58.021 42.8335 60.5895 41.8447 63.2753C40.836 65.9383 40.1698 68.7205 39.8623 71.554C39.5983 74.4033 39.7239 77.2757 40.2354 80.0906C40.7148 82.9161 41.8036 85.6012 43.4248 87.9564C45.103 90.2928 47.1754 92.3139 49.5475 93.9277C47.0785 92.4189 44.9043 90.4676 43.1322 88.1702C41.4146 85.8016 40.2358 83.0808 39.6795 80.2012C39.4966 79.464 39.4308 78.7268 39.3064 78.0486C39.182 77.3704 39.1747 76.5742 39.1235 75.8371C39.0723 75.0999 39.0723 74.3627 39.0796 73.6255C39.0869 72.8883 39.1308 72.1511 39.1967 71.4139C39.481 68.5045 40.1401 65.6447 41.1571 62.9067C42.1838 60.1775 43.5035 57.5696 45.0926 55.1294C46.6921 52.6766 48.7372 50.5505 51.1203 48.8633C52.3036 48.0116 53.5769 47.2946 54.9168 46.7254C56.2617 46.1213 57.7358 45.8678 59.2035 45.9883C59.9373 46.066 60.6525 46.2705 61.3175 46.5927C61.6394 46.765 61.952 46.9545 62.2538 47.1604C62.5471 47.3751 62.8279 47.6065 63.0951 47.8533C64.1328 48.8855 64.9865 50.09 65.6188 51.414Z" fill="white"/>
            </g>
            <path d="M82.1946 45.7524C81.3864 45.3303 80.445 45.2484 79.5769 45.5248C78.7089 45.8012 77.9851 46.4133 77.5642 47.2267L62.005 77.0092L59.1887 73.7656C58.8942 73.4229 58.5357 73.1419 58.1335 72.9389C57.7314 72.7358 57.2935 72.6146 56.8448 72.582C56.3962 72.5495 55.9455 72.6064 55.5187 72.7494C55.0918 72.8924 54.6971 73.1187 54.357 73.4154C54.017 73.7121 53.7382 74.0734 53.5367 74.4787C53.3352 74.884 53.2149 75.3253 53.1827 75.7774C53.1504 76.2296 53.2068 76.6837 53.3487 77.1139C53.4906 77.544 53.7151 77.9418 54.0096 78.2845L60.1031 85.3837C60.684 86.0672 61.5098 86.4913 62.4 86.5632C62.6285 86.5889 62.8591 86.5889 63.0876 86.5632C63.6416 86.4994 64.1718 86.3001 64.6321 85.9828C65.0923 85.6654 65.4686 85.2396 65.7284 84.7423L83.6284 50.4777C83.8471 50.0737 83.9835 49.6297 84.0297 49.1718C84.0758 48.714 84.0308 48.2514 83.8973 47.8113C83.7638 47.3712 83.5444 46.9623 83.252 46.6088C82.9596 46.2552 82.6001 45.9641 82.1946 45.7524Z" fill="#FAFAFA"/>
        </g>
        <defs>
            <clipPath id="clip0_193_520">
                <rect width="61" height="73" fill="white" transform="translate(33 27)"/>
            </clipPath>
        </defs>
    </symbol>

    <symbol id="privacy" width="127" height="127" viewBox="0 0 127 127" fill="none" xmlns="http://www.w3.org/2000/svg">
        <rect width="127" height="127" rx="38" fill="#F9F9F9"/>
        <path d="M30.3119 92.7996H93.0994L90.7875 48.6383H28L30.3119 92.7996Z" fill="#00B3CB"/>
        <path d="M68.3643 44.0662H90.5483L90.7879 48.6383H67.3281L68.3643 44.0662Z" fill="#00B3CB"/>
        <g opacity="0.1">
            <path opacity="0.1" d="M30.3119 92.7996H93.0994L90.7875 48.6383H28L30.3119 92.7996Z" fill="black"/>
            <path opacity="0.1" d="M68.3643 44.0662H90.5483L90.7879 48.6383H67.3281L68.3643 44.0662Z" fill="black"/>
        </g>
        <path d="M100.761 62.3071L73.9872 90.8261L38.0049 55.8568L57.8849 34.6808L71.6363 34L100.761 62.3071Z" fill="#00B3CB"/>
        <path opacity="0.6" d="M100.761 62.3071L73.9872 90.8261L38.0049 55.8568L57.8849 34.6808L71.6363 34L100.761 62.3071Z" fill="white"/>
        <path d="M57.8848 34.6808L71.6362 34L64.7423 41.343L57.8848 34.6808Z" fill="#00B3CB"/>
        <path opacity="0.4" d="M57.8848 34.6808L71.6362 34L64.7423 41.343L57.8848 34.6808Z" fill="white"/>
        <path d="M47.5781 59.8338L62.4648 43.9777L61.5405 43.0792L46.6538 58.9353L47.5781 59.8338Z" fill="white"/>
        <path d="M49.9101 62.1021L64.7969 46.246L63.8726 45.3475L48.9858 61.2036L49.9101 62.1021Z" fill="white"/>
        <path d="M52.2412 64.3686L67.1279 48.5125L66.2036 47.614L51.3168 63.4701L52.2412 64.3686Z" fill="white"/>
        <path d="M54.5735 66.6347L76.3857 43.4022L75.4614 42.5038L53.6492 65.7363L54.5735 66.6347Z" fill="white"/>
        <path d="M56.9065 68.9012L78.7188 45.6687L77.7944 44.7703L55.9822 68.0028L56.9065 68.9012Z" fill="white"/>
        <path d="M59.2405 71.1676L81.0527 47.9351L80.1284 47.0366L58.3162 70.2691L59.2405 71.1676Z" fill="white"/>
        <path d="M61.5706 73.4341L83.3828 50.2015L82.4585 49.3031L60.6463 72.5356L61.5706 73.4341Z" fill="white"/>
        <path d="M63.9016 75.7005L85.7139 52.468L84.7895 51.5696L62.9773 74.8021L63.9016 75.7005Z" fill="white"/>
        <path d="M66.2337 77.9688L88.0459 54.7363L87.1216 53.8379L65.3094 77.0704L66.2337 77.9688Z" fill="white"/>
        <path d="M68.5686 80.2334L90.3809 57.0009L89.4565 56.1024L67.6443 79.3349L68.5686 80.2334Z" fill="white"/>
        <path d="M70.8987 82.4999L92.7109 59.2673L91.7866 58.3689L69.9744 81.6014L70.8987 82.4999Z" fill="white"/>
        <path d="M73.2307 84.7655L95.043 61.533L94.1187 60.6346L72.3064 83.8671L73.2307 84.7655Z" fill="white"/>
        <path d="M31.4389 72.2196L69.7748 67.6183L66.7236 41.5364L28.3877 46.135L31.4389 72.2196Z" fill="#EBEBEB"/>
        <path d="M32.8424 70.4051L67.9942 66.1852L65.3205 43.351L30.166 47.5681L32.8424 70.4051Z" fill="white"/>
        <path d="M34.1887 54.3045C34.2776 55.0737 34.5885 55.7988 35.0822 56.3882C35.5758 56.9777 36.2301 57.4051 36.9624 57.6163C37.6947 57.8276 38.472 57.8134 39.1963 57.5753C39.9206 57.3373 40.5594 56.8862 41.0318 56.279C41.5043 55.6719 41.7893 54.9358 41.8508 54.1639C41.9124 53.392 41.7477 52.6188 41.3776 51.9421C41.0075 51.2654 40.4486 50.7154 39.7715 50.3617C39.0943 50.008 38.3294 49.8665 37.5732 49.9549C37.0699 50.0134 36.5829 50.1725 36.1401 50.4229C35.6974 50.6734 35.3076 51.0104 34.9932 51.4145C34.6787 51.8186 34.4458 52.282 34.3077 52.7779C34.1697 53.2738 34.1292 53.7926 34.1887 54.3045Z" fill="#DBDBDB"/>
        <path d="M43.7617 69.1309L67.9765 66.225L53.9334 50.98L43.7617 69.1309Z" fill="#EBEBEB"/>
        <path d="M34.2715 70.2779L54.2608 67.8779L43.0061 58.2038L34.2715 70.2779Z" fill="#DBDBDB"/>
        <path d="M30.3584 92.7996H93.1485L97.991 51.2317H35.2008L30.3584 92.7996Z" fill="#00B3CB"/>
        <path d="M76.3068 46.9271H98.4908L97.991 51.2317H74.5312L76.3068 46.9271Z" fill="#00B3CB"/>
        <path d="M63.2454 75.7693C62.5157 75.7698 61.8022 75.5501 61.1952 75.138C60.5881 74.7258 60.1149 74.1398 59.8353 73.4539C59.5557 72.7681 59.4822 72.0133 59.6243 71.285C59.7663 70.5567 60.1175 69.8876 60.6333 69.3624C61.1491 68.8372 61.8065 68.4794 62.5221 68.3343C63.2378 68.1893 63.9797 68.2635 64.654 68.5475C65.3282 68.8315 65.9045 69.3126 66.31 69.93C66.7155 70.5473 66.9319 71.2731 66.9319 72.0156C66.9312 73.0105 66.5427 73.9644 65.8516 74.6681C65.1604 75.3719 64.2232 75.7679 63.2454 75.7693ZM63.2454 69.3243C62.7215 69.3237 62.2093 69.4814 61.7734 69.7772C61.3376 70.073 60.9979 70.4937 60.7971 70.9861C60.5964 71.4785 60.5438 72.0204 60.6458 72.5432C60.7479 73.0661 61.0001 73.5463 61.3706 73.9233C61.741 74.3002 62.2131 74.5568 62.7269 74.6607C63.2408 74.7645 63.7733 74.711 64.2572 74.5067C64.7412 74.3025 65.1547 73.9568 65.4454 73.5134C65.7361 73.0699 65.891 72.5487 65.8905 72.0156C65.8898 71.3021 65.6109 70.6179 65.115 70.1133C64.6191 69.6088 63.9467 69.325 63.2454 69.3243Z" fill="white"/>
        <path d="M63.3162 77.2342C59.9552 77.2342 56.6618 75.605 53.5168 72.3918L53.1523 72.0183L53.5168 71.6448C56.8284 68.2567 60.3066 66.6303 63.8525 66.813C69.2886 67.0938 72.8605 71.4965 73.0089 71.6845L73.2692 72.0183L73.0089 72.3521C72.8605 72.5375 69.2886 76.9401 63.8525 77.2183C63.6755 77.2289 63.5063 77.2342 63.3162 77.2342ZM54.6285 72.0183C57.6069 74.9322 60.692 76.3229 63.8005 76.1613C67.94 75.9494 70.9808 73.0223 71.9076 72.0183C70.9782 71.0249 67.9322 68.0793 63.7927 67.8726C60.6841 67.7164 57.6043 69.1097 54.6285 72.0183Z" fill="white"/>
        <path d="M70.1363 64.2565L55.6133 79.0336L56.3496 79.7828L70.8727 65.0058L70.1363 64.2565Z" fill="white"/>
    </symbol>

    <symbol id="car" width="127" height="127" viewBox="0 0 127 127" fill="none" xmlns="http://www.w3.org/2000/svg">
        <rect width="127" height="127" rx="38" fill="#F9F9F9"/>
        <g clip-path="url(#clip0_193_575)">
            <path d="M106.599 75.6763L23.8232 75.8093L23.804 63.2737L106.58 63.1407L106.599 75.6763Z" fill="#455A64"/>
            <path d="M19.4949 54.0394C19.4949 54.0394 21.565 54.2763 21.9327 54.0394C22.7652 53.4912 40.8827 46.0173 56.4504 46.0001C68.9363 45.9829 80.179 49.3713 91.1138 56.8415C91.1138 56.8415 104.43 58.3427 109.631 62.3309C110.846 63.0529 113.327 65.8989 112.38 72.3625C111.777 76.4843 108.778 76.6581 104.68 76.5645C104.68 76.5645 106.205 64.0442 95.3006 65.0012C86.0347 65.8129 87.808 77.3878 87.808 77.3878L41.3792 77.4623C41.3792 77.4623 41.1758 72.3204 40.9779 71.0751C40.5841 68.5806 37.5545 64.4931 31.8986 65.1005C25.6939 65.7671 23.6294 71.5602 24.027 76.4499C24.027 76.4499 17.4808 77.8977 16.596 72.5095L15.0336 72.0129C15.0336 72.0129 14.4326 60.8354 19.8868 56.1367L18.7165 55.3402L19.4949 54.0394Z" fill="#00B3CB"/>
            <path d="M22.582 53.6823C22.582 53.6823 22.9684 54.7595 24.2993 54.6373C25.3838 54.5399 31.5792 52.137 33.8378 51.2508C34.1603 51.1299 34.4505 50.9331 34.685 50.6763C34.9194 50.4195 35.0915 50.1099 35.1874 49.7724C35.2346 49.6305 35.2449 49.4784 35.2173 49.3312C35.2173 49.3312 25.5854 51.6996 22.582 53.6823Z" fill="#455A64"/>
            <path d="M75.7641 49.0007C75.7659 49.4539 75.8926 49.8974 76.1297 50.2802C76.3667 50.6631 76.7046 50.9697 77.1043 51.1648L90.3574 57.6265L91.1152 56.7918C91.1152 56.7918 89.7302 55.7718 87.9196 54.6697C86.2396 53.6517 84.1863 52.5687 82.9599 51.9575C80.6338 50.7963 78.229 49.8081 75.7641 49.0007Z" fill="#455A64"/>
            <g opacity="0.3">
                <path opacity="0.3" d="M31.7645 54.6392C31.675 54.7175 31.6032 54.8148 31.5539 54.9242C31.5047 55.0337 31.4792 55.1528 31.4792 55.2733C31.4792 55.3938 31.5047 55.5129 31.5539 55.6223C31.6032 55.7318 31.675 55.8291 31.7645 55.9074C32.4215 56.5931 35.5519 58.975 37.006 59.1201C38.4601 59.2653 82.619 62.2812 85.2323 61.5153C87.8455 60.7494 89.3762 59.3933 88.7191 58.614L87.5338 58.2128L66.7171 58.6483L31.7645 54.6392Z" fill="white"/>
            </g>
            <g opacity="0.7">
                <path opacity="0.7" d="M15.7017 64.2467C15.7017 64.2467 18.272 65.026 19.3696 62.9517C20.4672 60.8774 21.6768 58.6847 21.6768 58.211C21.6768 57.617 21.2605 55.7069 19.8867 56.0946C19.8867 56.0946 16.0657 59.2099 15.7017 64.2467Z" fill="white"/>
            </g>
            <g opacity="0.7">
                <path opacity="0.7" d="M110.762 66.3745C110.762 66.3745 100.81 62.3004 102.42 60.9118C103.27 60.1783 111.453 64.2123 110.762 66.3745Z" fill="white"/>
            </g>
            <path d="M106.699 76.5283C106.699 76.5283 106.699 76.4939 106.699 76.427C106.699 76.3602 106.71 76.259 106.712 76.1252C106.712 75.8617 106.723 75.4739 106.712 74.9792C106.657 73.5628 106.444 72.1575 106.077 70.7905C105.823 69.8437 105.468 68.9284 105.019 68.0611C104.506 67.0618 103.823 66.164 103.003 65.4099L102.672 65.1139L102.316 64.8445C102.072 64.6633 101.819 64.495 101.558 64.3403C101.429 64.2582 101.287 64.197 101.151 64.1245C101.015 64.0519 100.879 63.9774 100.733 63.9182L100.298 63.7425L100.078 63.6546L99.8519 63.5839C99.5457 63.4823 99.2341 63.3987 98.9186 63.3337L98.4445 63.2325C98.2839 63.2076 98.1215 63.1905 97.961 63.1675C97.8005 63.1446 97.6362 63.1236 97.4719 63.1064L96.9791 63.0816C96.647 63.0538 96.3135 63.0462 95.9805 63.0587C94.672 63.0555 93.3744 63.3016 92.1539 63.7845C91.0204 64.2462 90.0005 64.9584 89.1673 65.8702C88.4246 66.703 87.8182 67.6531 87.3716 68.6837C86.9802 69.5779 86.6782 70.5103 86.47 71.4667C86.1706 72.8468 86.013 74.2551 85.9996 75.6688C85.9996 76.1711 86.0127 76.5607 86.0276 76.8243C86.0276 76.9542 86.0444 77.0554 86.0519 77.1223C86.0594 77.1891 86.0668 77.2235 86.0668 77.2235C86.0668 77.2235 86.0668 77.1891 86.0668 77.1223C86.0668 77.0554 86.0668 76.9504 86.0538 76.8224C86.0426 76.5588 86.0351 76.1711 86.0538 75.6764C86.0789 74.2619 86.2459 72.8538 86.5521 71.4743C86.764 70.5245 87.0679 69.5986 87.4593 68.7105C87.905 67.6897 88.5089 66.7494 89.2476 65.9256C90.0749 65.0241 91.0872 64.3216 92.2118 63.8685C93.4216 63.3904 94.7078 63.1469 96.0048 63.1503C97.3003 63.1163 98.593 63.2916 99.8351 63.6699L100.061 63.7386L100.277 63.8265L100.709 63.9984C100.852 64.0576 100.985 64.1359 101.121 64.2028C101.257 64.2696 101.397 64.3346 101.524 64.4167C101.782 64.5678 102.031 64.733 102.271 64.9114L102.626 65.1788L102.952 65.471C103.767 66.2169 104.446 67.1049 104.957 68.0935C105.409 68.9509 105.768 69.8566 106.027 70.7943C106.399 72.1553 106.622 73.5544 106.691 74.9659C106.715 75.4663 106.719 75.854 106.717 76.1119V76.4118C106.699 76.4939 106.699 76.5283 106.699 76.5283Z" fill="#263238"/>
            <path d="M42.9437 77.4183C42.9437 77.4183 42.9437 77.384 42.9567 77.3171C42.9698 77.2503 42.9698 77.1529 42.9773 77.023C42.9941 76.7632 43.009 76.3774 43.0053 75.8769C42.9995 74.4772 42.8487 73.0821 42.5554 71.715C42.3539 70.7697 42.0599 69.8476 41.6781 68.9626C41.2387 67.9435 40.6376 67.0058 39.8992 66.1873C39.0766 65.2847 38.066 64.5829 36.9425 64.134C35.7323 63.6618 34.4483 63.4191 33.1532 63.4177C31.8634 63.3649 30.5735 63.5189 29.3303 63.8742C29.2557 63.8972 29.1791 63.9144 29.1063 63.9392L28.8879 64.0213L28.453 64.1875C28.1693 64.3021 27.893 64.4511 27.628 64.581C27.3722 64.7414 27.1091 64.8866 26.8683 65.0604L26.5155 65.3259C26.4576 65.3698 26.396 65.4118 26.3419 65.4596L26.1795 65.6066C25.3585 66.3394 24.6731 67.2174 24.156 68.1986C23.7104 69.0529 23.3634 69.9573 23.1219 70.8936C22.7701 72.2466 22.582 73.6386 22.5619 75.0384C22.5526 75.5331 22.5619 75.919 22.5825 76.1845C22.5825 76.3143 22.5974 76.4137 22.6049 76.4805C22.6123 76.5474 22.6198 76.5798 22.6198 76.5798C22.6231 76.5462 22.6231 76.5123 22.6198 76.4786C22.6198 76.4079 22.6198 76.3105 22.6049 76.1826C22.6049 75.9228 22.5881 75.5389 22.6049 75.0461C22.6391 73.6508 22.8353 72.2645 23.1891 70.9166C23.4354 69.9877 23.7842 69.0906 24.2288 68.2425C24.746 67.2719 25.4295 66.4043 26.2467 65.6811L26.4072 65.536C26.4632 65.4901 26.5229 65.45 26.5789 65.4042L26.9298 65.1425C27.1669 64.9725 27.4282 64.8293 27.6765 64.6707C27.9472 64.5428 28.2122 64.3957 28.4941 64.2887L28.9234 64.1264L29.1399 64.0461C29.2127 64.0194 29.2893 64.0022 29.3639 63.9812C30.5957 63.6258 31.8743 63.4698 33.1532 63.519C34.4343 63.5218 35.7043 63.7625 36.9014 64.2295C38.0148 64.671 39.017 65.363 39.8339 66.2542C40.5676 67.064 41.1661 67.992 41.6053 69.0008C41.9857 69.8808 42.2808 70.797 42.4864 71.736C42.7826 73.0981 42.9427 74.4874 42.9642 75.8827C42.9735 76.3774 42.9642 76.7613 42.9549 77.0287C42.9549 77.1567 42.9549 77.2541 42.9418 77.3248C42.9288 77.3954 42.9437 77.4183 42.9437 77.4183Z" fill="#263238"/>
            <path d="M32.2014 54.6373C32.2014 54.6373 36.0616 58.0754 37.7341 58.0754C39.4066 58.0754 83.4871 60.8106 85.4489 59.9988C86.4825 59.5923 87.4814 59.0991 88.4355 58.5242C88.4355 58.5242 74.0513 47.9235 57.2889 48.4316C44.9841 48.804 32.2014 54.6373 32.2014 54.6373Z" fill="#455A64"/>
            <path d="M79.5316 53.4626L82.4435 60.1477L83.9219 60.1458L81.5158 54.4233L79.5316 53.4626Z" fill="#263238"/>
            <g opacity="0.3">
                <path opacity="0.3" d="M42.7842 63.2426L48.0107 63.2342L48.0091 62.1664C48.009 62.1021 47.9839 62.0404 47.9394 61.995C47.8949 61.9496 47.8345 61.9241 47.7717 61.9243L43.0192 61.9319C42.9564 61.932 42.8961 61.9576 42.8517 62.0032C42.8073 62.0488 42.7824 62.1105 42.7825 62.1748L42.7842 63.233L42.7842 63.2426Z" fill="black"/>
            </g>
            <g opacity="0.3">
                <path opacity="0.3" d="M63.1552 63.2104L68.3817 63.202L68.3801 62.1438C68.38 62.0795 68.355 62.0178 68.3104 61.9724C68.2659 61.927 68.2056 61.9015 68.1427 61.9016L63.3884 61.9093C63.3255 61.9094 63.2653 61.935 63.2209 61.9806C63.1765 62.0261 63.1516 62.0879 63.1517 62.1522L63.1533 63.2104L63.1552 63.2104Z" fill="black"/>
            </g>
            <path d="M45.0622 50.269L40.4983 58.2052L44.7505 58.4383L44.2017 54.6201L46.9941 49.8106L45.0622 50.269Z" fill="#263238"/>
            <path d="M61.7009 48.5442L62.4121 59.3856L60.8609 59.3073L60.1908 48.4468L61.7009 48.5442Z" fill="#263238"/>
            <path d="M81.5656 61.7865L80.9029 61.0855L81.9576 59.7122L82.8647 60.6004C82.9997 60.718 83.0836 60.8856 83.0981 61.0664C83.225 61.9202 82.1517 62.4054 81.5656 61.7865Z" fill="#263238"/>
            <path d="M78.8855 61.5287C77.2746 61.5841 76.0072 59.9032 76.6773 58.4019C76.7469 58.219 76.8611 58.0575 77.0092 57.9327C77.1572 57.808 77.3341 57.7242 77.5229 57.6895C79.2029 57.3896 81.3775 57.2788 81.9636 59.7122C82.1353 60.4323 81.7415 60.8774 81.0975 61.1467C80.4852 61.4026 79.6583 61.5 78.8855 61.5287Z" fill="#00B3CB"/>
            <path d="M89.1355 74.5081C88.8537 70.3439 91.9244 66.7345 95.994 66.4462C100.064 66.1579 103.591 69.3 103.873 73.4642C104.154 77.6284 101.084 81.2379 97.0142 81.5262C92.9446 81.8144 89.4172 78.6724 89.1355 74.5081Z" fill="#263238"/>
            <path d="M96.4972 68.9492C97.4705 68.9466 98.4227 69.2394 99.2334 69.7906C100.044 70.3418 100.677 71.1267 101.051 72.0459C101.426 72.9651 101.526 73.9773 101.338 74.9546C101.151 75.9319 100.684 76.8303 99.9974 77.5362C99.3107 78.242 98.4349 78.7236 97.4807 78.9201C96.5265 79.1165 95.5368 79.0189 94.6367 78.6397C93.7367 78.2605 92.9669 77.6167 92.4245 76.7897C91.8821 75.9626 91.5916 74.9896 91.5898 73.9937C91.5883 73.3327 91.7141 72.678 91.9599 72.0668C92.2057 71.4555 92.5668 70.8999 93.0225 70.4315C93.4782 69.963 94.0196 69.591 94.6158 69.3367C95.2119 69.0824 95.8512 68.9507 96.4972 68.9492ZM100.445 73.9803C100.444 73.1828 100.212 72.4036 99.7779 71.7411C99.344 71.0787 98.7279 70.5628 98.0074 70.2587C97.287 69.9545 96.4946 69.8758 95.7304 70.0325C94.9662 70.1892 94.2647 70.5743 93.7144 71.139C93.1641 71.7037 92.7898 72.4226 92.6388 73.205C92.4878 73.9874 92.567 74.798 92.8663 75.5343C93.1655 76.2707 93.6715 76.8997 94.3201 77.3418C94.9687 77.7839 95.7309 78.0192 96.5102 78.0181C97.5547 78.0146 98.5552 77.5877 99.2927 76.8309C100.03 76.0741 100.445 75.0491 100.445 73.9803Z" fill="#E0E0E0"/>
            <path d="M96.4986 69.9462C97.2787 69.9444 98.0418 70.1792 98.6915 70.6211C99.3411 71.063 99.8481 71.6921 100.148 72.4289C100.449 73.1656 100.529 73.9769 100.378 74.7602C100.228 75.5434 99.8538 76.2634 99.3035 76.8292C98.7532 77.395 98.0513 77.7811 97.2866 77.9386C96.5218 78.0962 95.7286 78.0182 95.0072 77.7145C94.2858 77.4108 93.6686 76.895 93.2337 76.2323C92.7988 75.5697 92.5656 74.7899 92.5638 73.9917C92.5623 72.9216 92.9758 71.8947 93.7135 71.1362C94.4512 70.3777 95.4529 69.9498 96.4986 69.9462Z" fill="#F5F5F5"/>
            <path d="M97.6689 73.9975C97.6693 74.2332 97.6014 74.4637 97.4737 74.6599C97.346 74.8561 97.1643 75.0092 96.9516 75.0998C96.7389 75.1903 96.5048 75.2143 96.2788 75.1687C96.0527 75.1231 95.845 75.0099 95.6819 74.8435C95.5187 74.6771 95.4074 74.4649 95.3621 74.2338C95.3168 74.0026 95.3395 73.7629 95.4273 73.545C95.5152 73.3271 95.6642 73.1407 95.8555 73.0094C96.0468 72.8781 96.2719 72.8079 96.5023 72.8075C96.6553 72.8072 96.8068 72.8378 96.9482 72.8975C97.0896 72.9572 97.2181 73.0447 97.3265 73.1552C97.4348 73.2657 97.5208 73.397 97.5796 73.5415C97.6383 73.686 97.6687 73.8409 97.6689 73.9975Z" fill="#263238"/>
            <path d="M27.7298 79.5983C24.8453 76.6467 24.8453 71.8612 27.7298 68.9096C30.6143 65.958 35.291 65.958 38.1756 68.9096C41.0601 71.8612 41.0601 76.6467 38.1756 79.5983C35.291 82.5499 30.6143 82.5499 27.7298 79.5983Z" fill="#263238"/>
            <path d="M32.9454 69.2185C33.9187 69.2159 34.8708 69.5086 35.6814 70.0598C36.4921 70.6109 37.1248 71.3956 37.4995 72.3147C37.8743 73.2338 37.9742 74.246 37.7868 75.2232C37.5993 76.2004 37.1328 77.0988 36.4463 77.8048C35.7598 78.5107 34.8842 78.9925 33.9301 79.1891C32.976 79.3858 31.9863 79.2885 31.0863 78.9095C30.1862 78.5306 29.4162 77.8871 28.8736 77.0603C28.331 76.2336 28.0403 75.2607 28.038 74.2649C28.0351 72.9299 28.5504 71.6483 29.4706 70.702C30.3909 69.7557 31.6408 69.2221 32.9454 69.2185ZM36.8859 74.2515C36.8851 73.4533 36.6529 72.6733 36.2185 72.0102C35.7842 71.3472 35.1673 70.831 34.446 70.5271C33.7247 70.2231 32.9315 70.145 32.1668 70.3028C31.4021 70.4605 30.7004 70.8469 30.1505 71.413C29.6006 71.9792 29.2273 72.6996 29.0779 73.483C28.9285 74.2665 29.0097 75.0776 29.3112 75.8138C29.6127 76.55 30.1209 77.178 30.7716 77.6184C31.4222 78.0587 32.1859 78.2916 32.9659 78.2874C34.0076 78.2803 35.0044 77.8521 35.7387 77.096C36.473 76.34 36.8854 75.3174 36.8859 74.2515Z" fill="#E0E0E0"/>
            <path d="M32.9479 70.2175C33.7281 70.2152 34.4914 70.4498 35.1413 70.8914C35.7912 71.3331 36.2984 71.9621 36.599 72.6988C36.8995 73.4355 36.9797 74.2468 36.8296 75.0302C36.6794 75.8136 36.3056 76.5338 35.7553 77.0998C35.2051 77.6657 34.5032 78.052 33.7384 78.2097C32.9737 78.3675 32.1803 78.2896 31.4588 77.9859C30.7373 77.6823 30.12 77.1665 29.685 76.5038C29.25 75.8411 29.0168 75.0613 29.0149 74.263C29.013 73.193 29.426 72.1661 30.1635 71.4076C30.9009 70.6491 31.9023 70.221 32.9479 70.2175Z" fill="#F5F5F5"/>
            <path d="M34.1182 74.2763C34.1185 74.5121 34.0505 74.7428 33.9228 74.939C33.795 75.1353 33.6132 75.2883 33.4004 75.3788C33.1876 75.4693 32.9534 75.4932 32.7273 75.4474C32.5012 75.4017 32.2935 75.2883 32.1304 75.1217C31.9673 74.9551 31.8562 74.7427 31.8111 74.5115C31.766 74.2802 31.789 74.0405 31.8771 73.8226C31.9652 73.6047 32.1145 73.4184 32.3061 73.2874C32.4977 73.1563 32.7229 73.0864 32.9534 73.0864C33.262 73.0864 33.558 73.2117 33.7763 73.4348C33.9947 73.6579 34.1177 73.9606 34.1182 74.2763Z" fill="#263238"/>
            <path d="M29.4551 60.0542C29.4581 60.2865 29.5284 60.5128 29.657 60.7043C29.7857 60.8958 29.967 61.0439 30.178 61.13C30.389 61.216 30.6202 61.2361 30.8423 61.1876C31.0644 61.1392 31.2675 61.0244 31.4259 60.8578C31.5842 60.6912 31.6908 60.4803 31.7319 60.2518C31.7731 60.0232 31.7471 59.7873 31.6573 59.5739C31.5674 59.3604 31.4176 59.1791 31.227 59.0528C31.0364 58.9264 30.8134 58.8608 30.5863 58.8642C30.2822 58.8687 29.9922 58.9966 29.7801 59.2197C29.568 59.4428 29.4511 59.7429 29.4551 60.0542Z" fill="#263238"/>
            <path d="M42.971 74.7538H43.0812H43.4078L44.6622 74.7787L49.2728 74.8551L64.4877 75.0461C70.4311 75.1091 75.8125 75.1492 79.7063 75.1549C81.6532 75.1549 83.2305 75.1549 84.3188 75.1358C85.407 75.1167 86.0137 75.0919 85.9988 75.0556C85.8556 75.0792 85.7106 75.0888 85.5657 75.0843C85.2801 75.0843 84.8564 75.0957 84.3132 75.0976C83.2249 75.0976 81.6476 75.0976 79.7007 75.0862L64.484 74.9448L49.2691 74.7806L44.6566 74.7366H43.4022H43.0756L42.971 74.7538Z" fill="#263238"/>
            <path d="M61.8038 77.382C61.8318 77.382 61.8038 73.371 61.7273 68.4316C61.6508 63.4922 61.578 59.4792 61.5518 59.4811C61.5257 59.4831 61.5518 63.4922 61.6302 68.4316C61.7086 73.371 61.7777 77.382 61.8038 77.382Z" fill="#263238"/>
            <path d="M51.5616 51.5946C51.5448 51.6156 52.7488 52.7406 54.2514 54.1082C55.754 55.4758 56.986 56.5664 57.0047 56.5454C57.0233 56.5244 55.8175 55.3994 54.3149 54.0337C52.8122 52.668 51.5802 51.5755 51.5616 51.5946Z" fill="#F5F5F5"/>
            <path d="M52.1536 53.7606C52.2112 53.8288 52.2736 53.8927 52.3403 53.9516C52.4635 54.0719 52.6446 54.2419 52.8723 54.4482C53.3259 54.8646 53.9605 55.4261 54.6773 56.0297C55.3941 56.6333 56.0567 57.1643 56.5439 57.5405C56.7866 57.7315 56.9845 57.8767 57.1226 57.9779C57.1919 58.0346 57.2663 58.0845 57.3447 58.1269C57.2842 58.0611 57.218 58.001 57.1469 57.9474L56.5869 57.4851C56.1128 57.1031 55.4669 56.5569 54.7408 55.9571C54.0147 55.3574 53.3837 54.7996 52.9189 54.3985L52.359 53.9267C52.2965 53.864 52.2277 53.8083 52.1536 53.7606Z" fill="#F5F5F5"/>
            <path d="M67.3405 51.8333C67.3255 51.8562 69.082 53.1092 71.2604 54.6334C73.4388 56.1577 75.2233 57.3744 75.2382 57.3514C75.2531 57.3285 73.4985 56.0755 71.3183 54.5513C69.138 53.0271 67.3554 51.8104 67.3405 51.8333Z" fill="#F5F5F5"/>
            <path d="M65.7051 51.757C65.7747 51.8274 65.8503 51.8913 65.931 51.948L66.5656 52.4484L68.6619 54.0948L70.7394 55.7661L71.3685 56.2742C71.4428 56.34 71.5228 56.3988 71.6074 56.4499C71.5416 56.3752 71.4698 56.3062 71.3928 56.2436C71.2509 56.1157 71.0418 55.9342 70.7824 55.7107C70.2634 55.2676 69.5373 54.664 68.7291 54.0165C67.9208 53.369 67.163 52.796 66.6142 52.3911C66.3398 52.1886 66.1158 52.0282 65.959 51.9193C65.8794 51.8574 65.7944 51.8031 65.7051 51.757Z" fill="#F5F5F5"/>
            <path d="M92.0603 57.2521C92.0771 57.2585 92.0947 57.2623 92.1125 57.2636L92.2619 57.2865L92.8405 57.3667C93.3427 57.4374 94.0688 57.5424 94.961 57.6991C97.2884 58.1075 99.5879 58.6683 101.845 59.378C103.167 59.7944 104.408 60.2432 105.524 60.6883C106.519 61.0639 107.488 61.5067 108.425 62.0138C109.054 62.3598 109.638 62.7866 110.161 63.284C110.256 63.37 110.333 63.454 110.4 63.5247C110.467 63.5954 110.525 63.6584 110.568 63.7157L110.671 63.8303C110.682 63.8438 110.693 63.8566 110.706 63.8685C110.706 63.8685 110.706 63.8513 110.678 63.8246L110.583 63.7023C110.542 63.6488 110.49 63.5839 110.422 63.5113C110.355 63.4387 110.28 63.3509 110.187 63.2611C109.67 62.7501 109.089 62.312 108.459 61.9585C107.523 61.4407 106.553 60.9901 105.556 60.61C104.436 60.1592 103.197 59.7046 101.873 59.2901C99.6137 58.5781 97.3093 58.0254 94.976 57.636C94.08 57.489 93.352 57.3935 92.848 57.3342L92.2675 57.2731L92.1163 57.2598C92.0982 57.2538 92.0792 57.2513 92.0603 57.2521Z" fill="#F5F5F5"/>
            <path d="M45.5697 47.3046H45.6462L45.8721 47.2664L46.7345 47.1136C47.4811 46.9838 48.5712 46.808 49.9208 46.6419C53.4364 46.195 56.9864 46.1029 60.5195 46.3668C64.6579 46.6992 68.3389 47.5434 70.9727 48.2043C72.2924 48.5404 73.3545 48.8327 74.0881 49.039L74.9337 49.2739L75.1539 49.3331C75.1788 49.3416 75.2044 49.3473 75.2305 49.3503C75.2066 49.3387 75.1815 49.3297 75.1558 49.3235L74.9393 49.2548L74.0993 49.0008C73.3676 48.783 72.3073 48.4793 70.9895 48.1355C68.3538 47.4574 64.6709 46.6075 60.5233 46.2675C56.9845 46.0014 53.4284 46.1031 49.9096 46.5712C48.5582 46.7469 47.4718 46.9341 46.7233 47.0754C46.35 47.1442 46.0606 47.2072 45.8646 47.2454L45.6406 47.2932C45.6167 47.2945 45.5929 47.2983 45.5697 47.3046Z" fill="#F5F5F5"/>
            <path d="M76.9049 58.232C76.9869 58.2308 77.0687 58.2225 77.1494 58.2072C77.3043 58.1881 77.5227 58.1594 77.8083 58.146C78.5354 58.1015 79.2646 58.1809 79.9662 58.381C80.3485 58.4953 80.7076 58.679 81.0264 58.9234C81.2842 59.1254 81.4999 59.378 81.6611 59.6664C81.806 59.9363 81.8998 60.2319 81.9373 60.5374C81.9373 60.5374 81.9373 60.5145 81.9373 60.4725C81.9384 60.4086 81.9346 60.3448 81.9261 60.2815C81.8939 60.053 81.8232 59.832 81.7171 59.6282C81.5587 59.3253 81.3407 59.0593 81.0768 58.847C80.7519 58.5887 80.3829 58.3944 79.9886 58.274C79.2769 58.0704 78.5353 57.9992 77.799 58.0639C77.5765 58.0813 77.3552 58.1126 77.1363 58.1575C77.0568 58.1738 76.9792 58.1987 76.9049 58.232Z" fill="#F5F5F5"/>
            <path d="M63.2205 60.8239C63.2205 60.8525 65.9346 61.0397 69.2852 61.2441C72.6358 61.4485 75.3536 61.5917 75.3555 61.565C75.3573 61.5382 72.6433 61.3491 69.2908 61.1448C65.9383 60.9404 63.2224 60.7971 63.2205 60.8239Z" fill="#F5F5F5"/>
            <path d="M93.7586 63.1312C93.7747 63.133 93.791 63.133 93.8071 63.1312L93.9434 63.1007C94.0628 63.0777 94.2346 63.0223 94.4642 62.9861C95.1076 62.8637 95.7604 62.7998 96.4148 62.7951C97.3847 62.7767 98.3533 62.8754 99.3006 63.0892C100.465 63.3324 101.576 63.7934 102.577 64.4491C103.558 65.1344 104.404 66.0034 105.07 67.0105C105.616 67.8312 106.044 68.7279 106.34 69.6731C106.54 70.3105 106.675 70.9671 106.745 71.6328C106.78 71.8677 106.778 72.053 106.791 72.1772L106.803 72.3185C106.801 72.335 106.801 72.3517 106.803 72.3682C106.805 72.3517 106.805 72.3349 106.803 72.3185V72.1772C106.803 72.0511 106.803 71.8658 106.775 71.629C106.72 70.9582 106.595 70.2954 106.401 69.6521C106.112 68.6963 105.687 67.7889 105.141 66.9589C104.476 65.9304 103.623 65.0426 102.629 64.3441C101.619 63.681 100.497 63.2171 99.3211 62.9765C98.3659 62.7665 97.3896 62.6741 96.4129 62.7015C95.7552 62.7154 95.1002 62.7928 94.4567 62.9326C94.2271 62.9746 94.0572 63.0376 93.9378 63.0663L93.8034 63.1064L93.7586 63.1312Z" fill="#F5F5F5"/>
        </g>
        <defs>
            <clipPath id="clip0_193_575">
                <rect width="99" height="36" fill="white" transform="translate(14 46)"/>
            </clipPath>
        </defs>
    </symbol>

    <symbol id="diabetic" width="127" height="127" viewBox="0 0 127 127" fill="none" xmlns="http://www.w3.org/2000/svg">
        <rect width="127" height="127" rx="38" fill="#F9F9F9"/>
        <path d="M82.6749 41.8379L79.6375 44.3491C79.6375 44.3491 79.5229 44.4607 79.2937 44.1817C79.0644 43.9026 79.179 43.791 79.179 43.791L82.2164 41.2799L82.6749 41.8379Z" fill="#CFCFCF"/>
        <path d="M81.9297 42.3959C81.9297 42.3959 80.1532 43.8468 79.6374 44.2932C79.5801 44.349 79.2362 44.1258 79.2935 44.1258C79.4081 44.1258 79.4655 44.2932 79.6374 44.1258C80.1532 43.6794 81.8724 42.3401 81.8724 42.3401L81.9297 42.3959Z" fill="#CFCFCF"/>
        <path d="M99.9247 53.7239C95.7985 48.9248 93.2769 46.0231 91.6723 44.1258C90.1822 42.3959 89.1507 41.8937 88.1764 42.1727C88.1764 42.1727 88.1764 42.2285 88.1764 42.2843C88.1191 42.2843 83.5917 45.9673 83.5917 46.0231C83.5344 46.0231 83.4771 46.0231 83.4771 46.0231C83.0187 47.0833 83.4198 48.032 84.8525 49.7061C86.4572 51.6034 88.9214 54.4493 93.105 59.3041C93.9646 60.3086 100.784 54.7283 99.9247 53.7239Z" fill="#E4E4E4"/>
        <path d="M92.3597 57.2952C85.3107 49.0923 84.3938 48.5342 84.5084 46.5253C84.1072 46.6927 83.7634 46.5811 83.5915 46.7486C82.7891 47.5298 90.6404 56.0118 93.1047 58.9135C93.6205 59.5273 95.1105 58.6903 97.1736 56.8488C95.0532 58.2997 93.7351 58.8577 92.3597 57.2952Z" fill="#B3B3B3"/>
        <path d="M83.4771 41.3357C80.3825 43.8468 81.1848 44.9628 84.3368 42.3401C83.0187 43.4004 81.7579 44.0142 81.5286 43.791C81.5286 43.791 81.6432 43.9026 83.4771 46.0231C85.0245 45.6883 87.546 43.7352 88.2337 42.1727C87.4887 41.3357 87.0303 40.7777 86.2853 39.9406C85.9987 39.6616 84.7379 40.2754 83.4771 41.3357Z" fill="#CFCFCF"/>
        <path d="M84.2798 45.4093C82.4459 43.2888 82.3313 43.1772 82.3313 43.1772C82.2167 43.0098 82.3886 42.3959 83.8786 41.0567C83.764 41.1683 83.5921 41.2799 83.4775 41.3915C81.6436 42.8982 81.3571 43.6794 81.5863 43.8468C81.7009 43.9584 81.6436 43.9584 83.4775 46.0789C84.3944 46.0231 85.6552 45.1303 86.6868 44.1816C85.7698 44.7954 84.9675 45.3535 84.2798 45.4093Z" fill="#CFCFCF"/>
        <path d="M82.5029 40.2754C80.7837 41.6705 81.2421 42.2285 82.9614 40.8335C82.2737 41.3915 81.586 41.7821 81.4141 41.6147C81.4141 41.6147 81.4714 41.6705 82.4456 42.8424C83.3052 42.7866 84.8526 41.6147 85.0245 40.7219C84.6233 40.2754 84.3368 39.9406 83.993 39.4942C83.8783 39.3268 83.1906 39.6616 82.5029 40.2754Z" fill="#CFCFCF"/>
        <path d="M82.9619 42.4518C81.9303 41.2799 81.9303 41.2241 81.9303 41.2241C81.873 41.1125 81.9303 40.7777 82.7899 40.0522C82.7326 40.108 82.618 40.1638 82.5607 40.2196C81.5864 41.0567 81.4145 41.4473 81.5291 41.5589C81.5864 41.6147 81.5864 41.6147 82.5607 42.7866C83.0765 42.7308 83.7642 42.3401 84.3373 41.8379C83.8215 42.1727 83.3057 42.4518 82.9619 42.4518Z" fill="#CFCFCF"/>
        <path d="M88.3449 68.7471C87.6439 70.9388 85.7939 73.9144 83.184 76.8272L80.0945 80.3733C80.0945 80.3733 79.5328 80.8483 79.697 81.1646C79.8697 81.5363 79.9262 81.5283 80.2428 81.71C80.4858 81.789 80.6809 81.9312 80.876 82.0735C82.2106 83.2434 81.9561 85.7117 80.235 87.6509C78.5139 89.5902 76.023 90.2801 74.6884 89.1102C73.3538 87.9403 73.6083 85.472 75.3294 83.5328C75.9219 82.8837 76.9067 81.7835 76.9067 81.7835L88.3449 68.7471ZM75.5208 88.1445C76.5132 88.9666 78.2867 88.4907 79.5677 87.066C80.7922 85.6491 81.0275 83.8058 80.0351 82.9838C79.0427 82.1618 77.2692 82.6376 75.9882 84.0623C74.7637 85.4792 74.5283 87.3225 75.5208 88.1445Z" fill="#CCC6C7"/>
        <path d="M83.4358 74.3127L88.3489 68.6918C86.2539 69.7233 83.5295 71.9198 80.9246 74.8928L77.831 78.4444C77.831 78.4444 77.4074 79.0706 77.0424 78.952C76.6208 78.8414 76.6123 78.7859 76.4479 78.4691C76.3005 78.2632 76.1618 78.1128 75.9579 77.9148C74.6215 76.7431 72.1274 77.4341 70.404 79.3764C68.6806 81.3188 68.3778 83.8544 69.7622 84.9627C71.0986 86.1345 73.5927 85.4435 75.3161 83.5011C75.9094 82.851 76.8954 81.749 76.8954 81.749L81.2237 76.8338C81.8182 77.3167 82.7798 77.1813 83.3646 76.4758C84.0059 75.7623 84.0304 74.7956 83.4358 74.3127ZM70.6042 84.051C69.6104 83.2276 69.8461 81.3814 71.0722 79.9623C72.2983 78.5432 74.1307 78.0587 75.1245 78.882C76.1182 79.7054 75.8826 81.5516 74.6565 82.9707C73.4303 84.3898 71.5979 84.8743 70.6042 84.051Z" fill="#EAE3E4"/>
        <path d="M82.7739 75.9313C82.5255 76.1926 82.1385 76.3037 81.8697 76.0585C81.6095 75.8688 81.6628 75.4652 81.9027 75.1485C82.1511 74.8872 82.5381 74.7761 82.8068 75.0213C83.0191 75.2743 83.0223 75.67 82.7739 75.9313Z" fill="#787475"/>
        <path d="M37.2009 73.0445C37.3729 72.2074 36.6852 71.3704 35.7109 71.203C35.2524 71.1472 34.8513 71.203 34.5074 71.3146L32.5016 70.924L32.9028 68.9151L34.9086 69.3057C35.1951 69.5847 35.539 69.8079 35.9975 69.8637C36.9717 70.0311 37.9459 69.5289 38.0606 68.6919C38.2325 67.8548 37.5448 67.0178 36.5705 66.8504C36.1121 66.7946 35.7109 66.8504 35.3671 66.962L33.3613 66.5713L33.7624 64.5625L35.7682 64.9531C36.0548 65.2321 36.3986 65.4553 36.8571 65.5111C37.8313 65.6785 38.8056 65.1763 38.9202 64.3392C39.0921 63.5022 38.4044 62.6652 37.4302 62.4978C36.9717 62.442 36.5705 62.4978 36.2267 62.6094L34.2209 62.2187L34.622 60.2098L36.6278 60.6005C36.9144 60.8795 37.2582 61.1027 37.7167 61.1585C38.691 61.3259 39.6652 60.8237 39.7798 59.9866C39.9518 59.1496 39.264 58.3126 38.2898 58.1452C37.8313 58.0894 37.4302 58.1452 37.0863 58.2568L35.0805 57.8661L35.4817 55.8014L37.4875 56.1921C37.774 56.4711 38.1179 56.6943 38.5763 56.7501C39.5506 56.9175 40.5248 56.4153 40.6395 55.5782C40.8114 54.7412 40.7541 54.9644 40.8687 54.4064C40.4102 54.3506 35.8828 53.4577 35.8828 53.4577L30.897 52.5091L27 72.319L31.9859 73.2677C31.9859 73.2677 36.5132 74.1047 36.9717 74.2163C37.0863 73.6583 37.029 73.8815 37.2009 73.0445Z" fill="#01CDE9"/>
        <path d="M37.2012 73.0445C37.3732 72.2074 36.6855 71.3704 35.7112 71.203C35.2528 71.1472 34.8516 71.203 34.5077 71.3146L32.5019 70.924L32.9031 68.9151L33.8773 69.0825C31.8142 67.2968 30.095 64.6183 29.178 61.4375L27.0576 72.3748L32.0435 73.3235C32.0435 73.3235 36.5709 74.1605 37.0293 74.2721C37.0866 73.6583 37.0293 73.8815 37.2012 73.0445Z" fill="#01CDE9"/>
        <path d="M71.0703 23.8265C74.3942 23.8265 77.7754 28.793 77.7754 33.1456C77.7754 38.6142 75.9415 38.2236 75.9415 42.0182C75.9415 45.8686 76.2281 46.4266 75.5977 50.1654C74.9673 54.0157 63.7348 68.0222 63.7348 77.4529C63.7348 87.8879 64.4798 88.8924 64.4798 95.0865C64.4798 98.7136 60.5828 103.345 56.9724 103.68C53.2473 104.015 44.8229 103.289 44.8229 91.7941C44.8229 78.9037 43.6768 76.3368 43.6768 71.5378C43.6768 66.7388 44.7656 61.3259 44.7656 58.759C44.7656 56.1921 44.5937 54.797 44.5937 53.1229C44.5937 51.4488 46.0837 48.8819 46.0837 47.3752C46.0837 45.8686 44.9375 38.2236 47.9176 38.2236C49.0065 38.2236 49.6942 38.5026 49.6942 38.5026C49.6942 38.5026 49.6369 34.2058 52.9608 34.2058C53.8777 34.2058 54.1069 34.3174 54.1069 34.3174C54.1069 34.3174 53.7058 30.7461 57.0297 30.7461C58.4624 30.7461 58.8635 30.9135 58.8635 30.9135C58.8635 30.9135 57.5454 26.226 61.3851 26.226C65.2248 26.226 64.8236 29.63 64.8236 31.8063C64.8236 33.9826 64.4225 36.2147 64.7663 37.3866C65.1102 38.6142 65.9698 38.8932 66.7721 38.8932C67.5745 38.8932 67.8037 36.6611 67.8037 35.6567C67.8037 34.6522 67.4025 33.3688 67.4025 31.8621C67.4025 30.467 65.454 23.8265 71.0703 23.8265Z" fill="#FFCCA7"/>
        <path d="M75.9411 42.0182C75.9411 38.1679 77.775 38.6143 77.775 33.1456C77.775 32.6992 77.7177 32.3086 77.6604 31.8622C77.3738 35.9357 75.8838 35.9357 75.8838 39.3955C75.8838 40.8464 75.9411 41.795 75.9411 42.6879C75.9411 42.4646 75.9411 42.2414 75.9411 42.0182Z" fill="#EFA885"/>
        <path d="M64.7087 34.5965C64.7661 33.7036 64.8234 32.755 64.8234 31.8063C64.8234 31.0251 64.8807 30.1323 64.7661 29.2952C64.7661 31.3041 64.4222 33.4246 64.7087 34.5965Z" fill="#EFA885"/>
        <path d="M67.4028 31.918C67.4028 32.8108 67.5747 33.6478 67.6894 34.3733C67.7467 33.871 67.804 33.3688 67.804 33.034C67.804 32.0296 67.4028 30.7461 67.4028 29.2394C67.4028 28.8488 67.2882 28.1792 67.1736 27.3421C66.887 29.1836 67.4028 31.1925 67.4028 31.918Z" fill="#EFA885"/>
        <path d="M44.7656 56.1921C44.7656 54.8528 44.7083 53.8483 44.7083 52.9555C44.7083 53.0113 44.7083 53.1229 44.7083 53.1787C44.651 54.1832 44.7083 55.076 44.7656 56.1921Z" fill="#EFA885"/>
        <path d="M75.5406 47.5427C74.9102 51.3931 63.6777 65.3437 63.6777 74.8302C63.6777 76.7275 63.6777 78.2899 63.735 79.6292C63.735 78.9596 63.735 78.2341 63.735 77.5087C63.735 68.078 75.0248 54.0716 75.5979 50.2212C76.1137 46.9289 75.9991 46.0918 75.9418 43.2459C75.9418 44.4177 75.8845 45.5338 75.5406 47.5427Z" fill="#EFA885"/>
        <path d="M46.0267 45.4221C46.084 45.1989 46.084 44.9757 46.084 44.7525C46.084 44.3061 45.9694 43.4132 45.9121 42.353C45.9121 43.4132 45.9694 44.4735 46.0267 45.4221Z" fill="#EFA885"/>
        <path d="M64.4228 92.4638C64.4228 96.091 60.6977 101.057 56.9154 101.057C53.3622 101.057 45.4536 100.723 44.8232 90.5665C44.8232 90.9571 44.8232 91.4035 44.8232 91.85C44.8232 103.345 53.2476 104.127 56.9727 103.736C60.6977 103.345 64.4801 98.7695 64.4801 95.1423C64.4801 94.1379 64.4801 93.245 64.4228 92.4638Z" fill="#EFA885"/>
        <path d="M43.6768 70.8682C43.6768 71.0914 43.6768 71.3704 43.6768 71.5936C43.6768 75.723 44.5364 78.1783 44.7656 86.8835C44.651 77.5645 43.906 74.3837 43.6768 70.8682Z" fill="#EFA885"/>
        <path d="M58.8057 28.2908C58.8057 28.2908 58.8057 28.235 58.749 28.1234C58.749 28.1792 58.749 28.1792 58.749 28.235C58.8057 28.2908 58.8057 28.2908 58.8057 28.2908Z" fill="#EFA885"/>
        <path d="M59.0918 38.0004C58.9199 37.4424 60.1234 35.8799 60.1234 34.3175C60.1234 32.755 59.2638 31.0251 58.9199 30.9693C59.493 31.0251 60.0088 32.0854 60.1234 32.476C60.238 32.8666 60.6392 35.0429 59.8942 37.1634C59.6649 37.7772 59.0918 38.0004 59.0918 38.0004Z" fill="#FFB595"/>
        <path d="M54.9661 41.0696C54.8515 40.6789 54.9661 40.2325 55.0807 39.8977C55.1953 39.5629 55.7111 38.5026 55.5965 37.0518C55.4819 35.6009 54.9088 34.8197 54.1064 34.3174C54.5076 34.429 54.7941 34.4848 55.0807 34.8197C55.4245 35.2103 56.0549 36.4379 55.9403 37.6098C55.9403 38.2794 55.9403 41.0696 54.9661 41.0696Z" fill="#FFB595"/>
        <path d="M50.8971 45.0874C50.8971 44.6968 51.6995 43.1901 51.6995 41.516C51.6995 39.8419 50.0375 38.6143 49.751 38.5027C50.496 38.6143 50.6679 38.7259 51.241 39.2281C51.6422 39.6187 52.1579 40.5116 52.1579 41.9624C52.1579 42.9111 52.0433 43.8597 51.9287 44.0829C51.7568 44.3061 50.8971 45.0874 50.8971 45.0874Z" fill="#FFB595"/>
        <path d="M67.6887 34.5965C68.1472 35.4335 69.7518 39.0049 68.0899 39.0607C67.3449 39.0607 66.8864 38.9491 66.8291 38.8933C67.001 38.8375 67.0583 38.7817 67.2303 38.6143C67.746 38.112 67.918 35.3219 67.6887 34.5965Z" fill="#EFA885"/>
        <path d="M60.0666 58.7032C57.7742 60.3772 51.8141 63.6138 52.9603 78.5689C53.3042 83.3121 53.3042 79.1827 54.3357 74.0489C56.6854 62.2187 62.5309 56.8617 60.0666 58.7032Z" fill="#EFA885"/>
        <path d="M66.1409 52.0069C67.0005 53.1229 69.5794 54.8528 73.4191 52.1743C74.9091 51.114 74.9664 54.0715 70.611 54.0715C66.5994 54.0715 65.6824 51.4488 66.1409 52.0069Z" fill="#EFA885"/>
        <path d="M50.8398 48.7703C52.1579 45.8128 58.4619 41.516 61.4992 40.9021C64.1927 40.3441 62.76 40.1767 62.3016 40.2325C60.3531 40.3441 57.373 40.9579 55.5964 42.1856C52.9029 44.0271 51.6422 45.6454 50.9544 47.2078C50.2094 48.7703 50.496 49.4957 50.8398 48.7703Z" fill="#EFA885"/>
        <path d="M64.8518 45.1473C65.7115 46.8214 65.4249 48.6629 64.2214 49.2209C63.0179 49.8347 61.356 48.9419 60.4964 47.2678C59.6367 45.5937 59.9233 43.7522 61.1268 43.1942C62.3302 42.5804 63.9922 43.4732 64.8518 45.1473Z" fill="#7E4B4B"/>
        <path d="M64.2203 48.4396C63.0169 49.0535 61.3549 48.1606 60.4953 46.4865C60.2087 45.9843 60.0941 45.4263 60.0368 44.9241C59.9222 45.6495 60.0941 46.4865 60.4953 47.3236C61.3549 48.9977 63.0169 49.8905 64.2203 49.2767C65.08 48.8861 65.4238 47.8816 65.3092 46.7098C65.2519 47.491 64.8507 48.1048 64.2203 48.4396Z" fill="#702323"/>
        <mask id="mask0_193_740" style="mask-type:alpha" maskUnits="userSpaceOnUse" x="79" y="39" width="21" height="21">
            <path d="M82.6749 41.8379L79.6375 44.3491C79.6375 44.3491 79.5229 44.4607 79.2937 44.1817C79.0644 43.9026 79.179 43.791 79.179 43.791L82.2164 41.2799L82.6749 41.8379Z" fill="#9AD797"/>
            <path d="M81.9297 42.3959C81.9297 42.3959 80.1532 43.8468 79.6374 44.2932C79.5801 44.349 79.2362 44.1258 79.2935 44.1258C79.4081 44.1258 79.4655 44.2932 79.6374 44.1258C80.1532 43.6794 81.8724 42.3401 81.8724 42.3401L81.9297 42.3959Z" fill="#9AD797"/>
            <path d="M99.9247 53.7239C95.7985 48.9248 93.2769 46.0231 91.6723 44.1258C90.1822 42.3959 89.1507 41.8937 88.1764 42.1727C88.1764 42.1727 88.1764 42.2285 88.1764 42.2843C88.1191 42.2843 83.5917 45.9673 83.5917 46.0231C83.5344 46.0231 83.4771 46.0231 83.4771 46.0231C83.0187 47.0833 83.4198 48.032 84.8525 49.7061C86.4572 51.6034 88.9214 54.4493 93.105 59.3041C93.9646 60.3086 100.784 54.7283 99.9247 53.7239Z" fill="#A692FB"/>
            <path d="M92.3597 57.2952C85.3107 49.0923 84.3938 48.5342 84.5084 46.5253C84.1072 46.6927 83.7634 46.5811 83.5915 46.7486C82.7891 47.5298 90.6404 56.0118 93.1047 58.9135C93.6205 59.5273 95.1105 58.6903 97.1736 56.8488C95.0532 58.2997 93.7351 58.8577 92.3597 57.2952Z" fill="#CAC5DE"/>
            <path d="M83.4771 41.3357C80.3825 43.8468 81.1848 44.9628 84.3368 42.3401C83.0187 43.4004 81.7579 44.0142 81.5286 43.791C81.5286 43.791 81.6432 43.9026 83.4771 46.0231C85.0245 45.6883 87.546 43.7352 88.2337 42.1727C87.4887 41.3357 87.0303 40.7777 86.2853 39.9406C85.9987 39.6616 84.7379 40.2754 83.4771 41.3357Z" fill="#9AD797"/>
            <path d="M84.2798 45.4093C82.4459 43.2888 82.3313 43.1772 82.3313 43.1772C82.2167 43.0098 82.3886 42.3959 83.8786 41.0567C83.764 41.1683 83.5921 41.2799 83.4775 41.3915C81.6436 42.8982 81.3571 43.6794 81.5863 43.8468C81.7009 43.9584 81.6436 43.9584 83.4775 46.0789C84.3944 46.0231 85.6552 45.1303 86.6868 44.1816C85.7698 44.7954 84.9675 45.3535 84.2798 45.4093Z" fill="#9AD797"/>
            <path d="M82.5029 40.2754C80.7837 41.6705 81.2421 42.2285 82.9614 40.8335C82.2737 41.3915 81.586 41.7821 81.4141 41.6147C81.4141 41.6147 81.4714 41.6705 82.4456 42.8424C83.3052 42.7866 84.8526 41.6147 85.0245 40.7219C84.6233 40.2754 84.3368 39.9406 83.993 39.4942C83.8783 39.3268 83.1906 39.6616 82.5029 40.2754Z" fill="#9AD797"/>
            <path d="M82.9619 42.4518C81.9303 41.2799 81.9303 41.2241 81.9303 41.2241C81.873 41.1125 81.9303 40.7777 82.7899 40.0522C82.7326 40.108 82.618 40.1638 82.5607 40.2196C81.5864 41.0567 81.4145 41.4473 81.5291 41.5589C81.5864 41.6147 81.5864 41.6147 82.5607 42.7866C83.0765 42.7308 83.7642 42.3401 84.3373 41.8379C83.8215 42.1727 83.3057 42.4518 82.9619 42.4518Z" fill="#9AD797"/>
        </mask>
        <g mask="url(#mask0_193_740)">
            <g style="mix-blend-mode:overlay">
                <rect x="87.7627" y="42.6339" width="27.0057" height="25.6554" fill="#00B3CB"/>
            </g>
        </g>
        <g style="mix-blend-mode:overlay">
            <mask id="mask1_193_740" style="mask-type:alpha" maskUnits="userSpaceOnUse" x="68" y="68" width="21" height="22">
                <path d="M88.3449 68.7471C87.6439 70.9388 85.7939 73.9144 83.184 76.8272L80.0945 80.3733C80.0945 80.3733 79.5328 80.8483 79.697 81.1646C79.8697 81.5363 79.9262 81.5283 80.2428 81.71C80.4858 81.789 80.6809 81.9312 80.876 82.0735C82.2106 83.2434 81.9561 85.7117 80.235 87.6509C78.5139 89.5902 76.023 90.2801 74.6884 89.1102C73.3538 87.9403 73.6083 85.472 75.3294 83.5328C75.9219 82.8837 76.9067 81.7835 76.9067 81.7835L88.3449 68.7471ZM75.5208 88.1445C76.5132 88.9666 78.2867 88.4907 79.5677 87.066C80.7922 85.6491 81.0275 83.8058 80.0351 82.9838C79.0427 82.1618 77.2692 82.6376 75.9882 84.0623C74.7637 85.4792 74.5283 87.3225 75.5208 88.1445Z" fill="#CCC6C7"/>
                <path d="M83.4358 74.3127L88.3489 68.6918C86.2539 69.7233 83.5295 71.9198 80.9246 74.8928L77.831 78.4444C77.831 78.4444 77.4074 79.0706 77.0424 78.952C76.6208 78.8414 76.6123 78.7859 76.4479 78.4691C76.3005 78.2632 76.1618 78.1128 75.9579 77.9148C74.6215 76.7431 72.1274 77.4341 70.404 79.3764C68.6806 81.3188 68.3778 83.8544 69.7622 84.9627C71.0986 86.1345 73.5927 85.4435 75.3161 83.5011C75.9094 82.851 76.8954 81.749 76.8954 81.749L81.2237 76.8338C81.8182 77.3167 82.7798 77.1813 83.3646 76.4758C84.0059 75.7623 84.0304 74.7956 83.4358 74.3127ZM70.6042 84.051C69.6104 83.2276 69.8461 81.3814 71.0722 79.9623C72.2983 78.5432 74.1307 78.0587 75.1245 78.882C76.1182 79.7054 75.8826 81.5516 74.6565 82.9707C73.4303 84.3898 71.5979 84.8743 70.6042 84.051Z" fill="#EAE3E4"/>
                <path d="M82.7739 75.9313C82.5255 76.1926 82.1385 76.3037 81.8697 76.0585C81.6095 75.8688 81.6628 75.4652 81.9027 75.1485C82.1511 74.8872 82.5381 74.7761 82.8068 75.0213C83.0191 75.2743 83.0223 75.67 82.7739 75.9313Z" fill="#787475"/>
            </mask>
            <g mask="url(#mask1_193_740)">
                <rect x="72.2344" y="78.0114" width="35.7826" height="30.3814" fill="#00B3CB"/>
            </g>
        </g>
    </symbol>

    <symbol id="sterile" width="127" height="127" viewBox="0 0 127 127" fill="none" xmlns="http://www.w3.org/2000/svg">
        <rect width="127" height="127" rx="38" fill="#F9F9F9"/>
        <path d="M48.5689 48.4041L48.8785 48.456V39.5877C48.8785 38.1356 47.6917 31.1861 46.2468 31.1861C44.802 31.1861 43.6152 38.1356 43.6152 39.5877V44.6182C44.4408 46.589 46.35 48.1967 48.5689 48.4041Z" fill="#9D94AA"/>
        <path d="M43.667 54.9905L46.1438 56.8057L43.667 54.9905Z" fill="#E0E2FF"/>
        <path d="M56.5154 72.6234C55.1222 72.6234 53.7806 73.0902 52.5938 73.8162C51.4586 73.3495 48.827 72.0011 48.827 68.6819L48.8786 48.4041L48.569 48.3523C46.3502 48.1448 44.441 46.589 43.667 44.5145V54.8868L46.1438 56.702L46.4018 56.8575V68.5782C46.4018 72.1566 48.6206 74.3867 50.633 75.4758C48.7754 77.7058 47.5886 80.9212 47.5886 84.4997C47.5886 91.1379 51.6134 96.5315 56.567 96.5315C61.5207 96.5315 65.5455 91.1379 65.5455 84.4997C65.4939 78.017 61.4691 72.6234 56.5154 72.6234ZM56.5154 94.1459C52.955 94.1459 50.0138 89.8933 50.0138 84.6034C50.0138 79.3654 52.9034 75.0609 56.5154 75.0609C60.0759 75.0609 63.0171 79.3135 63.0171 84.6034C63.0171 89.8933 60.1275 94.1459 56.5154 94.1459Z" fill="#B6B8DA"/>
        <path d="M46.1437 68.6819V56.7538L43.6669 54.9387V68.6301C43.6669 71.8974 41.0353 73.2976 39.9001 73.7644C38.7132 72.9864 37.4232 72.5715 35.9784 72.5715C31.0248 72.5715 27 77.9651 27 84.6034C27 91.2417 31.0248 96.6353 35.9784 96.6353C40.9321 96.6353 44.9569 91.2417 44.9569 84.6034C44.9569 81.025 43.7701 77.8095 41.9125 75.5795C43.9765 74.4904 46.1437 72.3122 46.1437 68.6819ZM42.5317 84.6034C42.5317 89.8414 39.5905 94.1459 36.03 94.1459C32.4696 94.1459 29.5284 89.8933 29.5284 84.6034C29.5284 79.3654 32.4696 75.0609 36.03 75.0609C39.6421 75.1127 42.5317 79.3654 42.5317 84.6034Z" fill="#9D94AA"/>
        <path d="M47.1754 50.8935C46.6078 50.323 45.7306 50.323 45.163 50.8935C44.5954 51.4639 44.5954 52.3456 45.163 52.916C45.7306 53.4865 46.6078 53.4865 47.1754 52.916C47.743 52.3456 47.743 51.4639 47.1754 50.8935Z" fill="white"/>
        <path d="M89.4877 58.8802C89.4877 58.1541 90.1069 57.5318 90.8293 57.5318C91.5517 57.5318 92.1709 58.1541 92.1709 58.8802C92.1709 59.6062 91.5517 60.2285 90.8293 60.2285C90.1069 60.2285 89.4877 59.6062 89.4877 58.8802Z" fill="#9880B5"/>
        <path d="M95.4728 35.9574C95.6792 35.9574 95.9372 36.0611 96.0404 36.2686C96.2468 36.5798 96.1952 37.0465 95.834 37.2539C95.834 37.2539 93.77 38.7061 93.3056 41.0398C92.9444 42.855 93.2024 45.6555 93.4088 48.3523C93.6152 50.8935 93.8216 53.331 93.5636 55.0943C93.254 57.3243 91.3448 59.2951 91.2932 59.3469C91.0352 59.6062 90.5708 59.6062 90.2612 59.3469C90.0032 59.0876 90.0032 58.6209 90.2612 58.3097C90.2612 58.3097 91.9124 56.6501 92.1188 54.8868C92.3252 53.2791 92.1188 50.7898 91.964 48.456C91.7576 45.6555 91.4996 42.7512 91.8608 40.7805C92.3768 37.8763 94.8536 36.1648 94.9568 36.113C95.1632 36.0093 95.318 35.9574 95.4728 35.9574Z" fill="#9880B5"/>
        <path d="M94.1832 26L92.8932 26.726C92.8932 26.726 96.4537 33.4162 96.4537 41.1954C96.4537 51.2047 83.4504 79.2617 83.4504 79.2617L82.1604 80.7138L82.47 100.577C82.47 100.577 85.1532 97.5688 85.6176 94.0941C86.082 90.6712 85.2564 85.122 85.9788 81.751C88.0944 71.6899 99.1885 53.2791 99.1885 41.4028C99.1885 29.6821 94.1832 26 94.1832 26Z" fill="#9D94AA"/>
        <path d="M70.7052 26L71.9952 26.7261C71.9952 26.7261 68.4348 33.4162 68.4348 41.1954C68.4348 51.2047 81.438 79.2617 81.438 79.2617L82.7281 80.7138L82.7281 83.8255L85.6176 85.0183C85.6176 85.0183 85.7725 89.634 85.7725 91.1898C85.7725 92.6419 85.5661 94.1978 85.5661 94.1978L82.4701 94.1978L82.4184 100.629C82.4184 100.629 79.7352 97.6206 79.2708 94.1459C78.8064 90.7231 79.632 85.1739 78.9096 81.8029C76.794 71.7418 65.7 53.331 65.7 41.4547C65.7 29.6822 70.7052 26 70.7052 26Z" fill="#B6B8DA"/>
        <path d="M80.7155 90.3601C80.7155 89.4265 81.4895 88.6486 82.4183 88.6486C83.3471 88.6486 84.1211 89.4265 84.1211 90.3601C84.1211 91.2936 83.3471 92.0715 82.4183 92.0715C81.4895 92.0715 80.7155 91.2936 80.7155 90.3601Z" fill="white"/>
        <g style="mix-blend-mode:overlay">
            <mask id="mask0_193_698" style="mask-type:alpha" maskUnits="userSpaceOnUse" x="27" y="26" width="73" height="75">
                <path d="M48.5689 48.4041L48.8785 48.456V39.5877C48.8785 38.1356 47.6917 31.1861 46.2468 31.1861C44.802 31.1861 43.6152 38.1356 43.6152 39.5877V44.6182C44.4408 46.589 46.35 48.1967 48.5689 48.4041Z" fill="#9D94AA"/>
                <path d="M43.667 54.9905L46.1438 56.8057L43.667 54.9905Z" fill="#E0E2FF"/>
                <path d="M56.5154 72.6234C55.1222 72.6234 53.7806 73.0902 52.5938 73.8162C51.4586 73.3495 48.827 72.0011 48.827 68.6819L48.8786 48.4041L48.569 48.3523C46.3502 48.1448 44.441 46.589 43.667 44.5145V54.8868L46.1438 56.702L46.4018 56.8575V68.5782C46.4018 72.1566 48.6206 74.3867 50.633 75.4758C48.7754 77.7058 47.5886 80.9212 47.5886 84.4997C47.5886 91.1379 51.6134 96.5315 56.567 96.5315C61.5207 96.5315 65.5455 91.1379 65.5455 84.4997C65.4939 78.017 61.4691 72.6234 56.5154 72.6234ZM56.5154 94.1459C52.955 94.1459 50.0138 89.8933 50.0138 84.6034C50.0138 79.3654 52.9034 75.0609 56.5154 75.0609C60.0759 75.0609 63.0171 79.3135 63.0171 84.6034C63.0171 89.8933 60.1275 94.1459 56.5154 94.1459Z" fill="#B6B8DA"/>
                <path d="M46.1437 68.6819V56.7538L43.6669 54.9387V68.6301C43.6669 71.8974 41.0353 73.2976 39.9001 73.7644C38.7132 72.9864 37.4232 72.5715 35.9784 72.5715C31.0248 72.5715 27 77.9651 27 84.6034C27 91.2417 31.0248 96.6353 35.9784 96.6353C40.9321 96.6353 44.9569 91.2417 44.9569 84.6034C44.9569 81.025 43.7701 77.8095 41.9125 75.5795C43.9765 74.4904 46.1437 72.3122 46.1437 68.6819ZM42.5317 84.6034C42.5317 89.8414 39.5905 94.1459 36.03 94.1459C32.4696 94.1459 29.5284 89.8933 29.5284 84.6034C29.5284 79.3654 32.4696 75.0609 36.03 75.0609C39.6421 75.1127 42.5317 79.3654 42.5317 84.6034Z" fill="#9D94AA"/>
                <path d="M47.1754 50.8935C46.6078 50.323 45.7306 50.323 45.163 50.8935C44.5954 51.4639 44.5954 52.3456 45.163 52.916C45.7306 53.4865 46.6078 53.4865 47.1754 52.916C47.743 52.3456 47.743 51.4639 47.1754 50.8935Z" fill="white"/>
                <path d="M89.4877 58.8802C89.4877 58.1541 90.1069 57.5318 90.8293 57.5318C91.5517 57.5318 92.1709 58.1541 92.1709 58.8802C92.1709 59.6062 91.5517 60.2285 90.8293 60.2285C90.1069 60.2285 89.4877 59.6062 89.4877 58.8802Z" fill="#9880B5"/>
                <path d="M95.4728 35.9574C95.6792 35.9574 95.9372 36.0611 96.0404 36.2686C96.2468 36.5798 96.1952 37.0465 95.834 37.2539C95.834 37.2539 93.77 38.7061 93.3056 41.0398C92.9444 42.855 93.2024 45.6555 93.4088 48.3523C93.6152 50.8935 93.8216 53.331 93.5636 55.0943C93.254 57.3243 91.3448 59.2951 91.2932 59.3469C91.0352 59.6062 90.5708 59.6062 90.2612 59.3469C90.0032 59.0876 90.0032 58.6209 90.2612 58.3097C90.2612 58.3097 91.9124 56.6501 92.1188 54.8868C92.3252 53.2791 92.1188 50.7898 91.964 48.456C91.7576 45.6555 91.4996 42.7512 91.8608 40.7805C92.3768 37.8763 94.8536 36.1648 94.9568 36.113C95.1632 36.0093 95.318 35.9574 95.4728 35.9574Z" fill="#9880B5"/>
                <path d="M94.1832 26L92.8932 26.726C92.8932 26.726 96.4537 33.4162 96.4537 41.1954C96.4537 51.2047 83.4504 79.2617 83.4504 79.2617L82.1604 80.7138L82.47 100.577C82.47 100.577 85.1532 97.5688 85.6176 94.0941C86.082 90.6712 85.2564 85.122 85.9788 81.751C88.0944 71.6899 99.1885 53.2791 99.1885 41.4028C99.1885 29.6821 94.1832 26 94.1832 26Z" fill="#9D94AA"/>
                <path d="M70.7052 26L71.9952 26.7261C71.9952 26.7261 68.4348 33.4162 68.4348 41.1954C68.4348 51.2047 81.438 79.2617 81.438 79.2617L82.7281 80.7138L82.7281 83.8255L85.6176 85.0183C85.6176 85.0183 85.7725 89.634 85.7725 91.1898C85.7725 92.6419 85.5661 94.1978 85.5661 94.1978L82.4701 94.1978L82.4184 100.629C82.4184 100.629 79.7352 97.6206 79.2708 94.1459C78.8064 90.7231 79.632 85.1739 78.9096 81.8029C76.794 71.7418 65.7 53.331 65.7 41.4547C65.7 29.6822 70.7052 26 70.7052 26Z" fill="#B6B8DA"/>
                <path d="M80.7155 90.3601C80.7155 89.4265 81.4895 88.6486 82.4183 88.6486C83.3471 88.6486 84.1211 89.4265 84.1211 90.3601C84.1211 91.2936 83.3471 92.0715 82.4183 92.0715C81.4895 92.0715 80.7155 91.2936 80.7155 90.3601Z" fill="white"/>
            </mask>
            <g mask="url(#mask0_193_698)">
                <rect x="27" y="26" width="90.3357" height="93.5165" fill="#00B3CB"/>
            </g>
        </g>
        <path d="M47.898 40.0026C47.9722 40.6311 48.0093 40.9454 48.0923 41.2113C48.3854 42.1499 49.12 42.8853 50.0583 43.1796C50.3241 43.2629 50.6334 43.2998 51.252 43.3736C50.6334 43.4474 50.3241 43.4842 50.0583 43.5676C49.12 43.8618 48.3854 44.5972 48.0923 45.5359C48.0093 45.8018 47.9722 46.1161 47.898 46.7446C47.8238 46.1161 47.7867 45.8018 47.7036 45.5359C47.4105 44.5972 46.676 43.8618 45.7377 43.5676C45.4718 43.4842 45.1625 43.4474 44.5439 43.3736C45.1625 43.2998 45.4718 43.2629 45.7377 43.1796C46.676 42.8853 47.4105 42.1499 47.7036 41.2113C47.7867 40.9454 47.8238 40.6311 47.898 40.0026Z" fill="white"/>
        <path d="M58.2183 70.6008C58.2925 71.2294 58.3296 71.5436 58.4126 71.8095C58.7057 72.7482 59.4403 73.4836 60.3786 73.7778C60.6444 73.8612 60.9537 73.8981 61.5723 73.9718C60.9537 74.0456 60.6444 74.0825 60.3786 74.1658C59.4403 74.4601 58.7057 75.1955 58.4126 76.1341C58.3296 76.4 58.2925 76.7143 58.2183 77.3428C58.1441 76.7143 58.107 76.4 58.0239 76.1341C57.7308 75.1955 56.9963 74.4601 56.058 74.1658C55.7922 74.0825 55.4829 74.0456 54.8643 73.9718C55.4829 73.8981 55.7922 73.8612 56.058 73.7778C56.9963 73.4836 57.7308 72.7482 58.0239 71.8095C58.107 71.5436 58.1441 71.2294 58.2183 70.6008Z" fill="white"/>
        <path d="M80.9224 91.864C80.9966 92.4925 81.0337 92.8068 81.1167 93.0727C81.4098 94.0114 82.1444 94.7468 83.0827 95.041C83.3485 95.1244 83.6578 95.1612 84.2764 95.235C83.6578 95.3088 83.3485 95.3457 83.0827 95.429C82.1444 95.7232 81.4098 96.4587 81.1167 97.3973C81.0337 97.6632 80.9966 97.9775 80.9224 98.606C80.8482 97.9775 80.8111 97.6632 80.728 97.3973C80.4349 96.4587 79.7004 95.7232 78.7621 95.429C78.4963 95.3457 78.187 95.3088 77.5684 95.235C78.187 95.1612 78.4963 95.1244 78.7621 95.041C79.7004 94.7468 80.4349 94.0114 80.728 93.0727C80.8111 92.8068 80.8482 92.4925 80.9224 91.864Z" fill="white"/>
        <path d="M68.022 46.7446C68.0962 47.3731 68.1333 47.6874 68.2163 47.9533C68.5094 48.8919 69.244 49.6273 70.1823 49.9216C70.4481 50.0049 70.7574 50.0418 71.376 50.1156C70.7574 50.1893 70.4481 50.2262 70.1823 50.3096C69.244 50.6038 68.5094 51.3392 68.2163 52.2779C68.1333 52.5438 68.0962 52.858 68.022 53.4866C67.9478 52.858 67.9107 52.5438 67.8276 52.2779C67.5345 51.3392 66.8 50.6038 65.8617 50.3096C65.5959 50.2262 65.2866 50.1893 64.668 50.1156C65.2866 50.0418 65.5959 50.0049 65.8617 49.9216C66.8 49.6273 67.5345 48.8919 67.8276 47.9533C67.9107 47.6874 67.9478 47.3731 68.022 46.7446Z" fill="white"/>
    </symbol>

    <symbol id="consultations" width="127" height="127" viewBox="0 0 127 127" fill="none" xmlns="http://www.w3.org/2000/svg">
        <rect width="127" height="127" rx="38" fill="#F9F9F9"/>
        <g clip-path="url(#clip0_193_622)">
            <path d="M45.0257 91.8206H45.0542C45.2821 91.816 45.4611 91.6059 45.4367 91.3638L43.9068 74.2319L42.5723 74.3643L44.7653 91.5876C44.7857 91.7247 44.8955 91.8206 45.0257 91.8206Z" fill="#01CBE6"/>
            <path d="M30.3087 91.8206H30.2802C30.0524 91.816 29.8733 91.6059 29.8977 91.3638L31.4276 74.2319L32.7622 74.3643L30.5691 91.5876C30.5487 91.7247 30.4389 91.8206 30.3087 91.8206Z" fill="#01CBE6"/>
            <path d="M55.8041 91.8206H55.8325C56.0604 91.816 56.2394 91.6059 56.215 91.3638L54.6851 74.2319L53.3506 74.3643L55.5437 91.5876C55.5681 91.7247 55.6779 91.8206 55.8041 91.8206Z" fill="#8CB4F4"/>
            <path d="M30.7646 71.7381L28.0507 56.7025C27.7008 54.6655 29.2063 52.8066 31.1552 52.8569L36.3877 52.9893C38.1942 53.035 39.7607 54.3915 40.2611 56.3371L44.2282 71.7381H30.7646Z" fill="#01CBE6"/>
            <path d="M32.4043 71.7381L29.6904 56.7025C29.3405 54.6655 30.8459 52.8066 32.7949 52.8569L38.0273 52.9893C39.8338 53.035 41.4003 54.3915 41.9008 56.3371L45.8678 71.7381H32.4043Z" fill="#01C1DB"/>
            <path d="M31.5214 74.4831H52.2193C52.6343 74.4831 52.9761 74.0994 52.9761 73.6335V72.5876C52.9761 72.1218 52.6343 71.7381 52.2193 71.7381H30.7646V73.6335C30.7646 74.0994 31.1064 74.4831 31.5214 74.4831Z" fill="#01CBE6"/>
            <path d="M41.2334 74.4831H54.4284C54.762 74.4831 55.0387 74.177 55.0387 73.798V72.4232C55.0387 72.0487 54.7661 71.7381 54.4284 71.7381H41.2334C40.8997 71.7381 40.623 72.0441 40.623 72.4232V73.798C40.623 74.1725 40.8997 74.4831 41.2334 74.4831Z" fill="#01C1DB"/>
            <path d="M48.793 68.5912C47.674 70.779 46.2663 71.6239 46.2663 71.6239H40.4072C40.4072 71.6239 49.6474 66.9242 48.793 68.5912Z" fill="#233862"/>
            <path d="M56.0187 90.3271C55.9536 91.0167 56.8121 91.1949 57.8008 91.2634C58.7936 91.3319 58.4884 91.5557 59.8474 91.848C61.2023 92.1403 61.7516 91.7292 61.8533 91.5237C61.9428 91.341 61.3122 91.0487 60.6408 90.7153C60.5554 90.6742 60.4699 90.6331 60.3886 90.5874C59.6358 90.2038 59.2168 89.4364 58.6308 88.7194C58.0775 88.0434 57.5648 85.8876 57.5648 85.8876L55.7217 85.4218C55.7217 85.4218 56.2221 87.3583 56.393 88.185C56.4947 88.6691 56.332 89.2126 56.1896 89.6237C56.1204 89.8521 56.0431 90.0804 56.0187 90.3271Z" fill="#FFB27D"/>
            <path d="M57.8049 91.2588C58.7977 91.3273 58.4925 91.5511 59.8515 91.8434C61.2064 92.1357 61.7557 91.7246 61.8574 91.5191C61.9469 91.3364 61.3162 91.0441 60.6449 90.7107L60.6327 90.7244C60.6327 90.7244 59.6725 91.0761 58.5739 90.729C57.6788 90.4458 56.8121 89.8292 56.1937 89.6282C56.1164 89.852 56.039 90.0804 56.0187 90.3225C55.9577 91.0167 56.8121 91.1948 57.8049 91.2588Z" fill="#0F2549"/>
            <path d="M53.2278 66.3533C52.235 65.5722 45.6761 64.1792 42.3275 63.7727L38.625 60.1646C38.625 60.1646 35.4757 65.4032 35.4513 69.4088C35.4391 71.2768 36.2081 71.4641 36.2081 71.4641C36.2081 71.4641 48.0726 71.5645 48.5934 71.6239C49.4438 71.7244 50.5668 74.104 50.8475 76.2689C51.1283 78.4383 56.0759 87.2532 56.0759 87.2532C56.0759 87.2532 57.1094 87.6232 57.5854 87.5912C58.0981 87.5593 58.3341 87.3629 58.3341 87.3629C58.3341 87.3629 55.4656 68.1162 53.2278 66.3533Z" fill="#233862"/>
            <path d="M52.9513 90.3271C52.8862 91.0167 53.7447 91.1949 54.7334 91.2634C55.7262 91.3319 55.4211 91.5557 56.78 91.848C58.139 92.1403 58.6842 91.7292 58.7859 91.5237C58.8754 91.341 58.2448 91.0487 57.5734 90.7153C57.488 90.6742 57.4025 90.6331 57.3212 90.5874C56.5684 90.2038 56.1494 89.4364 55.5635 88.7194C55.0101 88.0434 54.4975 85.8876 54.4975 85.8876L52.6543 85.4218C52.6543 85.4218 53.1548 87.3583 53.3256 88.185C53.4274 88.6691 53.2646 89.2126 53.1222 89.6237C53.053 89.8521 52.9717 90.0804 52.9513 90.3271Z" fill="#FFB27D"/>
            <path d="M54.7336 91.2588C55.7264 91.3273 55.4212 91.5511 56.7802 91.8434C58.1392 92.1357 58.6844 91.7246 58.7861 91.5191C58.8756 91.3364 58.2449 91.0441 57.5736 90.7107L57.5614 90.7244C57.5614 90.7244 56.6012 91.0761 55.5026 90.729C54.6075 90.4458 53.7408 89.8292 53.1224 89.6282C53.0451 89.852 52.9677 90.0804 52.9474 90.3225C52.8864 91.0167 53.7449 91.1948 54.7336 91.2588Z" fill="#233862"/>
            <path d="M50.1311 66.3533C49.2685 65.6727 46.6767 65.1475 43.8164 64.7547C43.027 64.6451 42.376 64.0011 42.1807 63.1333L35.5283 60.1646C35.5283 60.1646 32.379 65.4032 32.3546 69.4088C32.3424 71.2768 33.1114 71.4641 33.1114 71.4641C33.1114 71.4641 44.976 71.5645 45.4968 71.6239C46.3471 71.7244 47.4701 74.104 47.7509 76.2689C48.0316 78.4383 52.9792 87.2532 52.9792 87.2532C52.9792 87.2532 54.0127 87.6232 54.4887 87.5912C55.0014 87.5593 55.2374 87.3629 55.2374 87.3629C55.2374 87.3629 52.3689 68.1162 50.1311 66.3533Z" fill="#2B478B"/>
            <path d="M41.2249 38.4059C40.3095 37.867 38.918 37.7939 38.6942 37.7619C35.9884 37.3554 34.3609 41.7674 34.2673 43.1011C34.0924 45.5674 32.9287 45.942 31.2931 47.4857C28.0137 50.5823 28.978 54.1768 30.7682 55.5105C31.8424 56.3143 33.7384 55.5105 33.7384 55.5105C33.7669 55.5333 38.922 52.2768 41.465 50.7057C45.2774 50.0936 43.5563 39.7807 41.2249 38.4059Z" fill="#233862"/>
            <path d="M40.6632 49.1848C40.6754 49.1893 39.4629 49.8105 38.584 49.4862C37.7581 49.1802 37.0338 47.7872 37.0461 47.7872C37.4041 47.7278 37.7662 47.335 37.8679 44.9874L38.0266 45.0331L40.6917 45.7867C40.6917 45.7867 40.5859 46.7321 40.5411 47.6273C40.5045 48.3809 40.5126 49.098 40.6632 49.1848Z" fill="#FFB27D"/>
            <path d="M40.6924 45.7867C40.6924 45.7867 40.6924 45.9831 40.5947 46.8646C39.0893 46.4398 38.422 45.878 37.9541 45.234L40.6924 45.7867Z" fill="#ED975D"/>
            <path d="M41.2571 45.9054C41.2571 45.9054 37.7335 46.5494 37.4121 44.0785C37.0907 41.6121 36.4153 40.0319 38.6531 39.5158C40.8868 38.9996 41.4483 39.872 41.7372 40.6667C42.022 41.4614 42.1685 45.6725 41.2571 45.9054Z" fill="#FFB27D"/>
            <path d="M41.2616 39.4153C41.2616 39.4153 39.6625 42.2516 38.2344 42.923C36.8063 43.5944 36.1064 43.2518 36.1064 43.2518C36.1064 43.2518 36.7574 42.1465 36.9243 40.6622C36.9731 40.2237 37.2294 39.8492 37.5915 39.6848C38.6169 39.2235 40.5984 38.4973 41.2616 39.4153Z" fill="#233862"/>
            <path d="M39.8574 39.6893C39.8574 39.6893 40.7932 40.2283 41.1798 40.7352C41.5541 41.2239 41.9813 42.5485 41.9528 43.1422C41.9528 43.1422 42.4167 40.2922 41.4524 39.3148C40.4311 38.2735 39.8574 39.6893 39.8574 39.6893Z" fill="#233862"/>
            <path d="M43.4793 55.2182C43.3735 63.2566 43.4508 61.5759 42.6655 62.3386C42.4784 62.5213 41.9454 62.6309 41.2496 62.6811C39.0525 62.8456 35.1953 62.4391 35.0488 61.9823C34.5443 60.4066 34.8983 59.9179 34.4792 57.5018C34.4344 57.246 34.3815 56.9674 34.3164 56.666C33.9624 55.0081 33.6207 54.4463 34.8698 51.7835C36.005 49.372 37.3354 47.4126 37.4412 47.4857C40.4318 49.4771 40.5335 47.81 40.5335 47.81C40.5335 47.81 43.5322 51.2948 43.4793 55.2182Z" fill="white"/>
            <path d="M40.5332 47.81C40.5332 47.81 43.5929 48.3946 43.955 49.879C44.3172 51.3679 46.4411 60.1098 46.4411 60.1098C46.4411 60.1098 44.8786 60.4249 44.1544 59.6119C43.4302 58.7989 41.6399 52.085 41.6399 52.085L40.5332 47.81Z" fill="white"/>
            <path d="M41.2489 62.6812C39.0518 62.8456 35.1946 62.4391 35.0481 61.9824C34.5436 60.4066 34.8976 59.9179 34.4785 57.5018L35.5364 54.154C35.5364 54.154 35.3614 57.8809 36.342 58.8629C37.3185 59.8449 40.3497 60.7537 40.8258 61.5759C41.0536 61.9732 41.2083 62.366 41.2489 62.6812Z" fill="#EBF3FF"/>
            <path d="M38.7344 61.1145C38.7344 61.1145 40.899 60.571 41.2489 60.7903C41.5988 61.0049 42.4532 61.7905 42.559 62.0645C42.6648 62.3386 41.7819 61.859 41.493 61.7722C41.3058 61.7174 40.8176 61.9093 40.5735 62.0006C39.5522 62.3843 38.9256 62.1879 38.9256 62.1879L38.7344 61.1145Z" fill="#FFB27D"/>
            <path d="M37.4415 47.4857C37.4415 47.4857 34.3777 47.6867 33.3686 49.2624C31.9527 51.4821 29.1412 60.9364 30.7524 62.197C32.5671 63.6175 39.012 62.567 39.012 62.567C39.012 62.567 39.2277 61.4434 38.9266 60.8953C38.6295 60.3518 33.7796 59.4703 33.5558 59.2191C33.332 58.9679 36.351 54.323 36.351 53.5694C36.3551 52.8203 37.4415 47.4857 37.4415 47.4857Z" fill="white"/>
            <path d="M41.3555 61.4662C41.3555 61.4662 41.8112 62.1239 41.9576 62.2016C42.1041 62.2792 42.2018 62.261 42.2018 62.261L41.8966 61.6444L41.3555 61.4662Z" fill="#FFB27D"/>
            <path d="M41.249 60.7903L42.5673 61.5073C42.5673 61.5073 42.5103 61.6124 42.3476 61.6033C42.1848 61.5941 41.7739 61.4251 41.7739 61.4251L41.249 60.7903Z" fill="#FFB27D"/>
            <path d="M46.1119 62.4939H39.9844C39.9844 62.1925 40.2041 61.9458 40.4726 61.9458H46.1119V62.4939Z" fill="#96BDFF"/>
            <path d="M46.0952 55.0035H55.5673L53.297 62.4939H43.7598L46.0952 55.0035Z" fill="#96BDFF"/>
            <path d="M55.7101 55.0035L53.4356 62.4939H43.8984L46.2339 55.0035H55.7101Z" fill="#00B3CB"/>
            <path d="M50.5998 58.6802C50.5428 58.9679 50.2865 59.1963 50.0301 59.1963C49.7738 59.1963 49.6151 58.9634 49.6761 58.6802C49.7331 58.3925 49.9894 58.1641 50.2458 58.1641C50.5021 58.1641 50.6608 58.3925 50.5998 58.6802Z" fill="white"/>
            <path d="M37.8642 64.1792H79.386C79.561 64.1792 79.7034 64.0194 79.7034 63.823V62.8456C79.7034 62.6492 79.561 62.4893 79.386 62.4893H37.8642C37.6893 62.4893 37.5469 62.6492 37.5469 62.8456V63.823C37.5469 64.0194 37.6893 64.1792 37.8642 64.1792Z" fill="#182D4F"/>
            <path d="M80.4035 91.9439L80.4198 91.9393C80.6314 91.9119 80.7819 91.6972 80.7575 91.4643L77.059 63.348L75.7041 63.3936L80.0577 91.6607C80.0862 91.8434 80.2367 91.9667 80.4035 91.9439Z" fill="#182D4F"/>
            <path d="M36.4728 91.9439L36.4565 91.9393C36.2449 91.9119 36.0944 91.6972 36.1188 91.4643L39.8173 63.348L41.1722 63.3936L36.8186 91.6607C36.7942 91.8434 36.6396 91.9667 36.4728 91.9439Z" fill="#182D4F"/>
            <path d="M45.0412 91.9439L45.0249 91.9393C44.8133 91.9119 44.6628 91.6972 44.6872 91.4643L48.3857 63.348L49.7406 63.3936L45.387 91.6607C45.3585 91.8434 45.208 91.9667 45.0412 91.9439Z" fill="#182D4F"/>
            <path d="M66.8711 91.921H74.2152C74.5692 91.4369 74.439 89.6511 74.3861 89.071C74.3739 88.9523 74.3658 88.8838 74.3658 88.8838C74.3658 88.8838 71.8594 86.6321 71.5136 88.3585C71.5014 88.4133 71.4891 88.4636 71.4769 88.5184C71.0416 90.1306 69.0967 90.8614 67.9737 91.0669C67.2414 91.1994 66.9687 91.6241 66.8711 91.921Z" fill="#233862"/>
            <path d="M86.9058 65.1429C86.6413 65.1429 74.3292 67.7371 72.2908 70.5689C71.2736 71.9847 71.123 88.3083 71.123 88.3083C71.123 88.3083 72.3803 90.0621 75.0982 89.0436C75.0982 89.0436 77.0919 77.872 76.9455 74.4876C76.9048 73.5513 85.3556 74.3506 86.9058 73.903C88.456 73.4554 92.2318 69.6737 91.4018 67.8331C90.5677 65.9879 86.9058 65.1429 86.9058 65.1429Z" fill="#233862"/>
            <path d="M72.3434 61.142C72.3434 61.142 69.8614 61.1785 69.2715 61.4617C68.6815 61.7449 67.4934 62.3934 67.8108 62.4939C68.1281 62.5944 69.6499 62.4528 69.9794 62.5076C70.309 62.5624 70.7118 62.4939 70.9152 62.4939C71.1146 62.4939 72.0545 62.4939 72.0545 62.4939L72.3434 61.142Z" fill="#FFB27D"/>
            <path d="M69.4378 54.4509C69.4378 54.4509 68.5915 53.7703 67.7696 53.6379C67.3017 53.5648 66.846 53.4689 66.5693 53.3593C65.8126 53.0578 64.2908 51.5278 64.4088 51.3451C64.775 50.7696 66.549 51.9891 66.8582 51.8566C67.1675 51.7242 66.2642 51.0026 66.5775 50.7513C66.7402 50.6189 67.1268 51.2812 67.4401 51.3497C67.8632 51.441 68.1968 52.1124 68.323 52.1489C68.5712 52.2175 69.6616 53.1263 69.6616 53.1263L69.4378 54.4509Z" fill="#FFB27D"/>
            <path d="M85.6768 46.522C85.6768 46.522 83.7848 47.1797 81.9254 52.9391C80.0619 58.6984 79.3539 59.009 78.6785 59.2328C78.0031 59.4566 72.0586 60.7857 72.0586 60.7857V62.4939H81.2174C81.2174 62.4939 84.6514 58.8263 85.6808 56.36C86.7062 53.8891 85.6768 46.522 85.6768 46.522Z" fill="#01CBE7"/>
            <path d="M63.624 91.921H70.9681C71.3221 91.4369 71.1919 89.6511 71.139 89.071C71.1268 88.9523 71.1187 88.8838 71.1187 88.8838C71.1187 88.8838 68.6123 86.6321 68.2665 88.3585C68.2543 88.4133 68.2421 88.4636 68.2299 88.5184C67.7945 90.1306 65.8496 90.8614 64.7267 91.0669C63.9943 91.1994 63.7257 91.6241 63.624 91.921Z" fill="#1B3051"/>
            <path d="M83.2759 65.1429C83.0114 65.1429 70.6994 67.7371 68.6609 70.5689C67.6437 71.9847 67.4932 88.3083 67.4932 88.3083C67.4932 88.3083 68.7504 90.0621 71.4684 89.0436C71.4684 89.0436 73.462 77.872 73.3156 74.4876C73.2749 73.5513 81.7257 74.3506 83.2759 73.903C84.8221 73.4554 88.6019 69.6737 87.7719 67.8331C86.9378 65.9879 83.2759 65.1429 83.2759 65.1429Z" fill="#2B478B"/>
            <path d="M84.0456 48.3444C84.9325 48.2622 85.8602 47.9973 86.6618 47.7049C87.6668 47.3396 88.4724 46.8052 87.9516 45.7775C87.4715 44.8275 86.6943 42.7083 86.7472 40.9545L84.8797 42.6444L83.6102 43.7908C83.6102 43.7908 83.6143 44.4667 83.7526 45.6542C83.777 45.8689 83.8096 46.1018 83.8421 46.353C83.8706 46.554 83.7892 46.7549 83.6346 46.8646C83.6265 46.8691 83.6143 46.8783 83.6061 46.8828C82.9795 47.3259 83.305 48.4129 84.0456 48.3444Z" fill="#FFB27D"/>
            <path d="M83.6139 43.5122C83.6139 43.5122 83.5488 43.7588 83.6586 44.6631C84.7898 44.4576 85.8476 43.4436 85.8476 43.4436C85.2739 43.2655 85.0624 42.5667 84.6351 42.6352L83.6139 43.5122Z" fill="#ED975D"/>
            <path d="M82.5678 43.7177C82.5678 43.7177 86.9173 44.5307 87.3242 41.4797C87.7311 38.4333 88.5692 36.4831 85.8106 35.8391C83.052 35.1905 82.3562 36.2638 81.9982 37.2458C81.6401 38.2232 81.4489 43.4299 82.5678 43.7177Z" fill="#FFB27D"/>
            <path d="M81.3595 35.8939C81.1723 36.6292 81.6727 37.5198 82.5109 37.8167C83.756 38.2552 83.4793 39.9679 84.0408 39.9451C84.6023 39.9222 84.826 38.9585 85.3265 39.7304C85.7537 40.3881 84.9725 41.1646 85.0254 41.5254C85.119 42.142 85.9775 43.4071 86.7546 43.3432C87.5318 43.2792 88.9843 39.1367 88.6954 37.8578C88.4066 36.5744 87.2429 35.2271 86.1443 35.0398C85.0458 34.8525 83.5159 35.3869 83.1619 35.3869C82.8079 35.3869 81.4571 35.4965 81.3595 35.8939Z" fill="#2B478B"/>
            <path d="M91.4539 50.7513C90.8273 47.9105 89.09 44.9326 87.9141 44.9326C85.9122 44.9372 83.0356 45.5309 81.872 48.7463C81.0175 51.1167 79.8742 64.7456 81.164 65.7138C84.1138 67.929 90.9494 72.4552 92.1619 67.8422C93.2767 63.6174 92.5484 55.6795 91.4539 50.7513Z" fill="#00B3CB"/>
            <path d="M86.5967 47.9242C86.027 46.2571 84.1839 45.6816 82.9266 46.7778C82.2471 47.3715 81.4171 48.2165 80.4121 49.4177C76.677 53.8845 75.9161 53.8571 75.2163 53.7612C74.5165 53.6699 68.5883 52.2586 68.5883 52.2586C68.5883 52.2586 68.2831 52.5098 68.1041 52.9162C67.864 53.4598 67.9861 53.8297 67.9861 53.8297C67.7542 53.6607 70.0856 55.4648 71.2493 56.1864C72.7832 57.1364 75.0943 58.0271 76.0138 58.365C76.2742 58.461 76.5549 58.4564 76.8153 58.3513C78.1824 57.7987 82.7679 55.7845 86.5031 52.2905C87.4877 51.3679 87.1256 49.4725 86.5967 47.9242Z" fill="#00B3CB"/>
            <path d="M88.1175 44.96L87.6659 43.8136C87.6659 43.8136 83.6093 44.1836 82.9258 46.7778C82.9258 46.7778 86.0709 45.0194 88.1175 44.96Z" fill="white"/>
            <path d="M97.9642 91.8206H97.9927C98.2205 91.816 98.3996 91.6059 98.3752 91.3638L96.8453 74.2319L95.5107 74.3643L97.7038 91.5876C97.7282 91.7247 97.8381 91.8206 97.9642 91.8206Z" fill="#01CBE6"/>
            <path d="M90.1 91.8206H90.1284C90.3563 91.816 90.5353 91.6059 90.5109 91.3638L88.981 74.2319L87.6465 74.3643L89.8395 91.5876C89.864 91.7247 89.9738 91.8206 90.1 91.8206Z" fill="#01CBE6"/>
            <path d="M75.3341 91.8206H75.3056C75.0777 91.816 74.8987 91.6059 74.9231 91.3638L76.453 74.2319L77.7875 74.3643L75.5945 91.5876C75.5741 91.7247 75.4643 91.8206 75.3341 91.8206Z" fill="#01BDD7"/>
            <path d="M97.5331 71.8066L98.9815 57.4973C99.1728 55.4374 98.5584 53.4186 95.9055 53.2588L91.2427 52.9391C88.48 52.8112 87.2309 55.3917 86.881 57.3831L84.1143 73.1129L97.5331 71.8066Z" fill="#01CBE6"/>
            <path d="M96.7564 74.4831H76.0585C75.6435 74.4831 75.3018 74.0994 75.3018 73.6336V72.5877C75.3018 72.1218 75.6435 71.7381 76.0585 71.7381H97.5091V73.6336C97.5132 74.0994 97.1714 74.4831 96.7564 74.4831Z" fill="#01BDD7"/>
            <path d="M96.9226 74.4831H84.7041C84.3826 74.4831 84.1182 74.1862 84.1182 73.8254V72.4004C84.1182 72.0395 84.3826 71.7427 84.7041 71.7427H97.5125V73.8254C97.5125 74.1862 97.2481 74.4831 96.9226 74.4831Z" fill="#01C1DB"/>
        </g>
        <defs>
            <clipPath id="clip0_193_622">
                <rect width="71" height="57" fill="white" transform="translate(28 35)"/>
            </clipPath>
        </defs>
    </symbol>

    <symbol id="close" viewBox="0 0 20 20" fill="none" xmlns="http://www.w3.org/2000/svg">
        <path d="M15 5L5 15" stroke="#495365" stroke-linecap="round" stroke-linejoin="round"/>
        <path d="M5 5L15 15" stroke="#495365" stroke-linecap="round" stroke-linejoin="round"/>
    </symbol>

    <symbol id="arrow-slider" viewBox="0 0 5 9" fill="none" xmlns="http://www.w3.org/2000/svg">
        <path d="M0.625 8.25L4.375 4.5L0.625 0.75" stroke="#495365" stroke-linecap="round" stroke-linejoin="round"/>
    </symbol>

    <symbol id="plus" viewBox="0 0 24 24" fill="none" xmlns="http://www.w3.org/2000/svg">
        <path d="M12 5V19" stroke="#495365" stroke-width="1.5" stroke-linecap="round" stroke-linejoin="round"/>
        <path d="M5 12H19" stroke="#495365" stroke-width="1.5" stroke-linecap="round" stroke-linejoin="round"/>
    </symbol>

    <symbol id="more-arrow" viewBox="0 0 9 5" fill="none" xmlns="http://www.w3.org/2000/svg">
        <path d="M0.75 0.625L4.5 4.375L8.25 0.625" stroke="#69768C" stroke-opacity="0.75" stroke-linecap="round" stroke-linejoin="round"/>
    </symbol>




</svg>

