<svg width="125" height="270" viewBox="0 0 125 270" fill="none" xmlns="http://www.w3.org/2000/svg">
<path d="M39.3121 35.7759C38.8611 36.0528 38.2834 35.7865 38.0064 35.3354C35.3763 29.7038 31.9021 24.3835 28.8895 19.8149L28.5202 19.2135C23.6611 11.6379 19.0527 7.84229 16.523 6.08297C19.1057 12.986 26.6186 25.5575 26.7109 25.7078C27.2069 26.8526 26.1756 29.5564 25.2604 31.7748C25.1443 32.2602 24.6009 32.3869 24.1156 32.2708C23.6302 32.1548 23.5036 31.6114 23.6196 31.126C25.0096 27.9949 25.0571 26.7235 25.1151 26.4808C24.0072 24.6766 15.3863 10.3009 14.1436 4.23133C14.1093 3.83829 14.1673 3.59561 14.468 3.41096C14.7687 3.2263 15.1618 3.19199 15.4044 3.25002C15.7395 3.45839 22.5214 6.74748 30.0237 18.2902L30.393 18.8916C33.4979 23.6105 36.9721 28.9308 39.6022 34.5625C39.8792 35.0135 39.7632 35.4989 39.3121 35.7759Z" fill="#DEEAFF"/>
<path d="M105.205 260.749C102.8 262.226 96.4664 261.354 93.0346 260.148C84.9575 257.447 63.9151 238.691 51.2152 198.454C41.5808 167.93 33.8026 117.838 29.4703 90.8906C28.1722 82.3706 27.0799 76.2087 26.7 74.5785C26.3544 73.3414 25.6975 71.2602 25.0406 69.179C22.9776 62.7851 19.6695 53.0147 19.4107 45.5128C19.3764 45.1198 19.7351 44.6925 20.2785 44.5658C20.6715 44.5315 21.0989 44.8903 21.2255 45.4336C21.5423 52.6929 24.7581 62.3128 26.8211 68.7068C27.5704 70.9383 28.1349 72.8692 28.5729 74.2566C29.0451 76.0371 29.9527 81.8983 31.4355 90.7191C35.7678 117.667 43.5459 167.758 53.088 198.132C65.6613 237.826 85.791 256.107 93.7757 258.658C98.756 260.362 103.958 260.066 104.525 259.304C104.525 259.304 104.48 257.882 96.97 254.419C87.3919 249.948 77.5153 231.167 70.9756 216.135C63.3517 198.662 56.2631 177.341 52.9837 161.549C50.4061 149.259 48.1978 137.571 46.1848 127.213C41.9635 105.166 38.5469 87.8014 35.8113 83.6839C31.9678 77.7622 33.6243 74.0533 38.153 64.2326C38.6858 63.0772 39.2766 61.6792 39.8674 60.2811C39.9835 59.7958 40.5268 59.6691 41.0122 59.7852C41.4975 59.9012 41.6242 60.4446 41.5081 60.93C40.9173 62.328 40.3265 63.7261 39.7937 64.8815C35.4153 74.6099 34.0833 77.4983 37.3729 82.5179C40.2931 86.9361 43.4907 103.607 47.873 126.59C49.886 136.949 52.0943 148.637 54.6719 160.926C61.265 192.904 82.2296 245.25 97.5845 252.385C104.182 255.373 106.688 257.768 105.889 259.501C105.957 260.288 105.656 260.472 105.205 260.749Z" fill="#DEEAFF"/>
<path d="M125.64 126.455C125.189 126.732 124.403 126.801 123.733 126.384C123.155 126.118 122.636 125.608 121.689 124.741C119.217 122.739 115.279 119.36 108.346 116.163C102.812 113.557 82.1843 108.625 65.5317 104.772C52.427 101.639 44.4186 99.724 42.8359 98.8325C39.7628 97.1998 38.726 93.4885 39.4328 91.605C39.8153 90.542 40.6593 90.2307 41.6301 90.4628C42.6008 90.6949 42.8197 91.3886 42.9464 91.932C43.073 92.4754 43.1416 93.2614 44.3656 94.5803C45.405 95.5984 56.8689 98.0829 67.9399 100.602C87.32 104.85 111.554 110.26 117.895 114.854C125.519 120.525 127.191 124.26 126.057 125.785C125.941 126.27 125.791 126.363 125.64 126.455ZM41.1659 92.4042C41.1659 92.4042 40.9575 92.7393 41.0261 93.5253C41.2214 94.8548 42.0866 96.6009 43.6693 97.4925C45.1597 98.2336 55.1096 100.613 66.0302 103.224C82.7752 107.227 103.553 112.067 109.18 114.823C116.355 118.078 120.536 121.515 123.008 123.517C123.77 124.084 124.29 124.593 124.717 124.952C124.556 124.015 123.287 121.275 116.946 116.68C110.939 112.293 85.9774 106.71 67.8107 102.751C50.7651 98.9324 44.3051 97.5162 43.2314 96.105C41.4878 94.2771 41.3848 93.098 41.1659 92.4042ZM41.1659 92.4042L41.4903 91.5839L41.1659 92.4042Z" fill="#DEEAFF"/>
<path d="M122.602 125.215C122.451 125.308 122.301 125.4 122.058 125.342C120.486 125.479 117.495 122.968 116.49 122.343C115.3 121.417 114.169 120.249 113.464 119.439C112.945 118.93 111.871 117.519 112.739 116.572C113.815 115.29 116.772 117.408 119.151 119.259C120.341 120.185 121.473 121.354 122.177 122.164C122.697 122.673 123.77 124.084 122.903 125.031C122.903 125.031 122.752 125.123 122.602 125.215ZM115.118 118.423C115.73 119.083 116.434 119.893 117.624 120.818C118.814 121.744 119.668 122.462 120.489 122.786C119.877 122.127 119.173 121.317 117.983 120.391C116.885 119.616 115.88 118.99 115.118 118.423Z" fill="#DEEAFF"/>
<path d="M182.05 209.211C181.599 209.488 181.056 209.615 180.813 209.557C178.814 209.336 178.204 205.983 178.674 198.655C179.973 180.879 145.96 139.651 123.171 121.76C96.9639 100.999 66.9236 75.3445 63.2198 68.3017C60.3814 63.0051 56.4748 62.7125 46.0264 61.882C44.5123 61.7765 42.7555 61.613 40.9987 61.4496C26.4591 60.0257 17.6324 43.2918 11.2405 30.8601L10.8712 30.2587C4.4213 18.0696 4.94858 10.4991 4.91428 10.1061C4.87997 9.71302 5.18067 9.52836 5.48137 9.3437C5.78208 9.15905 6.11708 9.36743 6.45209 9.5758C11.0025 13.6141 19.196 27.6311 20.4305 29.9787C21.2509 30.3031 24.6485 31.1154 32.219 31.6427C40.2749 32.286 50.6788 43.4963 57.5954 51.0507C59.2467 52.7283 60.5631 54.1975 61.6024 55.2156C62.734 56.3842 67.7354 60.1455 74.3882 65.5844C95.7445 82.4919 135.558 113.946 157.556 137.293C190.661 172.659 188.375 194.561 187.631 198.744C186.727 201.992 184.456 207.734 182.05 209.211ZM6.78454 12.4774C7.20934 15.5293 8.35966 21.4485 12.3747 29.3354L12.744 29.9368C19.0092 41.8251 27.5009 58.3507 41.0699 59.5424C42.8266 59.7059 44.5834 59.8694 46.0975 59.9749C56.6382 60.9557 61.5736 61.2378 64.7234 67.3785C67.7808 73.3688 92.3343 95.1456 124.155 120.328C147.798 138.936 181.812 180.164 180.43 198.819C179.879 207.025 181.127 207.708 181.127 207.708C182.005 207.79 184.772 203.192 185.748 198.038C186.178 195.703 189.308 173.49 156.052 138.216C134.297 114.928 94.576 83.6236 73.2197 66.716C66.0816 61.1611 61.4732 57.3655 60.1912 56.2893C59.1519 55.2711 57.8355 53.8019 56.1842 52.1244C49.8796 45.2294 39.3833 33.8687 31.9632 33.2491C22.3932 32.5004 19.4467 31.4111 19.4467 31.4111C19.204 31.353 19.1117 31.2027 19.0194 31.0524C18.927 30.902 11.7148 18.1458 6.78454 12.4774Z" fill="#DEEAFF"/>
<path d="M34.9759 49.6192C33.4724 50.5425 31.7499 50.7721 29.9008 50.4583C28.2021 50.0521 26.527 49.0102 25.6038 47.5067C23.5145 44.4417 24.4085 40.1657 27.6239 37.9842C29.1275 37.0609 30.908 36.5886 32.8494 37.0528C34.7909 37.517 36.2232 38.5009 37.1465 40.0044C39.2357 43.0694 38.3417 47.3453 35.1263 49.5269L34.9759 49.6192ZM28.6976 39.3953C28.6976 39.3953 28.5472 39.4877 28.6976 39.3953C26.1416 40.9649 25.63 44.1778 27.0149 46.4331C28.4922 48.8387 31.5547 49.4426 33.9603 47.9654C36.366 46.4881 36.8775 43.2753 35.4926 41.02C34.754 39.8172 33.6566 39.0417 32.2929 38.8439C31.0795 38.5538 29.75 38.749 28.6976 39.3953Z" fill="#DEEAFF"/>
</svg>
