<svg width="25" height="25" viewBox="0 0 25 25" fill="none" xmlns="http://www.w3.org/2000/svg">
<circle cx="12.5" cy="12.5" r="12.5" fill="#639AF7"/>
<path fill-rule="evenodd" clip-rule="evenodd" d="M8.99862 11.1356C8.81581 10.5129 8.73174 9.99043 8.67897 9.14883L8.66315 8.89648H6.69043L6.70496 9.23099C6.77181 10.7687 7.15223 12.1924 7.78545 13.2744C8.22724 14.0293 8.84246 14.6877 9.53811 15.15C10.4812 15.7768 11.6935 16.1265 12.9236 16.1265H13.3175V14.8355C13.3175 13.67 13.3211 13.5444 13.3548 13.5444C13.446 13.5444 13.8727 13.645 14.0613 13.7109C14.3308 13.8051 14.6482 13.9723 14.8804 14.1422C15.1302 14.3251 15.5005 14.705 15.6938 14.977C15.8641 15.2164 16.1216 15.7116 16.2092 15.9681L16.2633 16.1265H17.2904C17.8553 16.1265 18.3175 16.1226 18.3175 16.1178C18.3175 16.0924 18.1476 15.5968 18.0852 15.44C17.6273 14.2894 16.6826 13.2093 15.6106 12.6105L15.4088 12.4978L15.5897 12.3773C16.3352 11.8805 17.0538 11.0415 17.464 10.1892C17.6393 9.82482 17.82 9.28653 17.8606 9.00799L17.8768 8.89648H16.0208L15.9683 9.05494C15.5541 10.3053 14.6323 11.3663 13.693 11.6738C13.5962 11.7055 13.4721 11.7381 13.4172 11.7462L13.3175 11.7609V8.89648H11.416V11.4082C11.416 12.7897 11.4114 13.92 11.4057 13.92C11.4 13.92 11.3182 13.8924 11.2238 13.8587C10.2083 13.4961 9.40188 12.5093 8.99862 11.1356Z" fill="white"/>
</svg>
